<?xml version="1.0" encoding="utf-8"?>
<!-- Generator: Adobe Illustrator 23.0.1, SVG Export Plug-In . SVG Version: 6.00 Build 0)  -->
<svg version="1.1" xmlns="http://www.w3.org/2000/svg" xmlns:xlink="http://www.w3.org/1999/xlink" x="0px" y="0px"
	 viewBox="0 0 600 600" style="enable-background:new 0 0 600 600;" xml:space="preserve">
<style type="text/css">
	.st0{fill:#FFFFFF;}
</style>
<g id="Layer_2">
	<path d="M294.78,286.91c2.18-2.4,4.32-4.85,6.42-7.35c1.11-3.06,2.17-6.14,3.15-9.23c18.08,6.91,36.98,10.44,56.35,11.4
		c2.9,0.14,5.8,0.23,8.69,0.27c-2.53-1.41-5.09-2.79-7.67-4.11c-17.26-8.86-35.39-15.25-54.5-18.31c0.69-3.17,1.32-6.36,1.88-9.57
		c-0.57-3.21-1.19-6.4-1.88-9.57c19.12-3.05,37.25-9.44,54.5-18.31c2.58-1.33,5.13-2.7,7.67-4.11c-2.9,0.04-5.8,0.13-8.69,0.27
		c-19.38,0.95-38.27,4.48-56.35,11.4c-0.99-3.09-2.04-6.17-3.15-9.23c-2.09-2.5-4.23-4.95-6.42-7.35
		c15.03-12.2,27.53-26.8,38.05-43.11c1.57-2.44,3.1-4.9,4.58-7.39c-2.49,1.48-4.96,3.01-7.39,4.58
		c-16.31,10.51-30.9,23.02-43.11,38.05c-2.4-2.18-4.85-4.32-7.35-6.42c-3.06-1.11-6.14-2.17-9.23-3.15
		c6.91-18.08,10.45-36.98,11.4-56.35c0.14-2.9,0.23-5.8,0.27-8.69c-1.41,2.53-2.79,5.09-4.11,7.67
		c-8.86,17.26-15.25,35.39-18.31,54.5c-3.17-0.69-6.36-1.32-9.57-1.88c-3.21,0.57-6.4,1.19-9.57,1.88
		c-3.05-19.12-9.44-37.25-18.31-54.5c-1.33-2.58-2.7-5.13-4.11-7.67c0.04,2.9,0.13,5.8,0.27,8.69c0.95,19.38,4.48,38.27,11.4,56.35
		c-3.09,0.99-6.17,2.04-9.23,3.15c-2.5,2.09-4.95,4.23-7.35,6.42c-12.2-15.03-26.8-27.53-43.11-38.05c-2.44-1.57-4.9-3.1-7.39-4.58
		c1.48,2.49,3.01,4.96,4.58,7.39c10.51,16.31,23.02,30.9,38.05,43.11c-2.18,2.4-4.32,4.85-6.42,7.35c-1.11,3.06-2.17,6.14-3.16,9.23
		c-18.08-6.91-36.98-10.44-56.35-11.4c-2.9-0.14-5.8-0.23-8.69-0.27c2.53,1.41,5.09,2.79,7.67,4.11
		c17.26,8.86,35.39,15.25,54.5,18.31c-0.69,3.17-1.32,6.36-1.88,9.57c0.57,3.21,1.19,6.4,1.88,9.57
		c-19.12,3.05-37.25,9.44-54.5,18.31c-2.58,1.33-5.13,2.7-7.67,4.11c2.9-0.04,5.8-0.13,8.69-0.27c19.38-0.95,38.27-4.48,56.35-11.4
		c0.99,3.09,2.04,6.17,3.16,9.23c2.09,2.5,4.23,4.95,6.42,7.35c-15.03,12.2-27.53,26.8-38.05,43.11c-1.57,2.44-3.1,4.9-4.58,7.39
		c2.49-1.48,4.96-3.01,7.39-4.58c16.3-10.51,30.9-23.02,43.11-38.05c2.4,2.18,4.85,4.32,7.35,6.42c3.06,1.11,6.14,2.17,9.23,3.16
		c-6.91,18.08-10.44,36.98-11.4,56.35c-0.14,2.9-0.23,5.8-0.27,8.7c1.41-2.53,2.79-5.09,4.11-7.67
		c8.86-17.26,15.25-35.39,18.31-54.5c3.17,0.69,6.36,1.32,9.57,1.88c3.21-0.57,6.4-1.19,9.57-1.88c3.05,19.12,9.44,37.25,18.31,54.5
		c1.33,2.58,2.7,5.13,4.11,7.67c-0.04-2.9-0.13-5.8-0.27-8.7c-0.95-19.38-4.48-38.27-11.4-56.35c3.09-0.99,6.17-2.04,9.23-3.16
		c2.5-2.09,4.95-4.23,7.35-6.42c12.2,15.03,26.8,27.53,43.11,38.05c2.44,1.57,4.9,3.1,7.39,4.58c-1.48-2.49-3.01-4.96-4.58-7.39
		C322.31,313.71,309.81,299.11,294.78,286.91z M292.14,261.29c-1.1,3.68-2.3,7.33-3.6,10.96c-2.5,2.93-5.06,5.8-7.7,8.59
		c-2.79,2.63-5.66,5.2-8.59,7.7c-3.63,1.29-7.28,2.49-10.96,3.59c-3.74,0.88-7.5,1.67-11.29,2.37c-3.79-0.7-7.55-1.48-11.29-2.37
		c-3.68-1.1-7.33-2.3-10.96-3.59c-2.93-2.5-5.8-5.06-8.59-7.7c-2.63-2.79-5.2-5.66-7.7-8.59c-1.29-3.63-2.49-7.28-3.59-10.96
		c-0.88-3.74-1.67-7.5-2.37-11.29c0.7-3.79,1.48-7.55,2.37-11.29c1.1-3.68,2.3-7.33,3.59-10.96c2.5-2.93,5.06-5.8,7.7-8.59
		c2.79-2.63,5.66-5.2,8.59-7.7c3.63-1.29,7.28-2.49,10.96-3.6c3.74-0.88,7.5-1.67,11.29-2.37c3.79,0.7,7.56,1.48,11.29,2.37
		c3.68,1.1,7.33,2.3,10.96,3.6c2.93,2.5,5.8,5.06,8.59,7.7c2.63,2.79,5.2,5.66,7.7,8.59c1.29,3.63,2.49,7.28,3.6,10.96
		c0.88,3.74,1.67,7.5,2.37,11.29C293.81,253.79,293.02,257.55,292.14,261.29z"/>
	<path d="M276.37,234.77c-1.85-1.9-3.76-3.71-5.72-5.43c-1.72-1.96-3.54-3.86-5.43-5.72c-2.55-0.72-5.11-1.34-7.67-1.85
		c-2.47-0.84-4.99-1.58-7.56-2.23c-2.57,0.66-5.1,1.4-7.56,2.23c-2.55,0.51-5.11,1.13-7.67,1.85c-1.9,1.85-3.71,3.76-5.43,5.72
		c-1.96,1.72-3.86,3.54-5.72,5.43c-0.72,2.55-1.34,5.11-1.85,7.67c-0.84,2.47-1.58,4.99-2.23,7.56c0.66,2.57,1.4,5.1,2.23,7.56
		c0.51,2.55,1.13,5.11,1.85,7.67c1.85,1.9,3.76,3.71,5.72,5.43c1.72,1.96,3.53,3.86,5.43,5.72c2.55,0.72,5.11,1.34,7.67,1.85
		c2.47,0.84,4.99,1.58,7.56,2.23c2.57-0.66,5.1-1.4,7.56-2.23c2.55-0.51,5.11-1.13,7.67-1.85c1.9-1.85,3.71-3.76,5.43-5.72
		c1.96-1.72,3.86-3.53,5.72-5.43c0.72-2.55,1.34-5.11,1.85-7.67c0.84-2.47,1.58-4.99,2.23-7.56c-0.66-2.57-1.4-5.1-2.23-7.56
		C277.71,239.88,277.09,237.33,276.37,234.77z M267.42,254.67c-0.28,1.6-0.6,3.21-0.98,4.82c-1.21,1.13-2.43,2.22-3.69,3.26
		c-1.04,1.25-2.13,2.48-3.26,3.69c-1.61,0.38-3.22,0.71-4.82,0.98c-1.53,0.56-3.09,1.08-4.67,1.56c-1.58-0.48-3.14-1-4.67-1.56
		c-1.6-0.28-3.21-0.6-4.82-0.98c-1.13-1.21-2.22-2.44-3.26-3.69c-1.25-1.04-2.48-2.13-3.69-3.26c-0.38-1.61-0.71-3.22-0.98-4.82
		c-0.56-1.53-1.08-3.09-1.56-4.67c0.48-1.58,1-3.14,1.56-4.67c0.27-1.61,0.6-3.21,0.98-4.82c1.21-1.13,2.44-2.22,3.69-3.26
		c1.04-1.25,2.13-2.48,3.26-3.69c1.61-0.38,3.22-0.71,4.82-0.98c1.53-0.56,3.09-1.08,4.67-1.56c1.58,0.48,3.14,1,4.67,1.56
		c1.6,0.28,3.21,0.6,4.82,0.98c1.13,1.21,2.22,2.43,3.26,3.69c1.25,1.04,2.48,2.13,3.69,3.26c0.38,1.61,0.71,3.22,0.98,4.82
		c0.56,1.53,1.08,3.09,1.56,4.67C268.5,251.58,267.98,253.14,267.42,254.67z"/>
	<path d="M491.97,250c-15.91-16.6-30.45-34.6-44.65-52.87c3.16-22.92,6.75-45.79,12.23-68.11c-22.08-6.42-43.67-14.74-65.1-23.47
		c-8.72-21.43-17.05-43.03-23.47-65.1c-22.33,5.48-45.19,9.06-68.11,12.23C284.6,38.47,266.6,23.94,250,8.03
		c-16.6,15.91-34.6,30.45-52.87,44.65c-22.92-3.16-45.79-6.75-68.11-12.23c-6.42,22.08-14.74,43.67-23.47,65.1
		c-21.43,8.72-43.03,17.05-65.1,23.47c5.48,22.33,9.06,45.19,12.23,68.11C38.47,215.4,23.94,233.4,8.03,250
		c15.91,16.6,30.45,34.6,44.65,52.87c-3.16,22.92-6.75,45.79-12.23,68.11c22.08,6.42,43.67,14.74,65.1,23.47
		c8.72,21.43,17.05,43.03,23.47,65.1c22.33-5.48,45.19-9.06,68.11-12.23c18.27,14.2,36.28,28.74,52.87,44.65
		c16.6-15.91,34.6-30.45,52.87-44.65c22.92,3.16,45.79,6.75,68.11,12.23c6.42-22.08,14.74-43.67,23.47-65.1
		c21.43-8.72,43.03-17.05,65.1-23.47c-5.48-22.33-9.06-45.19-12.23-68.11C461.53,284.6,476.06,266.6,491.97,250z M406.54,127.14
		c9,3.3,18.03,6.46,27.14,9.35c-6.26,1.7-12.08,5.31-17.21,11.96c-2.07,2.69-3.72,5.47-4.99,8.32c3.1,0.33,6.33,0.29,9.7-0.16
		c8.32-1.11,14.35-4.35,18.96-8.92c-2.05,9.33-3.83,18.74-5.47,28.18c-9.98,21.04-38.37,11.68-54.77,1.48
		c-0.64-0.4-1.28-0.81-1.92-1.22c-0.04-0.76-0.07-1.52-0.1-2.28C377.24,154.53,383.33,125.26,406.54,127.14z M431.52,145.2
		c-0.93,0.63-1.91,1.2-2.96,1.71C429.53,146.25,430.51,145.69,431.52,145.2z M354.8,68.48c-0.49,1.01-1.06,1.99-1.71,2.96
		C353.6,70.39,354.17,69.41,354.8,68.48z M324.14,65.33c9.44-1.64,18.85-3.42,28.18-5.47c-4.57,4.6-7.81,10.64-8.92,18.96
		c-0.45,3.37-0.49,6.6-0.16,9.7c2.85-1.27,5.63-2.91,8.32-4.99c6.65-5.12,10.26-10.95,11.96-17.21c2.89,9.11,6.05,18.14,9.35,27.14
		c1.88,23.21-27.39,29.3-46.7,28.67c-0.76-0.03-1.52-0.06-2.28-0.1c-0.42-0.64-0.82-1.28-1.22-1.92
		C312.46,103.7,303.1,75.3,324.14,65.33z M327.34,129.56c-0.3,0.28-0.6,0.57-0.89,0.87c0.07-0.29,0.14-0.58,0.2-0.87
		C326.89,129.56,327.11,129.56,327.34,129.56z M318.8,130.84c-3.13,12.92-7.95,24.56-18.34,31.76
		C301.5,150,309.18,140.01,318.8,130.84z M315.32,124c0.12-0.4,0.21-0.8,0.31-1.2c0.12,0.2,0.22,0.39,0.34,0.59
		C315.75,123.59,315.54,123.8,315.32,124z M250,40.4c0.08,1.12,0.08,2.25,0,3.41C249.92,42.65,249.92,41.52,250,40.4z M221.87,53
		c7.36-6.14,14.61-12.39,21.67-18.83c-1.66,6.27-1.44,13.12,1.75,20.88c1.29,3.14,2.88,5.96,4.71,8.48
		c1.83-2.52,3.42-5.34,4.71-8.48c3.19-7.76,3.41-14.61,1.75-20.88c7.06,6.44,14.31,12.69,21.67,18.83
		c13.23,19.16-9.07,39.07-26.11,48.17c-0.67,0.36-1.34,0.71-2.02,1.05c-0.68-0.35-1.35-0.7-2.02-1.05
		C230.94,92.07,208.64,72.16,221.87,53z M256.76,107.03c-0.12,0.4-0.23,0.79-0.33,1.2c-0.09-0.29-0.17-0.57-0.26-0.86
		C256.37,107.26,256.56,107.14,256.76,107.03z M250,149.08c-5.39-11.43-3.74-23.92,0-36.67C253.74,125.16,255.39,137.65,250,149.08z
		 M243.83,107.37c-0.09,0.29-0.17,0.57-0.26,0.86c-0.1-0.4-0.21-0.8-0.33-1.2C243.44,107.14,243.63,107.26,243.83,107.37z
		 M146.91,71.43c-0.65-0.96-1.22-1.95-1.71-2.96C145.83,69.41,146.4,70.39,146.91,71.43z M127.14,93.46c3.3-9,6.46-18.03,9.35-27.14
		c1.7,6.26,5.31,12.08,11.96,17.21c2.69,2.07,5.47,3.72,8.32,4.99c0.33-3.1,0.29-6.33-0.16-9.7c-1.11-8.32-4.35-14.35-8.92-18.96
		c9.33,2.05,18.74,3.83,28.18,5.47c21.04,9.98,11.68,38.37,1.48,54.77c-0.4,0.64-0.81,1.28-1.22,1.92c-0.76,0.04-1.52,0.07-2.28,0.1
		C154.53,122.76,125.26,116.67,127.14,93.46z M199.54,162.6c-10.39-7.2-15.2-18.84-18.34-31.76
		C190.82,140.01,198.5,150,199.54,162.6z M184.02,123.39c0.12-0.19,0.23-0.39,0.34-0.59c0.1,0.4,0.19,0.8,0.31,1.2
		C184.46,123.8,184.25,123.59,184.02,123.39z M173.55,130.43c-0.29-0.3-0.59-0.59-0.89-0.87c0.23,0,0.45,0,0.68,0
		C173.41,129.85,173.48,130.14,173.55,130.43z M78.81,156.61c3.37,0.45,6.6,0.49,9.7,0.16c-1.27-2.85-2.91-5.63-4.99-8.32
		c-5.12-6.65-10.95-10.26-17.21-11.96c9.11-2.89,18.14-6.05,27.14-9.35c23.21-1.88,29.3,27.39,28.66,46.7
		c-0.02,0.76-0.06,1.52-0.1,2.28c-0.64,0.42-1.28,0.82-1.92,1.22c-16.4,10.2-44.8,19.57-54.77-1.48
		c-1.64-9.44-3.42-18.85-5.47-28.18C64.46,152.26,70.49,155.49,78.81,156.61z M68.48,145.2c1.01,0.49,1.99,1.06,2.96,1.71
		C70.39,146.4,69.41,145.83,68.48,145.2z M34.17,256.46c6.27,1.66,13.12,1.44,20.88-1.75c3.14-1.29,5.96-2.88,8.48-4.71
		c-2.52-1.83-5.34-3.42-8.48-4.71c-7.76-3.19-14.61-3.41-20.88-1.75c6.44-7.06,12.69-14.31,18.83-21.67
		c19.16-13.23,39.07,9.07,48.17,26.11c0.36,0.67,0.71,1.34,1.05,2.02c-0.34,0.68-0.7,1.35-1.05,2.02
		c-9.1,17.04-29.01,39.34-48.17,26.11C46.86,270.77,40.61,263.52,34.17,256.46z M40.4,250c1.12-0.08,2.25-0.08,3.41,0
		C42.65,250.08,41.52,250.08,40.4,250z M93.46,372.86c-9-3.3-18.03-6.46-27.14-9.35c6.26-1.7,12.08-5.31,17.21-11.96
		c2.07-2.69,3.72-5.47,4.99-8.32c-3.1-0.33-6.33-0.29-9.7,0.16c-8.32,1.11-14.35,4.35-18.96,8.92c2.05-9.33,3.83-18.74,5.47-28.18
		c9.98-21.04,38.37-11.68,54.77-1.48c0.64,0.4,1.28,0.81,1.92,1.22c0.04,0.76,0.07,1.52,0.1,2.28
		C122.76,345.47,116.67,374.74,93.46,372.86z M68.48,354.8c0.93-0.63,1.91-1.2,2.96-1.71C70.47,353.75,69.49,354.31,68.48,354.8z
		 M145.2,431.52c0.49-1.01,1.06-1.99,1.71-2.96C146.4,429.61,145.83,430.59,145.2,431.52z M175.86,434.67
		c-9.44,1.64-18.85,3.42-28.18,5.47c4.57-4.6,7.81-10.64,8.92-18.96c0.45-3.37,0.49-6.6,0.16-9.7c-2.85,1.27-5.63,2.91-8.32,4.99
		c-6.65,5.12-10.26,10.95-11.96,17.21c-2.89-9.11-6.05-18.14-9.35-27.14c-1.88-23.21,27.39-29.3,46.7-28.66
		c0.76,0.02,1.52,0.06,2.28,0.1c0.42,0.64,0.82,1.28,1.22,1.92C187.54,396.3,196.9,424.7,175.86,434.67z M172.66,370.44
		c0.3-0.28,0.6-0.57,0.89-0.87c-0.07,0.29-0.14,0.58-0.2,0.87C173.11,370.44,172.89,370.44,172.66,370.44z M181.2,369.16
		c3.13-12.92,7.95-24.56,18.34-31.76C198.5,350,190.82,359.99,181.2,369.16z M184.68,376c-0.12,0.4-0.21,0.8-0.31,1.2
		c-0.12-0.2-0.23-0.39-0.34-0.59C184.25,376.4,184.46,376.2,184.68,376z M250,459.6c-0.08-1.12-0.08-2.25,0-3.41
		C250.08,457.35,250.08,458.48,250,459.6z M278.13,447c-7.36,6.14-14.61,12.39-21.67,18.83c1.66-6.27,1.44-13.12-1.75-20.88
		c-1.29-3.14-2.88-5.96-4.71-8.48c-1.83,2.52-3.42,5.34-4.71,8.48c-3.2,7.76-3.41,14.61-1.75,20.88
		c-7.06-6.44-14.31-12.69-21.67-18.83c-13.23-19.16,9.07-39.07,26.11-48.17c0.67-0.36,1.34-0.71,2.02-1.05
		c0.68,0.34,1.35,0.7,2.02,1.05C269.06,407.93,291.36,427.84,278.13,447z M243.24,392.97c0.12-0.39,0.23-0.79,0.33-1.2
		c0.09,0.29,0.17,0.57,0.26,0.86C243.63,392.74,243.44,392.86,243.24,392.97z M250,350.92c5.39,11.43,3.74,23.92,0,36.67
		C246.26,374.84,244.61,362.35,250,350.92z M256.17,392.63c0.09-0.29,0.17-0.57,0.26-0.86c0.1,0.4,0.21,0.8,0.33,1.2
		C256.56,392.86,256.37,392.74,256.17,392.63z M353.09,428.56c0.65,0.96,1.22,1.95,1.71,2.96
		C354.17,430.59,353.6,429.61,353.09,428.56z M372.86,406.54c-3.3,9-6.46,18.03-9.35,27.14c-1.7-6.26-5.31-12.08-11.96-17.21
		c-2.69-2.07-5.47-3.72-8.32-4.99c-0.33,3.1-0.29,6.33,0.16,9.7c1.11,8.32,4.35,14.35,8.92,18.96c-9.33-2.05-18.74-3.83-28.18-5.47
		c-21.04-9.98-11.68-38.37-1.48-54.77c0.4-0.64,0.81-1.28,1.22-1.92c0.76-0.04,1.52-0.07,2.28-0.1
		C345.47,377.24,374.74,383.33,372.86,406.54z M300.46,337.4c10.39,7.2,15.2,18.84,18.34,31.76
		C309.18,359.99,301.5,350,300.46,337.4z M315.98,376.61c-0.12,0.2-0.23,0.39-0.34,0.59c-0.1-0.4-0.2-0.8-0.31-1.2
		C315.54,376.2,315.75,376.4,315.98,376.61z M326.45,369.57c0.29,0.3,0.59,0.59,0.89,0.87c-0.23,0-0.45,0-0.68,0
		C326.59,370.15,326.52,369.86,326.45,369.57z M382.14,382.14c-0.81,2.09-1.63,4.18-2.43,6.27c-5.63-8.8-16.43-13.7-26.49-16.52
		c-6.7-1.88-16.06-1.44-21.4-6.48c-5.89-5.55-9.34-14.98-14.33-21.45c-6.47-8.39-14.41-15.3-24.12-18.88
		c-1.76,10.2,0.25,20.54,4.29,30.33c3.11,7.55,9.54,15.26,11.41,23.13c1.69,7.15-3.37,15.04-5.09,21.77
		c-2.59,10.13-3.75,21.92,1.06,31.2c-2.22-0.35-4.43-0.69-6.65-1.03c-1.75,1.4-3.5,2.81-5.24,4.21
		c-0.48-10.44-7.38-20.07-14.69-27.55c-4.86-4.97-13.19-9.27-15.3-16.31c-2.32-7.75-0.6-17.64-1.68-25.73
		c-1.4-10.5-4.83-20.46-11.45-28.41c-6.62,7.95-10.05,17.91-11.45,28.41c-1.08,8.1,0.64,17.98-1.68,25.73
		c-2.11,7.04-10.43,11.34-15.3,16.31c-7.31,7.47-14.21,17.11-14.69,27.55c-1.75-1.41-3.49-2.81-5.24-4.21
		c-2.22,0.34-4.43,0.68-6.65,1.03c4.8-9.28,3.65-21.07,1.06-31.2c-1.73-6.74-6.79-14.63-5.09-21.77c1.87-7.87,8.3-15.58,11.41-23.13
		c4.03-9.79,6.05-20.13,4.29-30.33c-9.71,3.57-17.66,10.49-24.12,18.88c-4.99,6.47-8.44,15.89-14.33,21.45
		c-5.34,5.04-14.71,4.6-21.4,6.48c-10.07,2.82-20.86,7.72-26.49,16.52c-0.81-2.09-1.62-4.18-2.44-6.27
		c-2.09-0.82-4.18-1.63-6.27-2.44c8.8-5.63,13.7-16.43,16.51-26.49c1.88-6.7,1.44-16.06,6.48-21.4c5.55-5.88,14.98-9.34,21.44-14.33
		c8.39-6.46,15.3-14.41,18.88-24.12c-10.2-1.76-20.54,0.25-30.33,4.29c-7.55,3.11-15.26,9.54-23.13,11.41
		c-7.15,1.69-15.04-3.37-21.77-5.09c-10.13-2.59-21.92-3.75-31.2,1.06c0.35-2.22,0.69-4.43,1.03-6.65c-1.4-1.75-2.81-3.5-4.21-5.24
		c10.44-0.48,20.07-7.38,27.55-14.69c4.97-4.86,9.27-13.19,16.31-15.3c7.75-2.32,17.64-0.6,25.73-1.68
		c10.5-1.4,20.46-4.83,28.41-11.45c-7.95-6.63-17.91-10.05-28.41-11.45c-8.1-1.08-17.98,0.64-25.73-1.68
		c-7.04-2.11-11.34-10.43-16.31-15.3c-7.47-7.31-17.11-14.21-27.55-14.69c1.41-1.75,2.81-3.49,4.21-5.24
		c-0.34-2.22-0.68-4.43-1.03-6.65c9.28,4.8,21.07,3.65,31.2,1.06c6.74-1.73,14.63-6.79,21.77-5.09c7.87,1.87,15.58,8.3,23.13,11.41
		c9.79,4.03,20.13,6.05,30.33,4.29c-3.57-9.71-10.49-17.66-18.88-24.12c-6.47-4.98-15.89-8.44-21.44-14.33
		c-5.04-5.34-4.6-14.71-6.48-21.4c-2.82-10.07-7.72-20.86-16.51-26.49c2.09-0.81,4.18-1.62,6.27-2.43c0.82-2.09,1.63-4.18,2.44-6.27
		c5.63,8.8,16.43,13.7,26.49,16.52c6.7,1.88,16.06,1.44,21.4,6.48c5.89,5.55,9.34,14.98,14.33,21.45
		c6.46,8.39,14.41,15.3,24.12,18.88c1.76-10.2-0.25-20.54-4.29-30.33c-3.11-7.55-9.54-15.26-11.41-23.13
		c-1.69-7.15,3.37-15.04,5.09-21.77c2.59-10.13,3.75-21.92-1.06-31.2c2.22,0.35,4.43,0.69,6.65,1.03c1.75-1.4,3.5-2.81,5.24-4.21
		c0.48,10.44,7.38,20.08,14.69,27.55c4.86,4.97,13.19,9.27,15.3,16.31c2.32,7.75,0.6,17.64,1.68,25.73
		c1.4,10.5,4.83,20.46,11.45,28.41c6.63-7.95,10.05-17.91,11.45-28.41c1.08-8.09-0.64-17.98,1.68-25.73
		c2.11-7.04,10.43-11.34,15.3-16.31c7.31-7.47,14.21-17.11,14.69-27.55c1.75,1.41,3.49,2.81,5.24,4.21
		c2.22-0.34,4.43-0.68,6.65-1.03c-4.8,9.28-3.65,21.07-1.06,31.2c1.73,6.74,6.79,14.63,5.09,21.77c-1.87,7.87-8.3,15.58-11.41,23.13
		c-4.03,9.79-6.05,20.13-4.29,30.33c9.71-3.57,17.66-10.49,24.12-18.88c4.99-6.47,8.44-15.89,14.33-21.45
		c5.34-5.04,14.71-4.6,21.4-6.48c10.07-2.82,20.86-7.72,26.49-16.52c0.81,2.09,1.62,4.18,2.43,6.27c2.09,0.81,4.18,1.63,6.27,2.43
		c-8.8,5.63-13.7,16.43-16.52,26.49c-1.88,6.7-1.44,16.06-6.48,21.4c-5.55,5.89-14.98,9.34-21.44,14.33
		c-8.39,6.47-15.3,14.41-18.88,24.12c10.2,1.76,20.54-0.25,30.33-4.29c7.55-3.11,15.26-9.54,23.13-11.41
		c7.15-1.69,15.04,3.37,21.77,5.09c10.13,2.59,21.92,3.75,31.2-1.06c-0.35,2.22-0.69,4.43-1.03,6.65c1.4,1.75,2.81,3.5,4.22,5.24
		c-10.44,0.48-20.08,7.38-27.55,14.69c-4.97,4.86-9.27,13.19-16.31,15.3c-7.75,2.32-17.64,0.6-25.73,1.68
		c-10.5,1.4-20.46,4.83-28.41,11.45c7.95,6.62,17.91,10.05,28.41,11.45c8.09,1.08,17.98-0.64,25.73,1.68
		c7.04,2.11,11.34,10.43,16.31,15.3c7.47,7.31,17.11,14.21,27.55,14.69c-1.41,1.75-2.81,3.49-4.22,5.24
		c0.34,2.22,0.68,4.43,1.03,6.65c-9.28-4.8-21.07-3.65-31.2-1.06c-6.74,1.73-14.63,6.79-21.77,5.09
		c-7.87-1.87-15.58-8.3-23.13-11.41c-9.79-4.03-20.13-6.05-30.33-4.29c3.57,9.71,10.49,17.66,18.88,24.12
		c6.47,4.99,15.89,8.44,21.44,14.33c5.04,5.34,4.6,14.71,6.48,21.4c2.82,10.07,7.72,20.86,16.52,26.49
		C386.32,380.51,384.23,381.32,382.14,382.14z M122.8,315.63c0.4-0.1,0.8-0.19,1.2-0.31c-0.2,0.22-0.41,0.43-0.61,0.65
		C123.2,315.86,123,315.75,122.8,315.63z M129.56,326.66c0.29-0.07,0.58-0.14,0.87-0.2c-0.3,0.29-0.59,0.59-0.87,0.89
		C129.56,327.11,129.56,326.89,129.56,326.66z M130.84,318.8c9.17-9.62,19.16-17.29,31.76-18.34
		C155.4,310.85,143.76,315.66,130.84,318.8z M107.37,256.17c0.29,0.09,0.57,0.17,0.86,0.26c-0.4,0.1-0.8,0.21-1.2,0.33
		C107.14,256.56,107.26,256.37,107.37,256.17z M107.03,243.24c0.4,0.12,0.79,0.23,1.2,0.33c-0.29,0.09-0.57,0.17-0.86,0.26
		C107.26,243.63,107.14,243.44,107.03,243.24z M112.41,250c12.75-3.74,25.24-5.39,36.67,0C137.65,255.39,125.16,253.74,112.41,250z
		 M122.8,184.37c0.2-0.12,0.39-0.22,0.59-0.34c0.2,0.22,0.41,0.43,0.61,0.65C123.6,184.56,123.2,184.46,122.8,184.37z
		 M129.56,173.34c0-0.23,0-0.45,0-0.68c0.28,0.3,0.57,0.6,0.87,0.89C130.14,173.48,129.85,173.41,129.56,173.34z M130.84,181.2
		c12.92,3.13,24.56,7.95,31.76,18.34C150,198.5,140.01,190.82,130.84,181.2z M377.2,184.37c-0.4,0.1-0.8,0.2-1.2,0.31
		c0.2-0.22,0.41-0.43,0.61-0.65C376.8,184.14,377,184.25,377.2,184.37z M370.44,173.34c-0.29,0.06-0.58,0.14-0.87,0.2
		c0.3-0.29,0.59-0.59,0.87-0.89C370.44,172.89,370.44,173.11,370.44,173.34z M369.16,181.2c-9.17,9.62-19.16,17.29-31.76,18.34
		C344.6,189.15,356.24,184.34,369.16,181.2z M392.63,243.83c-0.29-0.09-0.57-0.17-0.86-0.26c0.4-0.1,0.8-0.21,1.2-0.33
		C392.86,243.44,392.74,243.63,392.63,243.83z M392.97,256.76c-0.4-0.12-0.79-0.23-1.2-0.33c0.29-0.09,0.57-0.17,0.86-0.26
		C392.74,256.37,392.86,256.56,392.97,256.76z M387.59,250c-12.75,3.74-25.24,5.39-36.67,0C362.35,244.61,374.84,246.26,387.59,250z
		 M377.2,315.63c-0.2,0.12-0.39,0.23-0.59,0.34c-0.2-0.22-0.41-0.43-0.61-0.65C376.4,315.44,376.8,315.54,377.2,315.63z
		 M370.44,326.66c0,0.23,0,0.45,0,0.68c-0.28-0.3-0.57-0.6-0.87-0.89C369.86,326.52,370.15,326.59,370.44,326.66z M369.16,318.8
		c-12.92-3.13-24.56-7.95-31.76-18.34C350,301.5,359.99,309.18,369.16,318.8z M421.19,343.39c-3.37-0.45-6.6-0.49-9.7-0.16
		c1.27,2.85,2.91,5.63,4.99,8.32c5.12,6.65,10.95,10.26,17.21,11.96c-9.11,2.89-18.14,6.05-27.14,9.35
		c-23.21,1.88-29.3-27.39-28.67-46.7c0.03-0.76,0.06-1.52,0.1-2.28c0.64-0.42,1.28-0.82,1.92-1.22c16.4-10.2,44.8-19.57,54.77,1.48
		c1.64,9.44,3.42,18.85,5.47,28.18C435.54,347.74,429.51,344.51,421.19,343.39z M431.52,354.8c-1.01-0.49-1.99-1.06-2.96-1.71
		C429.61,353.6,430.59,354.17,431.52,354.8z M398.83,252.02c-0.36-0.67-0.71-1.34-1.05-2.02c0.35-0.68,0.7-1.35,1.05-2.02
		c9.1-17.04,29.01-39.34,48.17-26.11c6.14,7.36,12.39,14.61,18.83,21.67c-6.27-1.66-13.12-1.44-20.88,1.75
		c-3.14,1.29-5.96,2.88-8.48,4.71c2.52,1.83,5.34,3.42,8.48,4.71c7.76,3.19,14.61,3.41,20.88,1.75
		c-6.44,7.06-12.69,14.31-18.83,21.67C427.84,291.36,407.93,269.06,398.83,252.02z M459.6,250c-1.12,0.08-2.25,0.08-3.41,0
		C457.35,249.92,458.48,249.92,459.6,250z"/>
</g>
<g id="Layer_8">
	<g>
		<path class="st0" d="M176.11,377.98c-0.76-0.04-1.52-0.07-2.28-0.1c-19.31-0.64-48.58,5.46-46.7,28.66
			c3.3,9,6.46,18.03,9.35,27.14c1.7-6.26,5.31-12.08,11.96-17.21c2.69-2.07,5.47-3.72,8.32-4.99c0.33,3.1,0.29,6.33-0.16,9.7
			c-1.11,8.32-4.35,14.35-8.92,18.96c9.33-2.05,18.74-3.83,28.18-5.47c21.04-9.98,11.68-38.37,1.48-54.77
			C176.94,379.26,176.53,378.62,176.11,377.98z"/>
		<path class="st0" d="M122.12,326.16c-0.02-0.76-0.06-1.52-0.1-2.28c-0.64-0.42-1.28-0.82-1.92-1.22
			c-16.4-10.2-44.8-19.57-54.77,1.48c-1.64,9.44-3.42,18.85-5.47,28.18c4.6-4.57,10.64-7.81,18.96-8.92c3.37-0.45,6.6-0.49,9.7-0.16
			c-1.27,2.85-2.91,5.63-4.99,8.32c-5.12,6.65-10.95,10.26-17.21,11.96c9.11,2.89,18.14,6.05,27.14,9.35
			C116.67,374.74,122.76,345.47,122.12,326.16z"/>
		<path class="st0" d="M252.02,398.83c-0.67-0.36-1.34-0.71-2.02-1.05c-0.68,0.34-1.35,0.7-2.02,1.05
			c-17.04,9.1-39.34,29.01-26.11,48.17c7.36,6.14,14.61,12.39,21.67,18.83c-1.66-6.27-1.44-13.12,1.75-20.88
			c1.29-3.14,2.88-5.96,4.71-8.48c1.83,2.52,3.42,5.34,4.71,8.48c3.19,7.76,3.41,14.61,1.75,20.88
			c7.06-6.44,14.31-12.69,21.67-18.83C291.36,427.84,269.06,407.93,252.02,398.83z"/>
		<path class="st0" d="M101.17,252.02c0.36-0.67,0.71-1.34,1.05-2.02c-0.34-0.68-0.7-1.35-1.05-2.02
			c-9.1-17.04-29.01-39.34-48.17-26.11c-6.14,7.36-12.39,14.61-18.83,21.67c6.27-1.66,13.12-1.44,20.88,1.75
			c3.14,1.29,5.96,2.88,8.48,4.71c-2.52,1.83-5.34,3.42-8.48,4.71c-7.76,3.19-14.61,3.41-20.88,1.75
			c6.44,7.06,12.69,14.31,18.83,21.67C72.16,291.36,92.07,269.06,101.17,252.02z"/>
		<path class="st0" d="M247.98,101.17c0.67,0.36,1.34,0.71,2.02,1.05c0.68-0.35,1.35-0.7,2.02-1.05
			c17.04-9.1,39.34-29.01,26.11-48.17c-7.36-6.14-14.61-12.39-21.67-18.83c1.66,6.27,1.44,13.12-1.75,20.88
			c-1.29,3.14-2.88,5.96-4.71,8.48c-1.83-2.52-3.42-5.34-4.71-8.48c-3.2-7.76-3.41-14.61-1.75-20.88
			c-7.06,6.44-14.31,12.69-21.67,18.83C208.64,72.16,230.94,92.07,247.98,101.17z"/>
		<path class="st0" d="M323.89,122.02c0.76,0.04,1.52,0.07,2.28,0.1c19.31,0.64,48.58-5.46,46.7-28.67c-3.3-9-6.46-18.03-9.35-27.14
			c-1.7,6.26-5.31,12.08-11.96,17.21c-2.69,2.07-5.47,3.72-8.32,4.99c-0.33-3.1-0.29-6.33,0.16-9.7c1.11-8.32,4.35-14.35,8.92-18.96
			c-9.33,2.05-18.74,3.83-28.18,5.47c-21.04,9.98-11.68,38.37-1.48,54.77C323.06,120.74,323.47,121.38,323.89,122.02z"/>
		<path class="st0" d="M65.33,175.86c9.98,21.04,38.37,11.68,54.77,1.48c0.64-0.4,1.28-0.81,1.92-1.22c0.04-0.76,0.07-1.52,0.1-2.28
			c0.64-19.31-5.46-48.58-28.66-46.7c-9,3.3-18.03,6.46-27.14,9.35c6.26,1.7,12.08,5.31,17.21,11.96c2.07,2.69,3.72,5.47,4.99,8.32
			c-3.1,0.33-6.33,0.29-9.7-0.16c-8.32-1.11-14.35-4.35-18.96-8.92C61.9,157.01,63.69,166.42,65.33,175.86z"/>
		<path class="st0" d="M326.16,377.88c-0.76,0.02-1.52,0.06-2.28,0.1c-0.42,0.64-0.82,1.28-1.22,1.92
			c-10.2,16.4-19.57,44.8,1.48,54.77c9.44,1.64,18.85,3.42,28.18,5.47c-4.57-4.6-7.81-10.64-8.92-18.96
			c-0.45-3.37-0.49-6.6-0.16-9.7c2.85,1.27,5.63,2.91,8.32,4.99c6.65,5.12,10.26,10.95,11.96,17.21c2.89-9.11,6.05-18.14,9.35-27.14
			C374.74,383.33,345.47,377.24,326.16,377.88z"/>
		<path class="st0" d="M173.84,122.12c0.76-0.03,1.52-0.06,2.28-0.1c0.42-0.64,0.82-1.28,1.22-1.92c10.2-16.4,19.57-44.8-1.48-54.77
			c-9.44-1.64-18.85-3.42-28.18-5.47c4.57,4.6,7.81,10.64,8.92,18.96c0.45,3.37,0.49,6.6,0.16,9.7c-2.85-1.27-5.63-2.91-8.32-4.99
			c-6.65-5.12-10.26-10.95-11.96-17.21c-2.89,9.11-6.05,18.14-9.35,27.14C125.26,116.67,154.53,122.76,173.84,122.12z"/>
		<path class="st0" d="M444.95,254.71c-3.14-1.29-5.96-2.88-8.48-4.71c2.52-1.83,5.34-3.42,8.48-4.71
			c7.76-3.19,14.61-3.41,20.88-1.75c-6.44-7.06-12.69-14.31-18.83-21.67c-19.16-13.23-39.07,9.07-48.17,26.11
			c-0.36,0.67-0.71,1.34-1.05,2.02c0.35,0.68,0.7,1.35,1.05,2.02c9.1,17.04,29.01,39.34,48.17,26.11
			c6.14-7.36,12.39-14.61,18.83-21.67C459.56,258.12,452.71,257.91,444.95,254.71z"/>
		<path class="st0" d="M377.88,173.84c0.03,0.76,0.06,1.52,0.1,2.28c0.64,0.42,1.28,0.82,1.92,1.22c16.4,10.2,44.8,19.57,54.77-1.48
			c1.64-9.44,3.42-18.85,5.47-28.18c-4.6,4.57-10.64,7.81-18.96,8.92c-3.37,0.45-6.6,0.49-9.7,0.16c1.27-2.85,2.91-5.63,4.99-8.32
			c5.12-6.65,10.95-10.26,17.21-11.96c-9.11-2.89-18.14-6.05-27.14-9.35C383.33,125.26,377.24,154.53,377.88,173.84z"/>
		<path class="st0" d="M434.67,324.14c-9.98-21.04-38.37-11.68-54.77-1.48c-0.64,0.4-1.28,0.81-1.92,1.22
			c-0.04,0.76-0.07,1.52-0.1,2.28c-0.64,19.31,5.46,48.58,28.67,46.7c9-3.3,18.03-6.46,27.14-9.35c-6.26-1.7-12.08-5.31-17.21-11.96
			c-2.07-2.69-3.72-5.47-4.99-8.32c3.1-0.33,6.33-0.29,9.7,0.16c8.32,1.11,14.35,4.35,18.96,8.92
			C438.1,342.99,436.31,333.58,434.67,324.14z"/>
	</g>
</g>
<g id="Layer_7">
	<path class="st0" d="M181.2,369.16c9.62-9.17,17.29-19.16,18.34-31.76C189.15,344.6,184.34,356.24,181.2,369.16z"/>
	<path class="st0" d="M250,350.92c-5.39,11.43-3.74,23.92,0,36.67C253.74,374.84,255.39,362.35,250,350.92z"/>
	<path class="st0" d="M250,149.08c5.39-11.43,3.74-23.92,0-36.67C246.26,125.16,244.61,137.65,250,149.08z"/>
	<path class="st0" d="M318.8,130.84c-9.62,9.17-17.29,19.16-18.34,31.76C310.85,155.4,315.66,143.76,318.8,130.84z"/>
	<path class="st0" d="M181.2,130.84c3.13,12.92,7.95,24.56,18.34,31.76C198.5,150,190.82,140.01,181.2,130.84z"/>
	<path class="st0" d="M350.92,250c11.43,5.39,23.92,3.74,36.67,0C374.84,246.26,362.35,244.61,350.92,250z"/>
	<path class="st0" d="M337.4,199.54c12.6-1.04,22.59-8.72,31.76-18.34C356.24,184.34,344.6,189.15,337.4,199.54z"/>
	<path class="st0" d="M369.16,318.8c-9.17-9.62-19.16-17.29-31.76-18.34C344.6,310.85,356.24,315.66,369.16,318.8z"/>
	<path class="st0" d="M318.8,369.16c-3.13-12.92-7.95-24.56-18.34-31.76C301.5,350,309.18,359.99,318.8,369.16z"/>
	<path class="st0" d="M149.08,250c-11.43-5.39-23.92-3.74-36.67,0C125.16,253.74,137.65,255.39,149.08,250z"/>
	<path class="st0" d="M130.84,181.2c9.17,9.62,19.16,17.29,31.76,18.34C155.4,189.15,143.76,184.34,130.84,181.2z"/>
	<path class="st0" d="M162.6,300.46c-12.6,1.04-22.59,8.72-31.76,18.34C143.76,315.66,155.4,310.85,162.6,300.46z"/>
</g>
<g id="Layer_3">
	<path class="st0" d="M266.44,240.51c-1.21-1.13-2.43-2.22-3.69-3.26c-1.04-1.25-2.13-2.48-3.26-3.69
		c-1.61-0.38-3.22-0.71-4.82-0.98c-1.53-0.56-3.09-1.08-4.67-1.56c-1.58,0.48-3.14,1-4.67,1.56c-1.6,0.28-3.21,0.6-4.82,0.98
		c-1.13,1.21-2.22,2.43-3.26,3.69c-1.25,1.04-2.48,2.13-3.69,3.26c-0.38,1.61-0.71,3.22-0.98,4.82c-0.56,1.53-1.08,3.09-1.56,4.67
		c0.48,1.58,1,3.14,1.56,4.67c0.27,1.6,0.6,3.21,0.98,4.82c1.21,1.13,2.44,2.22,3.69,3.26c1.04,1.25,2.13,2.48,3.26,3.69
		c1.61,0.38,3.22,0.71,4.82,0.98c1.53,0.56,3.09,1.08,4.67,1.56c1.58-0.48,3.14-1,4.67-1.56c1.6-0.28,3.21-0.6,4.82-0.98
		c1.13-1.21,2.22-2.44,3.26-3.69c1.25-1.04,2.48-2.13,3.69-3.26c0.38-1.61,0.71-3.22,0.98-4.82c0.56-1.53,1.08-3.09,1.56-4.67
		c-0.48-1.58-1-3.14-1.56-4.67C267.14,243.73,266.82,242.12,266.44,240.51z"/>
</g>
<g id="Layer_4">
	<path class="st0" d="M371.89,353.21c-1.88-6.7-1.44-16.06-6.48-21.4c-5.55-5.88-14.98-9.34-21.44-14.33
		c-8.39-6.46-15.3-14.41-18.88-24.12c10.2-1.76,20.54,0.25,30.33,4.29c7.55,3.11,15.26,9.54,23.13,11.41
		c7.15,1.69,15.04-3.37,21.77-5.09c10.13-2.59,21.92-3.75,31.2,1.06c-0.35-2.22-0.69-4.43-1.03-6.65c1.4-1.75,2.81-3.5,4.22-5.24
		c-10.44-0.48-20.08-7.38-27.55-14.69c-4.97-4.86-9.27-13.19-16.31-15.3c-7.75-2.32-17.64-0.6-25.73-1.68
		c-10.5-1.4-20.46-4.83-28.41-11.45c7.95-6.63,17.91-10.05,28.41-11.45c8.09-1.08,17.98,0.64,25.73-1.68
		c7.04-2.11,11.34-10.43,16.31-15.3c7.47-7.31,17.11-14.21,27.55-14.69c-1.41-1.75-2.81-3.49-4.22-5.24
		c0.34-2.22,0.68-4.43,1.03-6.65c-9.28,4.8-21.07,3.65-31.2,1.06c-6.74-1.73-14.63-6.79-21.77-5.09
		c-7.87,1.87-15.58,8.3-23.13,11.41c-9.79,4.03-20.13,6.05-30.33,4.29c3.57-9.71,10.49-17.66,18.88-24.12
		c6.47-4.98,15.89-8.44,21.44-14.33c5.04-5.34,4.6-14.71,6.48-21.4c2.82-10.07,7.72-20.86,16.52-26.49
		c-2.09-0.81-4.18-1.62-6.27-2.43c-0.81-2.09-1.63-4.18-2.43-6.27c-5.63,8.8-16.43,13.7-26.49,16.52c-6.7,1.88-16.06,1.44-21.4,6.48
		c-5.89,5.55-9.34,14.98-14.33,21.45c-6.47,8.39-14.41,15.3-24.12,18.88c-1.76-10.2,0.25-20.54,4.29-30.33
		c3.11-7.55,9.54-15.26,11.41-23.13c1.69-7.15-3.37-15.04-5.09-21.77c-2.59-10.13-3.75-21.92,1.06-31.2
		c-2.22,0.35-4.43,0.69-6.65,1.03c-1.75-1.4-3.5-2.81-5.24-4.21c-0.48,10.44-7.38,20.08-14.69,27.55
		c-4.86,4.97-13.19,9.27-15.3,16.31c-2.32,7.75-0.6,17.64-1.68,25.73c-1.4,10.5-4.83,20.46-11.45,28.41
		c-6.62-7.95-10.05-17.91-11.45-28.41c-1.08-8.09,0.64-17.98-1.68-25.73c-2.11-7.04-10.43-11.34-15.3-16.31
		c-7.31-7.47-14.21-17.11-14.69-27.55c-1.75,1.41-3.49,2.81-5.24,4.21c-2.22-0.34-4.43-0.68-6.65-1.03
		c4.8,9.28,3.65,21.07,1.06,31.2c-1.73,6.74-6.79,14.63-5.09,21.77c1.87,7.87,8.3,15.58,11.41,23.13
		c4.03,9.79,6.05,20.13,4.29,30.33c-9.71-3.57-17.66-10.49-24.12-18.88c-4.99-6.47-8.44-15.89-14.33-21.45
		c-5.34-5.04-14.71-4.6-21.4-6.48c-10.07-2.82-20.86-7.72-26.49-16.52c-0.81,2.09-1.62,4.18-2.44,6.27
		c-2.09,0.81-4.18,1.63-6.27,2.43c8.8,5.63,13.7,16.43,16.51,26.49c1.88,6.7,1.44,16.06,6.48,21.4c5.55,5.89,14.98,9.34,21.44,14.33
		c8.39,6.47,15.3,14.41,18.88,24.12c-10.2,1.76-20.54-0.25-30.33-4.29c-7.55-3.11-15.26-9.54-23.13-11.41
		c-7.15-1.69-15.04,3.37-21.77,5.09c-10.13,2.59-21.92,3.75-31.2-1.06c0.35,2.22,0.69,4.43,1.03,6.65c-1.4,1.75-2.81,3.5-4.21,5.24
		c10.44,0.48,20.07,7.38,27.55,14.69c4.97,4.86,9.27,13.19,16.31,15.3c7.75,2.32,17.64,0.6,25.73,1.68
		c10.5,1.4,20.46,4.83,28.41,11.45c-7.95,6.62-17.91,10.05-28.41,11.45c-8.1,1.08-17.98-0.64-25.73,1.68
		c-7.04,2.11-11.34,10.43-16.31,15.3c-7.47,7.31-17.11,14.21-27.55,14.69c1.41,1.75,2.81,3.49,4.21,5.24
		c-0.34,2.22-0.68,4.43-1.03,6.65c9.28-4.8,21.07-3.65,31.2-1.06c6.74,1.73,14.63,6.79,21.77,5.09c7.87-1.87,15.58-8.3,23.13-11.41
		c9.79-4.03,20.13-6.05,30.33-4.29c-3.57,9.71-10.49,17.66-18.88,24.12c-6.47,4.99-15.89,8.44-21.44,14.33
		c-5.04,5.34-4.6,14.71-6.48,21.4c-2.82,10.07-7.72,20.86-16.51,26.49c2.09,0.81,4.18,1.62,6.27,2.44c0.82,2.09,1.63,4.18,2.44,6.27
		c5.63-8.8,16.43-13.7,26.49-16.52c6.7-1.88,16.06-1.44,21.4-6.48c5.89-5.55,9.34-14.98,14.33-21.45
		c6.46-8.39,14.41-15.3,24.12-18.88c1.76,10.2-0.25,20.54-4.29,30.33c-3.11,7.55-9.54,15.26-11.41,23.13
		c-1.69,7.15,3.37,15.04,5.09,21.77c2.59,10.13,3.75,21.92-1.06,31.2c2.22-0.35,4.43-0.69,6.65-1.03c1.75,1.4,3.5,2.81,5.24,4.21
		c0.48-10.44,7.38-20.07,14.69-27.55c4.86-4.97,13.19-9.27,15.3-16.31c2.32-7.75,0.6-17.64,1.68-25.73
		c1.4-10.5,4.83-20.46,11.45-28.41c6.63,7.95,10.05,17.91,11.45,28.41c1.08,8.1-0.64,17.98,1.68,25.73
		c2.11,7.04,10.43,11.34,15.3,16.31c7.31,7.47,14.21,17.11,14.69,27.55c1.75-1.41,3.49-2.81,5.24-4.21
		c2.22,0.34,4.43,0.68,6.65,1.03c-4.8-9.28-3.65-21.07-1.06-31.2c1.73-6.74,6.79-14.63,5.09-21.77c-1.87-7.87-8.3-15.58-11.41-23.13
		c-4.03-9.79-6.05-20.13-4.29-30.33c9.71,3.57,17.66,10.49,24.12,18.88c4.99,6.47,8.44,15.89,14.33,21.45
		c5.34,5.04,14.71,4.6,21.4,6.48c10.07,2.82,20.86,7.72,26.49,16.52c0.81-2.09,1.62-4.18,2.43-6.27c2.09-0.82,4.18-1.63,6.27-2.44
		C379.61,374.07,374.71,363.28,371.89,353.21z M330.01,332.82c-16.31-10.51-30.9-23.02-43.11-38.05c-2.4,2.18-4.85,4.32-7.35,6.42
		c-3.06,1.11-6.14,2.17-9.23,3.16c6.91,18.08,10.45,36.98,11.4,56.35c0.14,2.9,0.23,5.8,0.27,8.7c-1.41-2.53-2.79-5.09-4.11-7.67
		c-8.86-17.26-15.25-35.39-18.31-54.5c-3.17,0.69-6.36,1.32-9.57,1.88c-3.21-0.57-6.4-1.19-9.57-1.88
		c-3.05,19.12-9.44,37.25-18.31,54.5c-1.33,2.58-2.7,5.13-4.11,7.67c0.04-2.9,0.13-5.8,0.27-8.7c0.95-19.38,4.48-38.27,11.4-56.35
		c-3.09-0.99-6.17-2.04-9.23-3.16c-2.5-2.09-4.95-4.23-7.35-6.42c-12.2,15.03-26.8,27.53-43.11,38.05c-2.44,1.57-4.9,3.1-7.39,4.58
		c1.48-2.49,3.01-4.96,4.58-7.39c10.51-16.3,23.02-30.9,38.05-43.11c-2.18-2.4-4.32-4.85-6.42-7.35c-1.11-3.06-2.17-6.14-3.16-9.23
		c-18.08,6.91-36.98,10.44-56.35,11.4c-2.9,0.14-5.8,0.23-8.69,0.27c2.53-1.41,5.09-2.79,7.67-4.11
		c17.26-8.86,35.39-15.25,54.5-18.31c-0.69-3.17-1.32-6.36-1.88-9.57c0.57-3.21,1.19-6.4,1.88-9.57
		c-19.12-3.05-37.25-9.44-54.5-18.31c-2.58-1.33-5.13-2.7-7.67-4.11c2.9,0.04,5.8,0.13,8.69,0.27c19.38,0.95,38.27,4.48,56.35,11.4
		c0.99-3.09,2.04-6.17,3.16-9.23c2.09-2.5,4.23-4.95,6.42-7.35c-15.03-12.2-27.53-26.8-38.05-43.11c-1.57-2.44-3.1-4.9-4.58-7.39
		c2.49,1.48,4.96,3.01,7.39,4.58c16.3,10.51,30.9,23.02,43.11,38.05c2.4-2.18,4.85-4.32,7.35-6.42c3.06-1.11,6.14-2.17,9.23-3.15
		c-6.91-18.08-10.44-36.98-11.4-56.35c-0.14-2.9-0.23-5.8-0.27-8.69c1.41,2.53,2.79,5.09,4.11,7.67
		c8.86,17.26,15.25,35.39,18.31,54.5c3.17-0.69,6.36-1.32,9.57-1.88c3.21,0.57,6.4,1.19,9.57,1.88c3.05-19.12,9.44-37.25,18.31-54.5
		c1.33-2.58,2.7-5.13,4.11-7.67c-0.04,2.9-0.13,5.8-0.27,8.69c-0.95,19.38-4.48,38.27-11.4,56.35c3.09,0.99,6.17,2.04,9.23,3.15
		c2.5,2.09,4.95,4.23,7.35,6.42c12.2-15.03,26.8-27.53,43.11-38.05c2.44-1.57,4.9-3.1,7.39-4.58c-1.48,2.49-3.01,4.96-4.58,7.39
		c-10.51,16.31-23.02,30.9-38.05,43.11c2.18,2.4,4.32,4.85,6.42,7.35c1.11,3.06,2.17,6.14,3.15,9.23
		c18.08-6.91,36.98-10.44,56.35-11.4c2.9-0.14,5.8-0.23,8.69-0.27c-2.53,1.41-5.09,2.79-7.67,4.11
		c-17.26,8.86-35.39,15.25-54.5,18.31c0.69,3.17,1.32,6.36,1.88,9.57c-0.57,3.21-1.19,6.4-1.88,9.57
		c19.12,3.05,37.25,9.44,54.5,18.31c2.58,1.33,5.13,2.7,7.67,4.11c-2.9-0.04-5.8-0.13-8.69-0.27c-19.38-0.95-38.27-4.48-56.35-11.4
		c-0.99,3.09-2.04,6.17-3.15,9.23c-2.09,2.5-4.23,4.95-6.42,7.35c15.03,12.2,27.53,26.8,38.05,43.11c1.57,2.44,3.1,4.9,4.58,7.39
		C334.92,335.92,332.45,334.4,330.01,332.82z"/>
</g>
<g id="Layer_5">
	<path class="st0" d="M250,2.81C113.48,2.81,2.81,113.48,2.81,250S113.48,497.19,250,497.19S497.19,386.52,497.19,250
		S386.52,2.81,250,2.81z M394.45,394.45c-8.72,21.43-17.05,43.03-23.47,65.1c-22.33-5.48-45.19-9.06-68.11-12.23
		c-18.27,14.2-36.28,28.74-52.87,44.65c-16.6-15.91-34.6-30.45-52.87-44.65c-22.92,3.16-45.79,6.75-68.11,12.23
		c-6.42-22.08-14.74-43.67-23.47-65.1c-21.43-8.72-43.03-17.05-65.1-23.47c5.48-22.33,9.06-45.19,12.23-68.11
		C38.47,284.6,23.94,266.6,8.03,250c15.91-16.6,30.45-34.6,44.65-52.87c-3.16-22.92-6.75-45.79-12.23-68.11
		c22.08-6.42,43.67-14.74,65.1-23.47c8.72-21.43,17.05-43.03,23.47-65.1c22.33,5.48,45.19,9.06,68.11,12.23
		C215.4,38.47,233.4,23.94,250,8.03c16.6,15.91,34.6,30.45,52.87,44.65c22.92-3.16,45.79-6.75,68.11-12.23
		c6.42,22.08,14.74,43.67,23.47,65.1c21.43,8.72,43.03,17.05,65.1,23.47c-5.48,22.33-9.06,45.19-12.23,68.11
		c14.2,18.27,28.74,36.28,44.65,52.87c-15.91,16.6-30.45,34.6-44.65,52.87c3.16,22.92,6.75,45.79,12.23,68.11
		C437.48,377.4,415.88,385.73,394.45,394.45z"/>
</g>
<g id="Layer_6">
	<path class="st0" d="M288.54,227.75c-2.5-2.93-5.06-5.8-7.7-8.59c-2.79-2.63-5.66-5.2-8.59-7.7c-3.63-1.29-7.28-2.49-10.96-3.6
		c-3.74-0.88-7.5-1.67-11.29-2.37c-3.79,0.7-7.55,1.48-11.29,2.37c-3.68,1.1-7.33,2.3-10.96,3.6c-2.93,2.5-5.8,5.06-8.59,7.7
		c-2.63,2.79-5.2,5.66-7.7,8.59c-1.29,3.63-2.49,7.28-3.59,10.96c-0.88,3.74-1.67,7.5-2.37,11.29c0.7,3.79,1.48,7.55,2.37,11.29
		c1.1,3.68,2.3,7.33,3.59,10.96c2.5,2.93,5.06,5.8,7.7,8.59c2.79,2.63,5.66,5.2,8.59,7.7c3.63,1.29,7.28,2.49,10.96,3.59
		c3.74,0.88,7.5,1.67,11.29,2.37c3.79-0.7,7.56-1.48,11.29-2.37c3.68-1.1,7.33-2.3,10.96-3.59c2.93-2.5,5.8-5.06,8.59-7.7
		c2.63-2.79,5.2-5.66,7.7-8.59c1.29-3.63,2.49-7.28,3.6-10.96c0.88-3.74,1.67-7.5,2.37-11.29c-0.7-3.79-1.48-7.55-2.37-11.29
		C291.03,235.03,289.83,231.38,288.54,227.75z M278.22,257.56c-0.51,2.55-1.13,5.11-1.85,7.67c-1.85,1.9-3.76,3.71-5.72,5.43
		c-1.72,1.96-3.54,3.86-5.43,5.72c-2.55,0.72-5.11,1.34-7.67,1.85c-2.47,0.84-4.99,1.58-7.56,2.23c-2.57-0.66-5.1-1.4-7.56-2.23
		c-2.55-0.51-5.11-1.13-7.67-1.85c-1.9-1.85-3.71-3.76-5.43-5.72c-1.96-1.72-3.86-3.53-5.72-5.43c-0.72-2.55-1.34-5.11-1.85-7.67
		c-0.84-2.47-1.58-4.99-2.23-7.56c0.66-2.57,1.4-5.1,2.23-7.56c0.51-2.55,1.13-5.11,1.85-7.67c1.85-1.9,3.76-3.71,5.72-5.43
		c1.72-1.96,3.53-3.86,5.43-5.72c2.55-0.72,5.11-1.34,7.67-1.85c2.47-0.84,4.99-1.58,7.56-2.23c2.57,0.66,5.1,1.4,7.56,2.23
		c2.55,0.51,5.11,1.13,7.67,1.85c1.9,1.85,3.71,3.76,5.43,5.72c1.96,1.72,3.86,3.54,5.72,5.43c0.72,2.55,1.34,5.11,1.85,7.67
		c0.84,2.47,1.58,4.99,2.23,7.56C279.8,252.57,279.06,255.1,278.22,257.56z"/>
</g>
</svg>
