<?xml version="1.0" encoding="utf-8"?>
<!-- Generator: Adobe Illustrator 23.0.1, SVG Export Plug-In . SVG Version: 6.00 Build 0)  -->
<svg version="1.1" xmlns="http://www.w3.org/2000/svg" xmlns:xlink="http://www.w3.org/1999/xlink" x="0px" y="0px"
	 viewBox="0 0 600 600" style="enable-background:new 0 0 600 600;" xml:space="preserve">
<style type="text/css">
	.st0{fill:#FFFFFF;}
	.st1{fill:#FFFFFF;}
</style>
<g id="bg">
	<circle class="st0" cx="250.33" cy="250" r="247.19"/>
	<g>
		<path d="M279.65,232.88c-1.5-2.55-3.6-4.75-6.14-6.39c-1.64-2.54-3.84-4.65-6.39-6.14c-2.57-1.46-5.49-2.31-8.51-2.46
			c-2.69-1.38-5.65-2.1-8.6-2.12c-2.95,0.02-5.92,0.74-8.6,2.12c-3.02,0.15-5.94,1-8.51,2.46c-2.55,1.5-4.75,3.6-6.39,6.14
			c-2.54,1.64-4.65,3.84-6.14,6.39c-1.46,2.57-2.31,5.49-2.46,8.51c-1.38,2.69-2.1,5.65-2.12,8.6c0.02,2.95,0.74,5.92,2.12,8.6
			c0.15,3.02,1,5.94,2.46,8.51c1.5,2.55,3.6,4.75,6.14,6.39c1.64,2.54,3.84,4.64,6.39,6.14c2.57,1.46,5.49,2.31,8.51,2.46
			c2.69,1.38,5.65,2.1,8.6,2.12c2.95-0.02,5.92-0.74,8.6-2.12c3.02-0.15,5.94-1,8.51-2.46c2.55-1.5,4.75-3.6,6.39-6.14
			c2.54-1.64,4.65-3.84,6.14-6.39c1.46-2.57,2.31-5.49,2.46-8.51c1.38-2.69,2.1-5.65,2.12-8.6c-0.02-2.95-0.74-5.92-2.12-8.6
			C281.96,238.38,281.11,235.45,279.65,232.88z M271.38,255.18c-0.16,0.15-0.32,0.29-0.49,0.42c0.08,0.2,0.15,0.4,0.21,0.61
			c0.51,2.23,0.11,4.08-0.83,5.5c-0.76,1.52-2.16,2.79-4.35,3.47c-0.21,0.05-0.42,0.09-0.63,0.12c-0.03,0.21-0.07,0.42-0.12,0.63
			c-0.67,2.19-1.94,3.59-3.47,4.35c-1.42,0.94-3.27,1.34-5.5,0.83c-0.21-0.06-0.41-0.13-0.61-0.21c-0.13,0.16-0.27,0.33-0.42,0.49
			c-1.68,1.56-3.48,2.14-5.18,2.03c-1.7,0.11-3.5-0.47-5.18-2.03c-0.15-0.16-0.29-0.32-0.42-0.49c-0.2,0.08-0.4,0.15-0.61,0.21
			c-2.23,0.51-4.08,0.11-5.5-0.83c-1.52-0.76-2.79-2.16-3.47-4.35c-0.05-0.21-0.09-0.42-0.12-0.63c-0.21-0.03-0.42-0.07-0.63-0.12
			c-2.19-0.67-3.59-1.94-4.35-3.47c-0.94-1.42-1.34-3.27-0.83-5.5c0.06-0.21,0.13-0.41,0.21-0.61c-0.16-0.13-0.33-0.27-0.49-0.42
			c-1.56-1.68-2.14-3.48-2.03-5.18c-0.11-1.7,0.47-3.5,2.03-5.18c0.16-0.15,0.32-0.29,0.49-0.42c-0.08-0.2-0.15-0.4-0.21-0.61
			c-0.51-2.23-0.11-4.08,0.83-5.5c0.76-1.52,2.16-2.79,4.35-3.47c0.21-0.05,0.42-0.09,0.63-0.12c0.03-0.21,0.07-0.42,0.12-0.63
			c0.67-2.19,1.94-3.59,3.47-4.35c1.42-0.94,3.27-1.34,5.5-0.83c0.21,0.06,0.41,0.13,0.61,0.21c0.13-0.16,0.27-0.33,0.42-0.49
			c1.68-1.56,3.48-2.14,5.18-2.03c1.7-0.11,3.5,0.47,5.18,2.03c0.15,0.16,0.29,0.32,0.42,0.49c0.2-0.08,0.4-0.15,0.61-0.21
			c2.23-0.51,4.08-0.11,5.5,0.83c1.52,0.76,2.79,2.16,3.47,4.35c0.05,0.21,0.09,0.42,0.12,0.63c0.21,0.03,0.42,0.07,0.63,0.12
			c2.19,0.67,3.59,1.94,4.35,3.47c0.94,1.42,1.34,3.27,0.83,5.5c-0.06,0.21-0.13,0.41-0.21,0.61c0.16,0.13,0.33,0.27,0.49,0.42
			c1.56,1.68,2.14,3.48,2.03,5.18C273.52,251.7,272.94,253.5,271.38,255.18z"/>
		<path d="M257.7,245.56c-0.34-0.84-0.53-1.75-0.57-2.68c-0.93-0.04-1.84-0.23-2.68-0.57c-0.72-0.55-1.34-1.25-1.84-2.03
			c-0.83,0.43-1.71,0.72-2.61,0.84c-0.9-0.12-1.78-0.41-2.61-0.84c-0.5,0.78-1.12,1.48-1.84,2.03c-0.84,0.34-1.75,0.53-2.68,0.57
			c-0.04,0.93-0.23,1.84-0.57,2.68c-0.55,0.72-1.25,1.34-2.03,1.84c0.43,0.83,0.72,1.71,0.84,2.61c-0.12,0.9-0.41,1.78-0.84,2.61
			c0.78,0.5,1.48,1.12,2.03,1.84c0.34,0.84,0.53,1.75,0.57,2.68c0.93,0.04,1.84,0.23,2.68,0.57c0.72,0.55,1.34,1.25,1.84,2.03
			c0.83-0.43,1.71-0.72,2.61-0.84c0.9,0.12,1.78,0.41,2.61,0.84c0.5-0.78,1.12-1.48,1.84-2.03c0.84-0.34,1.75-0.53,2.68-0.57
			c0.04-0.93,0.23-1.84,0.57-2.68c0.55-0.72,1.25-1.34,2.03-1.84c-0.43-0.83-0.72-1.71-0.84-2.61c0.12-0.9,0.41-1.78,0.84-2.61
			C258.95,246.89,258.25,246.27,257.7,245.56z"/>
		<path d="M298.43,298.43c3.69-4.66,7.23-9.43,10.64-14.33c2.53-5.4,4.9-10.85,7.09-16.38c0.87-5.88,1.55-11.79,2.05-17.73
			c-0.5-5.94-1.18-11.85-2.05-17.73c-2.19-5.52-4.55-10.98-7.09-16.38c-3.41-4.89-6.95-9.67-10.64-14.33
			c-4.66-3.69-9.43-7.23-14.33-10.64c-5.4-2.53-10.86-4.9-16.38-7.09c-5.88-0.87-11.79-1.55-17.73-2.05
			c-5.94,0.5-11.85,1.18-17.73,2.05c-5.52,2.19-10.98,4.55-16.38,7.09c-4.89,3.41-9.67,6.95-14.33,10.64
			c-3.69,4.66-7.23,9.43-10.64,14.33c-2.53,5.4-4.9,10.85-7.09,16.38c-0.87,5.88-1.55,11.79-2.05,17.73
			c0.5,5.94,1.18,11.85,2.05,17.73c2.19,5.52,4.55,10.98,7.09,16.38c3.41,4.89,6.95,9.67,10.64,14.33
			c4.66,3.69,9.43,7.23,14.33,10.64c5.4,2.53,10.85,4.9,16.38,7.09c5.88,0.87,11.79,1.55,17.73,2.05c5.94-0.5,11.85-1.18,17.73-2.05
			c5.52-2.19,10.98-4.55,16.38-7.09C289,305.66,293.78,302.12,298.43,298.43z M273.05,289.92c-3.66,1.66-7.36,3.25-11.08,4.75
			c-3.97,0.56-7.97,1.04-11.97,1.43c-4-0.39-7.99-0.87-11.97-1.43c-3.72-1.5-7.42-3.08-11.08-4.75c-3.27-2.34-6.49-4.75-9.65-7.22
			c-2.47-3.16-4.88-6.38-7.22-9.65c-1.66-3.66-3.25-7.36-4.75-11.08c-0.56-3.97-1.04-7.96-1.43-11.97c0.39-4,0.87-7.99,1.43-11.97
			c1.5-3.72,3.08-7.42,4.75-11.08c2.34-3.27,4.75-6.49,7.22-9.65c3.16-2.47,6.38-4.88,9.65-7.22c3.66-1.66,7.36-3.25,11.08-4.75
			c3.97-0.56,7.97-1.04,11.97-1.43c4,0.39,7.99,0.87,11.97,1.43c3.72,1.5,7.42,3.08,11.08,4.75c3.27,2.34,6.49,4.75,9.65,7.22
			c2.47,3.16,4.88,6.38,7.22,9.65c1.66,3.66,3.25,7.36,4.75,11.08c0.56,3.97,1.04,7.96,1.43,11.97c-0.39,4-0.87,7.99-1.43,11.97
			c-1.5,3.72-3.08,7.42-4.75,11.08c-2.34,3.27-4.75,6.49-7.22,9.65C279.54,285.17,276.32,287.58,273.05,289.92z"/>
		<path d="M480.83,188.15c-17.77-15.02-37.09-27.97-58.18-37.83c2-23.19,0.45-46.41-3.67-69.3c-22.89-4.12-46.11-5.67-69.3-3.67
			c-9.86-21.09-22.81-40.41-37.83-58.18c-21.89,7.88-42.77,18.14-61.85,31.47c-19.08-13.33-39.96-23.6-61.85-31.47
			c-15.02,17.77-27.96,37.09-37.83,58.18c-23.19-2-46.4-0.45-69.3,3.67c-4.12,22.89-5.67,46.11-3.67,69.3
			c-21.09,9.86-40.41,22.81-58.18,37.83c7.88,21.89,18.14,42.77,31.47,61.85c-13.33,19.08-23.59,39.96-31.47,61.85
			c17.77,15.02,37.09,27.97,58.18,37.83c-2,23.19-0.45,46.4,3.67,69.3c22.9,4.12,46.11,5.67,69.3,3.67
			c9.86,21.09,22.81,40.41,37.83,58.18c21.89-7.88,42.77-18.14,61.85-31.47c19.08,13.33,39.96,23.6,61.85,31.47
			c15.02-17.77,27.97-37.09,37.83-58.18c23.19,2,46.4,0.45,69.3-3.67c4.12-22.89,5.67-46.11,3.67-69.3
			c21.09-9.86,40.41-22.81,58.18-37.83c-7.88-21.89-18.14-42.77-31.47-61.85C462.69,230.92,472.95,210.04,480.83,188.15z
			 M452.58,188.43c2.57,1.65,5.1,3.41,7.58,5.26c-1.23,2.84-2.54,5.63-3.94,8.34c-4.04-1.36-8.09-2.71-12.16-4.03
			C446.93,194.82,449.76,191.63,452.58,188.43z M442.89,182.9c-6.05,6.85-12.21,13.66-18.5,20.37c8.8,2.67,17.54,5.48,26.21,8.39
			c-8.31,12.59-19.19,22.25-33.76,25.43c-15.1-7.66-30.76-14.12-46.98-19.2c11.5-12.51,21.84-25.94,31.09-40.12
			C415.15,173.22,429.4,176.15,442.89,182.9z M394.65,95.39c3.05,0.14,6.12,0.41,9.2,0.76c0.36,3.08,0.62,6.15,0.76,9.19
			c-4.18,0.84-8.36,1.7-12.55,2.59C392.95,103.75,393.82,99.57,394.65,95.39z M344.6,111.97c10.04-11.04,23.84-15.63,38.9-16.52
			c-1.82,8.96-3.75,17.93-5.84,26.89c8.96-2.09,17.93-4.02,26.89-5.84c-0.9,15.06-5.49,28.87-16.52,38.9
			c-16.91,0.91-33.7,3.15-50.29,6.86C341.45,145.68,343.69,128.88,344.6,111.97z M306.31,39.84c1.85,2.49,3.61,5.02,5.26,7.58
			c-3.2,2.81-6.39,5.65-9.57,8.52c-1.32-4.07-2.67-8.12-4.03-12.16C300.68,42.38,303.47,41.07,306.31,39.84z M288.34,49.4
			c2.91,8.67,5.72,17.41,8.39,26.21c6.71-6.29,13.52-12.45,20.37-18.5c6.75,13.49,9.68,27.74,5.14,41.95
			c-14.19,9.24-27.61,19.58-40.12,31.09c-5.08-16.22-11.54-31.89-19.2-46.98C266.08,68.59,275.75,57.71,288.34,49.4z M193.69,39.84
			c2.84,1.23,5.63,2.54,8.34,3.94c-1.36,4.04-2.71,8.09-4.03,12.16c-3.18-2.86-6.37-5.7-9.57-8.52
			C190.08,44.86,191.84,42.33,193.69,39.84z M182.9,57.11c6.85,6.05,13.66,12.21,20.37,18.5c2.67-8.8,5.48-17.54,8.39-26.21
			c12.59,8.31,22.25,19.19,25.43,33.76c-7.66,15.1-14.12,30.76-19.2,46.98c-12.51-11.5-25.94-21.85-40.12-31.09
			C173.22,84.85,176.15,70.6,182.9,57.11z M155.4,111.97c0.91,16.91,3.15,33.7,6.86,50.29c-16.59-3.71-33.38-5.95-50.29-6.86
			c-11.04-10.04-15.63-23.84-16.53-38.9c8.96,1.82,17.94,3.75,26.89,5.84c-2.09-8.96-4.02-17.93-5.84-26.89
			C131.56,96.35,145.37,100.94,155.4,111.97z M96.15,96.15c3.08-0.36,6.15-0.62,9.19-0.76c0.84,4.18,1.7,8.36,2.59,12.55
			c-4.19-0.89-8.37-1.75-12.55-2.59C95.53,102.3,95.8,99.23,96.15,96.15z M39.84,193.69c2.49-1.85,5.02-3.61,7.58-5.26
			c2.81,3.2,5.65,6.39,8.52,9.57c-4.07,1.32-8.12,2.67-12.16,4.03C42.38,199.32,41.07,196.53,39.84,193.69z M49.4,211.66
			c8.67-2.91,17.41-5.72,26.21-8.39c-6.29-6.71-12.45-13.52-18.5-20.37c13.49-6.75,27.74-9.68,41.95-5.14
			c9.24,14.19,19.58,27.61,31.09,40.12c-16.22,5.08-31.89,11.54-46.98,19.2C68.59,233.92,57.71,224.25,49.4,211.66z M47.42,311.57
			c-2.57-1.65-5.1-3.41-7.58-5.26c1.23-2.84,2.54-5.63,3.94-8.34c4.04,1.36,8.09,2.71,12.16,4.03
			C53.07,305.18,50.24,308.37,47.42,311.57z M57.11,317.1c6.05-6.85,12.21-13.66,18.5-20.37c-8.8-2.67-17.54-5.48-26.21-8.39
			c8.31-12.59,19.19-22.25,33.76-25.43c15.1,7.66,30.76,14.12,46.98,19.2c-11.5,12.51-21.84,25.94-31.09,40.12
			C84.85,326.78,70.6,323.85,57.11,317.1z M105.35,404.61c-3.05-0.14-6.12-0.41-9.19-0.76c-0.36-3.08-0.62-6.15-0.76-9.19
			c4.18-0.84,8.36-1.7,12.55-2.59C107.05,396.25,106.19,400.43,105.35,404.61z M155.4,388.03c-10.04,11.04-23.84,15.63-38.9,16.53
			c1.82-8.96,3.75-17.94,5.84-26.89c-8.96,2.09-17.93,4.02-26.89,5.84c0.9-15.06,5.49-28.87,16.53-38.9
			c16.91-0.91,33.7-3.15,50.29-6.86C158.55,354.32,156.31,371.12,155.4,388.03z M193.69,460.16c-1.85-2.49-3.61-5.02-5.26-7.58
			c3.2-2.81,6.39-5.65,9.57-8.52c1.32,4.07,2.67,8.12,4.03,12.16C199.32,457.62,196.53,458.93,193.69,460.16z M211.66,450.6
			c-2.91-8.67-5.72-17.41-8.39-26.21c-6.71,6.29-13.52,12.45-20.37,18.5c-6.75-13.49-9.68-27.74-5.14-41.95
			c14.19-9.24,27.61-19.58,40.12-31.09c5.08,16.22,11.54,31.89,19.2,46.98C233.92,431.41,224.25,442.29,211.66,450.6z
			 M229.19,327.66c-15.22,18.41-32.61,34.27-51.64,47.83c2.23-23.26,7.26-46.26,15.6-68.64c-22.38,8.34-45.37,13.37-68.64,15.6
			c13.56-19.03,29.42-36.43,47.83-51.64c-23.55-3.97-45.98-11.11-67.24-20.81c21.26-9.7,43.69-16.84,67.24-20.81
			c-18.41-15.21-34.27-32.61-47.83-51.64c23.26,2.23,46.26,7.26,68.64,15.6c-8.34-22.38-13.37-45.37-15.6-68.64
			c19.03,13.56,36.43,29.42,51.64,47.83c3.97-23.55,11.11-45.98,20.81-67.24c9.7,21.26,16.84,43.69,20.81,67.24
			c15.21-18.41,32.61-34.26,51.64-47.83c-2.23,23.26-7.26,46.26-15.6,68.64c22.38-8.34,45.37-13.37,68.64-15.6
			c-13.56,19.03-29.42,36.43-47.83,51.64c23.55,3.97,45.98,11.11,67.24,20.81c-21.26,9.7-43.69,16.84-67.24,20.81
			c18.41,15.21,34.26,32.61,47.83,51.64c-23.26-2.23-46.26-7.26-68.64-15.6c8.34,22.38,13.37,45.37,15.6,68.64
			c-19.03-13.56-36.43-29.42-51.64-47.83c-3.97,23.55-11.11,45.98-20.81,67.24C240.3,373.64,233.16,351.21,229.19,327.66z
			 M306.31,460.16c-2.84-1.23-5.63-2.54-8.34-3.94c1.36-4.04,2.71-8.09,4.03-12.16c3.18,2.86,6.37,5.7,9.57,8.52
			C309.92,455.14,308.16,457.67,306.31,460.16z M317.1,442.89c-6.85-6.05-13.66-12.21-20.37-18.5c-2.67,8.8-5.48,17.54-8.39,26.21
			c-12.59-8.31-22.25-19.19-25.43-33.76c7.66-15.1,14.12-30.76,19.2-46.98c12.51,11.5,25.94,21.84,40.12,31.09
			C326.78,415.15,323.85,429.4,317.1,442.89z M344.6,388.03c-0.91-16.91-3.15-33.7-6.86-50.29c16.59,3.71,33.38,5.95,50.29,6.86
			c11.04,10.04,15.63,23.84,16.52,38.9c-8.96-1.82-17.93-3.75-26.89-5.84c2.09,8.96,4.02,17.93,5.84,26.89
			C368.44,403.65,354.63,399.06,344.6,388.03z M403.85,403.85c-3.08,0.36-6.15,0.62-9.2,0.76c-0.84-4.18-1.7-8.36-2.59-12.55
			c4.19,0.89,8.37,1.75,12.55,2.59C404.47,397.7,404.21,400.77,403.85,403.85z M460.16,306.31c-2.49,1.85-5.02,3.61-7.58,5.26
			c-2.81-3.2-5.65-6.39-8.52-9.57c4.07-1.32,8.12-2.67,12.16-4.03C457.62,300.68,458.93,303.47,460.16,306.31z M450.6,288.34
			c-8.67,2.91-17.41,5.72-26.21,8.39c6.29,6.71,12.45,13.52,18.5,20.37c-13.49,6.75-27.74,9.68-41.95,5.14
			c-9.24-14.19-19.58-27.61-31.09-40.12c16.22-5.08,31.89-11.54,46.98-19.2C431.41,266.08,442.29,275.75,450.6,288.34z"/>
	</g>
</g>
<g id="color6">
	<path class="st1" d="M271.38,244.82c-0.16-0.15-0.32-0.29-0.49-0.42c0.08-0.2,0.15-0.4,0.21-0.61c0.51-2.23,0.11-4.08-0.83-5.5
		c-0.76-1.52-2.16-2.79-4.35-3.47c-0.21-0.05-0.42-0.09-0.63-0.12c-0.03-0.21-0.07-0.42-0.12-0.63c-0.67-2.19-1.94-3.59-3.47-4.35
		c-1.42-0.94-3.27-1.34-5.5-0.83c-0.21,0.06-0.41,0.13-0.61,0.21c-0.13-0.16-0.27-0.33-0.42-0.49c-1.68-1.56-3.48-2.14-5.18-2.03
		c-1.7-0.11-3.5,0.47-5.18,2.03c-0.15,0.16-0.29,0.32-0.42,0.49c-0.2-0.08-0.4-0.15-0.61-0.21c-2.23-0.51-4.08-0.11-5.5,0.83
		c-1.52,0.76-2.79,2.16-3.47,4.35c-0.05,0.21-0.09,0.42-0.12,0.63c-0.21,0.03-0.42,0.07-0.63,0.12c-2.19,0.67-3.59,1.94-4.35,3.47
		c-0.94,1.42-1.34,3.27-0.83,5.5c0.06,0.21,0.13,0.41,0.21,0.61c-0.16,0.13-0.33,0.27-0.49,0.42c-1.56,1.68-2.14,3.48-2.03,5.18
		c-0.11,1.7,0.47,3.5,2.03,5.18c0.16,0.15,0.32,0.29,0.49,0.42c-0.08,0.2-0.15,0.4-0.21,0.61c-0.51,2.23-0.11,4.08,0.83,5.5
		c0.76,1.52,2.16,2.79,4.35,3.47c0.21,0.05,0.42,0.09,0.63,0.12c0.03,0.21,0.07,0.42,0.12,0.63c0.67,2.19,1.94,3.59,3.47,4.35
		c1.42,0.94,3.27,1.34,5.5,0.83c0.21-0.06,0.41-0.13,0.61-0.21c0.13,0.16,0.27,0.33,0.42,0.49c1.68,1.56,3.48,2.14,5.18,2.03
		c1.7,0.11,3.5-0.47,5.18-2.03c0.15-0.16,0.29-0.32,0.42-0.49c0.2,0.08,0.4,0.15,0.61,0.21c2.23,0.51,4.08,0.11,5.5-0.83
		c1.52-0.76,2.79-2.16,3.47-4.35c0.05-0.21,0.09-0.42,0.12-0.63c0.21-0.03,0.42-0.07,0.63-0.12c2.19-0.67,3.59-1.94,4.35-3.47
		c0.94-1.42,1.34-3.27,0.83-5.5c-0.06-0.21-0.13-0.41-0.21-0.61c0.16-0.13,0.33-0.27,0.49-0.42c1.56-1.68,2.14-3.48,2.03-5.18
		C273.52,248.3,272.94,246.5,271.38,244.82z M259.73,252.61c-0.78,0.5-1.48,1.12-2.03,1.84c-0.34,0.84-0.53,1.75-0.57,2.68
		c-0.93,0.04-1.84,0.23-2.68,0.57c-0.72,0.55-1.34,1.25-1.84,2.03c-0.83-0.43-1.71-0.72-2.61-0.84c-0.9,0.12-1.78,0.41-2.61,0.84
		c-0.5-0.78-1.12-1.48-1.84-2.03c-0.84-0.34-1.75-0.53-2.68-0.57c-0.04-0.93-0.23-1.84-0.57-2.68c-0.55-0.72-1.25-1.34-2.03-1.84
		c0.43-0.83,0.72-1.71,0.84-2.61c-0.12-0.9-0.41-1.78-0.84-2.61c0.78-0.5,1.48-1.12,2.03-1.84c0.34-0.84,0.53-1.75,0.57-2.68
		c0.93-0.04,1.84-0.23,2.68-0.57c0.72-0.55,1.34-1.25,1.84-2.03c0.83,0.43,1.71,0.72,2.61,0.84c0.9-0.12,1.78-0.41,2.61-0.84
		c0.5,0.78,1.12,1.48,1.84,2.03c0.84,0.34,1.75,0.53,2.68,0.57c0.04,0.93,0.23,1.84,0.57,2.68c0.55,0.72,1.25,1.34,2.03,1.84
		c-0.43,0.83-0.72,1.71-0.84,2.61C259.01,250.9,259.3,251.78,259.73,252.61z"/>
</g>
<g id="color5">
	<path class="st1" d="M294.67,261.97c0.56-3.97,1.04-7.96,1.43-11.97c-0.39-4-0.87-7.99-1.43-11.97c-1.5-3.72-3.08-7.42-4.75-11.08
		c-2.34-3.27-4.75-6.49-7.22-9.65c-3.16-2.47-6.38-4.88-9.65-7.22c-3.66-1.66-7.36-3.25-11.08-4.75c-3.97-0.56-7.97-1.04-11.97-1.43
		c-4,0.39-7.99,0.87-11.97,1.43c-3.72,1.5-7.42,3.08-11.08,4.75c-3.27,2.34-6.49,4.75-9.65,7.22c-2.47,3.16-4.88,6.38-7.22,9.65
		c-1.66,3.66-3.25,7.36-4.75,11.08c-0.56,3.97-1.04,7.96-1.43,11.97c0.39,4,0.87,7.99,1.43,11.97c1.5,3.72,3.08,7.42,4.75,11.08
		c2.34,3.27,4.75,6.49,7.22,9.65c3.16,2.47,6.38,4.88,9.65,7.22c3.66,1.66,7.36,3.25,11.08,4.75c3.97,0.56,7.97,1.04,11.97,1.43
		c4-0.39,7.99-0.87,11.97-1.43c3.72-1.5,7.42-3.08,11.08-4.75c3.27-2.34,6.49-4.75,9.65-7.22c2.47-3.16,4.88-6.38,7.22-9.65
		C291.58,269.39,293.17,265.69,294.67,261.97z M282.11,258.6c-0.15,3.02-1,5.94-2.46,8.51c-1.5,2.55-3.6,4.75-6.14,6.39
		c-1.64,2.54-3.84,4.64-6.39,6.14c-2.57,1.46-5.49,2.31-8.51,2.46c-2.69,1.38-5.65,2.1-8.6,2.12c-2.95-0.02-5.92-0.74-8.6-2.12
		c-3.02-0.15-5.94-1-8.51-2.46c-2.55-1.5-4.75-3.6-6.39-6.14c-2.54-1.64-4.65-3.84-6.14-6.39c-1.46-2.57-2.31-5.49-2.46-8.51
		c-1.38-2.69-2.1-5.65-2.12-8.6c0.02-2.95,0.74-5.92,2.12-8.6c0.15-3.02,1-5.94,2.46-8.51c1.5-2.55,3.6-4.75,6.14-6.39
		c1.64-2.54,3.84-4.65,6.39-6.14c2.57-1.46,5.49-2.31,8.51-2.46c2.69-1.38,5.65-2.1,8.6-2.12c2.95,0.02,5.92,0.74,8.6,2.12
		c3.02,0.15,5.94,1,8.51,2.46c2.55,1.5,4.75,3.6,6.39,6.14c2.54,1.64,4.65,3.84,6.14,6.39c1.46,2.57,2.31,5.49,2.46,8.51
		c1.38,2.69,2.1,5.65,2.12,8.6C284.21,252.95,283.49,255.92,282.11,258.6z"/>
</g>
<g id="color4">
	<path class="st1" d="M95.45,116.5c0.9,15.06,5.49,28.87,16.53,38.9c16.91,0.91,33.7,3.15,50.29,6.86
		c-3.71-16.59-5.95-33.38-6.86-50.29c-10.04-11.04-23.84-15.63-38.9-16.52c1.82,8.96,3.75,17.93,5.84,26.89
		C113.38,120.25,104.41,118.32,95.45,116.5z"/>
	<path class="st1" d="M217.89,130.15c5.08-16.22,11.54-31.89,19.2-46.98c-3.17-14.58-12.83-25.45-25.43-33.76
		c-2.91,8.67-5.72,17.41-8.39,26.21c-6.71-6.29-13.52-12.45-20.37-18.5c-6.75,13.49-9.68,27.74-5.14,41.95
		C191.95,108.3,205.38,118.64,217.89,130.15z"/>
	<path class="st1" d="M130.15,282.11c-16.22-5.08-31.89-11.54-46.98-19.2c-14.58,3.17-25.45,12.83-33.76,25.43
		c8.67,2.91,17.41,5.72,26.21,8.39c-6.29,6.71-12.45,13.52-18.5,20.37c13.49,6.75,27.74,9.68,41.95,5.14
		C108.3,308.05,118.64,294.62,130.15,282.11z"/>
	<path class="st1" d="M83.17,237.09c15.1-7.66,30.76-14.12,46.98-19.2c-11.5-12.51-21.84-25.94-31.09-40.12
		c-14.21-4.54-28.46-1.61-41.95,5.14c6.05,6.85,12.21,13.66,18.5,20.37c-8.8,2.67-17.54,5.48-26.21,8.39
		C57.71,224.25,68.59,233.92,83.17,237.09z"/>
	<path class="st1" d="M404.55,116.5c-8.96,1.82-17.93,3.75-26.89,5.84c2.09-8.96,4.02-17.93,5.84-26.89
		c-15.06,0.9-28.87,5.49-38.9,16.52c-0.91,16.91-3.15,33.7-6.86,50.29c16.59-3.71,33.38-5.95,50.29-6.86
		C399.06,145.37,403.65,131.56,404.55,116.5z"/>
	<path class="st1" d="M369.85,217.89c16.22,5.08,31.89,11.54,46.98,19.2c14.58-3.17,25.45-12.83,33.76-25.43
		c-8.67-2.91-17.41-5.72-26.21-8.39c6.29-6.71,12.45-13.52,18.5-20.37c-13.49-6.75-27.74-9.68-41.95-5.14
		C391.7,191.95,381.36,205.38,369.85,217.89z"/>
	<path class="st1" d="M322.24,99.06c4.54-14.21,1.61-28.46-5.14-41.95c-6.85,6.05-13.66,12.21-20.37,18.5
		c-2.67-8.8-5.48-17.54-8.39-26.21c-12.59,8.31-22.25,19.19-25.43,33.76c7.66,15.1,14.12,30.76,19.2,46.98
		C294.62,118.64,308.05,108.3,322.24,99.06z"/>
	<path class="st1" d="M95.45,383.5c8.96-1.82,17.94-3.75,26.89-5.84c-2.09,8.96-4.02,17.93-5.84,26.89
		c15.06-0.9,28.87-5.49,38.9-16.53c0.91-16.91,3.15-33.7,6.86-50.29c-16.59,3.71-33.38,5.95-50.29,6.86
		C100.94,354.63,96.35,368.44,95.45,383.5z"/>
	<path class="st1" d="M404.55,383.5c-0.9-15.06-5.49-28.87-16.52-38.9c-16.91-0.91-33.7-3.15-50.29-6.86
		c3.71,16.59,5.95,33.38,6.86,50.29c10.04,11.04,23.84,15.63,38.9,16.53c-1.82-8.96-3.75-17.94-5.84-26.89
		C386.62,379.75,395.59,381.68,404.55,383.5z"/>
	<path class="st1" d="M282.11,369.85c-5.08,16.22-11.54,31.89-19.2,46.98c3.17,14.58,12.83,25.45,25.43,33.76
		c2.91-8.67,5.72-17.41,8.39-26.21c6.71,6.29,13.52,12.45,20.37,18.5c6.75-13.49,9.68-27.74,5.14-41.95
		C308.05,391.7,294.62,381.36,282.11,369.85z"/>
	<path class="st1" d="M416.83,262.91c-15.1,7.66-30.76,14.12-46.98,19.2c11.5,12.51,21.84,25.94,31.09,40.12
		c14.21,4.54,28.46,1.61,41.95-5.14c-6.05-6.85-12.21-13.66-18.5-20.37c8.8-2.67,17.54-5.48,26.21-8.39
		C442.29,275.75,431.41,266.08,416.83,262.91z"/>
	<path class="st1" d="M177.76,400.94c-4.54,14.21-1.61,28.46,5.14,41.95c6.85-6.05,13.66-12.21,20.37-18.5
		c2.67,8.8,5.48,17.54,8.39,26.21c12.59-8.31,22.25-19.19,25.43-33.76c-7.66-15.1-14.12-30.76-19.2-46.98
		C205.38,381.36,191.95,391.7,177.76,400.94z"/>
</g>
<g id="color3">
	<path class="st1" d="M322.45,375.49c-2.23-23.26-7.26-46.26-15.6-68.64c22.38,8.34,45.37,13.37,68.64,15.6
		c-13.56-19.03-29.42-36.43-47.83-51.64c23.55-3.97,45.98-11.11,67.24-20.81c-21.26-9.7-43.69-16.84-67.24-20.81
		c18.41-15.21,34.26-32.61,47.83-51.64c-23.26,2.23-46.26,7.26-68.64,15.6c8.34-22.38,13.37-45.37,15.6-68.64
		c-19.03,13.56-36.43,29.42-51.64,47.83c-3.97-23.55-11.11-45.98-20.81-67.24c-9.7,21.26-16.84,43.69-20.81,67.24
		c-15.22-18.41-32.61-34.26-51.64-47.83c2.23,23.26,7.26,46.26,15.6,68.64c-22.38-8.34-45.37-13.37-68.64-15.6
		c13.56,19.03,29.42,36.43,47.83,51.64c-23.55,3.97-45.98,11.11-67.24,20.81c21.26,9.7,43.69,16.84,67.24,20.81
		c-18.41,15.21-34.27,32.61-47.83,51.64c23.26-2.23,46.26-7.26,68.64-15.6c-8.34,22.38-13.37,45.37-15.6,68.64
		c19.03-13.56,36.43-29.42,51.64-47.83c3.97,23.55,11.11,45.98,20.81,67.24c9.7-21.26,16.84-43.69,20.81-67.24
		C286.02,346.07,303.42,361.93,322.45,375.49z M250,318.21c-5.94-0.5-11.85-1.18-17.73-2.05c-5.52-2.19-10.98-4.55-16.38-7.09
		c-4.89-3.41-9.67-6.95-14.33-10.64c-3.69-4.66-7.23-9.43-10.64-14.33c-2.53-5.4-4.9-10.85-7.09-16.38
		c-0.87-5.88-1.55-11.79-2.05-17.73c0.5-5.94,1.18-11.85,2.05-17.73c2.19-5.52,4.55-10.98,7.09-16.38
		c3.41-4.89,6.95-9.67,10.64-14.33c4.66-3.69,9.43-7.23,14.33-10.64c5.4-2.53,10.85-4.9,16.38-7.09c5.88-0.87,11.79-1.55,17.73-2.05
		c5.94,0.5,11.85,1.18,17.73,2.05c5.52,2.19,10.98,4.55,16.38,7.09c4.89,3.41,9.67,6.95,14.33,10.64
		c3.69,4.66,7.23,9.43,10.64,14.33c2.53,5.4,4.9,10.85,7.09,16.38c0.87,5.88,1.55,11.79,2.05,17.73c-0.5,5.94-1.18,11.85-2.05,17.73
		c-2.19,5.52-4.55,10.98-7.09,16.38c-3.41,4.89-6.95,9.67-10.64,14.33c-4.66,3.69-9.43,7.23-14.33,10.64
		c-5.4,2.53-10.86,4.9-16.38,7.09C261.85,317.02,255.94,317.7,250,318.21z"/>
</g>
<g id="color2">
	<path class="st1" d="M188.43,452.58c1.65,2.57,3.41,5.1,5.26,7.58c2.84-1.23,5.63-2.54,8.34-3.94c-1.36-4.04-2.71-8.09-4.03-12.16
		C194.82,446.93,191.63,449.76,188.43,452.58z"/>
	<path class="st1" d="M452.58,311.57c2.57-1.65,5.1-3.41,7.58-5.26c-1.23-2.84-2.54-5.63-3.94-8.34c-4.04,1.36-8.09,2.71-12.16,4.03
		C446.93,305.18,449.76,308.37,452.58,311.57z"/>
	<path class="st1" d="M297.97,456.22c2.71,1.4,5.5,2.71,8.34,3.94c1.85-2.49,3.61-5.02,5.26-7.58c-3.2-2.81-6.39-5.65-9.57-8.52
		C300.68,448.13,299.33,452.19,297.97,456.22z"/>
	<path class="st1" d="M105.35,95.39c-3.05,0.14-6.12,0.41-9.19,0.76c-0.36,3.08-0.62,6.15-0.76,9.19c4.18,0.84,8.36,1.7,12.55,2.59
		C107.05,103.75,106.19,99.57,105.35,95.39z"/>
	<path class="st1" d="M47.42,188.43c-2.57,1.65-5.1,3.41-7.58,5.26c1.23,2.84,2.54,5.63,3.94,8.34c4.04-1.36,8.09-2.71,12.16-4.03
		C53.07,194.82,50.24,191.63,47.42,188.43z"/>
	<path class="st1" d="M96.15,403.85c3.08,0.36,6.15,0.62,9.19,0.76c0.84-4.18,1.7-8.36,2.59-12.55c-4.19,0.89-8.37,1.75-12.55,2.59
		C95.53,397.7,95.8,400.77,96.15,403.85z"/>
	<path class="st1" d="M39.84,306.31c2.49,1.85,5.02,3.61,7.58,5.26c2.81-3.2,5.65-6.39,8.52-9.57c-4.07-1.32-8.12-2.67-12.16-4.03
		C42.38,300.68,41.07,303.47,39.84,306.31z"/>
	<path class="st1" d="M403.85,96.15c-3.08-0.36-6.15-0.62-9.2-0.76c-0.84,4.18-1.7,8.36-2.59,12.55c4.19-0.89,8.37-1.75,12.55-2.59
		C404.47,102.3,404.21,99.23,403.85,96.15z"/>
	<path class="st1" d="M460.16,193.69c-2.49-1.85-5.02-3.61-7.58-5.26c-2.81,3.2-5.65,6.39-8.52,9.57c4.07,1.32,8.12,2.67,12.16,4.03
		C457.62,199.32,458.93,196.53,460.16,193.69z"/>
	<path class="st1" d="M202.03,43.78c-2.71-1.4-5.5-2.71-8.34-3.94c-1.85,2.49-3.61,5.02-5.26,7.58c3.2,2.81,6.39,5.65,9.57,8.52
		C199.32,51.87,200.67,47.81,202.03,43.78z"/>
	<path class="st1" d="M311.57,47.42c-1.65-2.57-3.41-5.1-5.26-7.58c-2.84,1.23-5.63,2.54-8.34,3.94c1.36,4.04,2.71,8.09,4.03,12.16
		C305.18,53.07,308.37,50.24,311.57,47.42z"/>
	<path class="st1" d="M394.65,404.61c3.05-0.14,6.12-0.41,9.2-0.76c0.36-3.08,0.62-6.15,0.76-9.19c-4.18-0.84-8.36-1.7-12.55-2.59
		C392.95,396.25,393.82,400.43,394.65,404.61z"/>
</g>
<g id="color1">
	<path class="st1" d="M250,2.81C113.48,2.81,2.81,113.48,2.81,250S113.48,497.19,250,497.19S497.19,386.52,497.19,250
		S386.52,2.81,250,2.81z M422.65,349.68c2,23.19,0.45,46.4-3.67,69.3c-22.89,4.12-46.11,5.67-69.3,3.67
		c-9.86,21.09-22.81,40.41-37.83,58.18c-21.89-7.88-42.77-18.14-61.85-31.47c-19.08,13.33-39.96,23.6-61.85,31.47
		c-15.02-17.77-27.96-37.09-37.83-58.18c-23.19,2-46.4,0.45-69.3-3.67c-4.12-22.89-5.67-46.11-3.67-69.3
		c-21.09-9.86-40.41-22.81-58.18-37.83c7.88-21.89,18.14-42.77,31.47-61.85c-13.33-19.08-23.59-39.96-31.47-61.85
		c17.77-15.02,37.09-27.97,58.18-37.83c-2-23.19-0.45-46.41,3.67-69.3c22.9-4.12,46.11-5.67,69.3-3.67
		c9.86-21.09,22.81-40.41,37.83-58.18c21.89,7.88,42.77,18.14,61.85,31.47c19.08-13.33,39.96-23.6,61.85-31.47
		c15.02,17.77,27.97,37.09,37.83,58.18c23.19-2,46.4-0.45,69.3,3.67c4.12,22.89,5.67,46.11,3.67,69.3
		c21.09,9.86,40.41,22.81,58.18,37.83c-7.88,21.89-18.14,42.77-31.47,61.85c13.33,19.08,23.59,39.96,31.47,61.85
		C463.06,326.87,443.73,339.82,422.65,349.68z"/>
	<g>
	</g>
	<g>
	</g>
	<g>
	</g>
	<g>
	</g>
	<g>
	</g>
</g>
</svg>
