<?xml version="1.0" encoding="utf-8"?>
<!-- Generator: Adobe Illustrator 23.0.1, SVG Export Plug-In . SVG Version: 6.00 Build 0)  -->
<svg version="1.0" xmlns="http://www.w3.org/2000/svg" xmlns:xlink="http://www.w3.org/1999/xlink" x="0px" y="0px"
	 viewBox="0 0 600 600" style="enable-background:new 0 0 600 600;" xml:space="preserve">
<style type="text/css">
	.st0{fill:#FFFFFF;}
</style>
<g id="Layer_2">
	<path d="M491.05,250c-17.42-17.64-35.98-34.13-55.18-49.8c8.8-23.17,16.62-46.74,22.89-70.72c-23.91-6.56-48.22-11.57-72.69-15.54
		c-3.97-24.47-8.98-48.78-15.54-72.69c-23.98,6.27-47.55,14.09-70.72,22.89C284.13,44.92,267.64,26.37,250,8.95
		c-17.64,17.42-34.13,35.98-49.8,55.18c-23.17-8.8-46.74-16.62-70.72-22.89c-6.56,23.91-11.57,48.22-15.54,72.69
		c-24.47,3.97-48.78,8.98-72.69,15.54c6.27,23.98,14.09,47.55,22.89,70.72C44.92,215.87,26.37,232.36,8.95,250
		c17.42,17.64,35.98,34.13,55.18,49.8c-8.8,23.17-16.62,46.74-22.89,70.72c23.91,6.56,48.22,11.57,72.69,15.54
		c3.97,24.47,8.98,48.78,15.54,72.69c23.99-6.27,47.55-14.09,70.72-22.89c15.67,19.21,32.17,37.76,49.8,55.18
		c17.64-17.42,34.13-35.98,49.8-55.18c23.17,8.8,46.74,16.62,70.72,22.89c6.56-23.91,11.57-48.22,15.54-72.69
		c24.47-3.97,48.78-8.98,72.69-15.54c-6.27-23.98-14.09-47.55-22.89-70.72C455.08,284.13,473.63,267.64,491.05,250z M439.2,359.23
		c-21.85,5.65-43.98,10.06-66.24,13.72c-3.67,22.26-8.07,44.39-13.72,66.24c-21.75-6.03-43.12-13.28-64.23-21.24
		c-14.3,17.45-29.19,34.41-45,50.51c-15.82-16.1-30.7-33.06-45-50.51c-21.11,7.96-42.48,15.21-64.23,21.24
		c-5.65-21.85-10.06-43.98-13.72-66.24c-22.26-3.66-44.39-8.07-66.24-13.72c6.03-21.75,13.28-43.12,21.24-64.23
		c-17.45-14.3-34.41-29.19-50.51-45c16.1-15.82,33.06-30.7,50.51-45c-7.96-21.11-15.21-42.48-21.24-64.23
		c21.85-5.65,43.98-10.06,66.24-13.72c3.66-22.26,8.07-44.39,13.72-66.24c21.75,6.03,43.12,13.28,64.23,21.24
		c14.3-17.45,29.19-34.41,45-50.51c15.82,16.1,30.7,33.06,45,50.51c21.11-7.96,42.48-15.21,64.23-21.24
		c5.65,21.85,10.06,43.98,13.72,66.24c22.26,3.66,44.39,8.07,66.24,13.72c-6.03,21.75-13.28,43.12-21.24,64.23
		c17.45,14.3,34.41,29.19,50.51,45c-16.1,15.82-33.06,30.7-50.51,45C425.92,316.11,433.17,337.49,439.2,359.23z"/>
	<path d="M330.2,228.51c-4.48-8.66-12.01-12.84-20.75-12.84c4.37-7.56,4.52-16.18-0.74-24.39c-8.21-5.26-16.83-5.12-24.39-0.74
		c0.01-8.73-4.18-16.27-12.84-20.75c-9.74-0.45-17.13,3.98-21.49,11.55c-4.36-7.57-11.75-12-21.49-11.55
		c-8.66,4.48-12.84,12.01-12.84,20.75c-7.56-4.37-16.18-4.52-24.39,0.74c-5.26,8.21-5.12,16.83-0.74,24.39
		c-8.73-0.01-16.27,4.18-20.75,12.84c-0.45,9.74,3.98,17.13,11.55,21.49c-7.57,4.36-12,11.75-11.55,21.49
		c4.48,8.66,12.01,12.84,20.75,12.84c-4.37,7.56-4.52,16.18,0.74,24.39c8.21,5.26,16.83,5.12,24.39,0.74
		c-0.01,8.73,4.18,16.27,12.84,20.75c9.74,0.45,17.13-3.98,21.49-11.55c4.36,7.57,11.75,12,21.49,11.55
		c8.66-4.48,12.84-12.01,12.84-20.75c7.56,4.37,16.18,4.52,24.39-0.74c5.26-8.21,5.12-16.83,0.74-24.39
		c8.73,0.01,16.27-4.18,20.75-12.84c0.45-9.74-3.98-17.13-11.55-21.49C326.22,245.64,330.66,238.25,330.2,228.51z M291.35,193.91
		c5.03-1.4,9.17-0.38,12.82,1.92c2.29,3.65,3.31,7.79,1.92,12.82c-2.04,7.34-7.94,11.16-14.16,14.73c-6.28,3.6-12.39,6.83-19.84,4.9
		c-0.1-0.02-0.19-0.05-0.29-0.08c-0.03-0.1-0.05-0.19-0.08-0.29c-1.93-7.45,1.31-13.55,4.9-19.84
		C280.19,201.85,284.02,195.95,291.35,193.91z M257.77,180.75c3.65-3.72,7.75-4.91,12.06-4.75c3.81,2.01,6.77,5.09,8.07,10.14
		c1.9,7.37-1.3,13.64-4.9,19.84c-3.64,6.26-7.31,12.11-14.73,14.16c-0.1,0.03-0.19,0.05-0.29,0.08c-0.07-0.07-0.14-0.14-0.21-0.21
		c-5.39-5.48-5.65-12.39-5.67-19.63C252.07,193.21,252.43,186.18,257.77,180.75z M222.1,186.14c1.3-5.05,4.26-8.13,8.07-10.14
		c4.31-0.16,8.4,1.02,12.06,4.75c5.33,5.43,5.7,12.46,5.67,19.63c-0.03,7.24-0.28,14.15-5.67,19.63c-0.07,0.07-0.14,0.14-0.21,0.21
		c-0.1-0.02-0.19-0.05-0.29-0.08c-7.41-2.05-11.08-7.91-14.73-14.16C223.4,199.78,220.2,193.51,222.1,186.14z M195.83,195.83
		c3.65-2.29,7.79-3.32,12.82-1.92c7.34,2.04,11.16,7.94,14.73,14.16c3.6,6.28,6.83,12.39,4.9,19.84c-0.02,0.1-0.05,0.19-0.08,0.29
		c-0.1,0.03-0.19,0.05-0.29,0.08c-7.45,1.93-13.55-1.31-19.83-4.9c-6.22-3.56-12.13-7.39-14.16-14.73
		C192.51,203.62,193.54,199.48,195.83,195.83z M180.75,242.23c-3.72-3.66-4.91-7.75-4.75-12.06c2.01-3.81,5.09-6.77,10.14-8.07
		c7.37-1.9,13.64,1.3,19.84,4.9c6.26,3.64,12.11,7.31,14.16,14.73c0.03,0.1,0.05,0.19,0.08,0.29c-0.07,0.07-0.14,0.14-0.21,0.21
		c-5.48,5.39-12.39,5.65-19.63,5.67C193.21,247.93,186.18,247.57,180.75,242.23z M186.14,277.9c-5.05-1.3-8.13-4.26-10.14-8.07
		c-0.16-4.31,1.02-8.4,4.75-12.06c5.43-5.33,12.46-5.7,19.63-5.67c7.24,0.03,14.15,0.28,19.63,5.67c0.07,0.07,0.14,0.14,0.21,0.21
		c-0.03,0.1-0.05,0.19-0.08,0.29c-2.05,7.41-7.91,11.08-14.16,14.73C199.78,276.6,193.51,279.8,186.14,277.9z M208.65,306.09
		c-5.03,1.4-9.17,0.38-12.82-1.92c-2.29-3.65-3.32-7.79-1.92-12.82c2.04-7.34,7.94-11.16,14.16-14.73c6.28-3.6,12.39-6.83,19.83-4.9
		c0.1,0.02,0.19,0.05,0.29,0.08c0.03,0.1,0.05,0.19,0.08,0.29c1.93,7.45-1.31,13.55-4.9,19.84
		C219.81,298.15,215.98,304.05,208.65,306.09z M242.23,319.25c-3.66,3.72-7.75,4.91-12.06,4.75c-3.81-2.01-6.77-5.09-8.07-10.14
		c-1.9-7.37,1.3-13.64,4.9-19.84c3.64-6.26,7.31-12.11,14.73-14.16c0.1-0.03,0.19-0.05,0.29-0.08c0.07,0.07,0.14,0.14,0.21,0.21
		c5.39,5.48,5.65,12.39,5.67,19.63C247.93,306.79,247.57,313.82,242.23,319.25z M245.05,273.69c-0.38-0.32-0.77-0.62-1.15-0.91
		c-0.48,0.05-0.96,0.12-1.45,0.21c-2.65,0.46-4.99,1.28-7.09,2.38c-0.1-2.37-0.56-4.81-1.48-7.33c-0.17-0.47-0.35-0.92-0.54-1.36
		c-0.44-0.19-0.9-0.37-1.36-0.54c-2.52-0.92-4.96-1.39-7.33-1.48c1.1-2.1,1.92-4.44,2.38-7.09c0.09-0.49,0.16-0.98,0.21-1.45
		c-0.29-0.39-0.59-0.77-0.91-1.15c-1.72-2.06-3.6-3.68-5.6-4.95c2-1.27,3.88-2.89,5.6-4.95c0.32-0.38,0.62-0.77,0.91-1.15
		c-0.05-0.48-0.12-0.96-0.21-1.45c-0.46-2.65-1.28-4.99-2.38-7.09c2.37-0.1,4.81-0.56,7.33-1.48c0.47-0.17,0.92-0.35,1.36-0.54
		c0.19-0.44,0.37-0.9,0.54-1.36c0.92-2.52,1.39-4.96,1.48-7.33c2.1,1.1,4.44,1.92,7.09,2.38c0.49,0.09,0.98,0.16,1.45,0.21
		c0.39-0.29,0.77-0.59,1.15-0.91c2.06-1.72,3.68-3.6,4.95-5.6c1.27,2,2.89,3.88,4.95,5.6c0.38,0.32,0.77,0.62,1.15,0.91
		c0.48-0.05,0.96-0.12,1.45-0.21c2.65-0.46,4.99-1.28,7.09-2.38c0.1,2.37,0.56,4.81,1.48,7.33c0.17,0.47,0.35,0.92,0.54,1.36
		c0.44,0.19,0.9,0.37,1.36,0.54c2.52,0.92,4.96,1.39,7.33,1.48c-1.1,2.1-1.92,4.44-2.38,7.09c-0.09,0.49-0.16,0.98-0.21,1.45
		c0.29,0.39,0.59,0.77,0.91,1.15c1.72,2.06,3.6,3.68,5.6,4.95c-2,1.27-3.88,2.89-5.6,4.95c-0.32,0.38-0.62,0.77-0.91,1.15
		c0.05,0.48,0.12,0.96,0.21,1.45c0.46,2.65,1.28,4.99,2.38,7.09c-2.37,0.1-4.81,0.56-7.33,1.48c-0.47,0.17-0.92,0.35-1.36,0.54
		c-0.19,0.44-0.37,0.9-0.54,1.36c-0.92,2.52-1.39,4.96-1.48,7.33c-2.1-1.1-4.44-1.92-7.09-2.38c-0.49-0.09-0.98-0.16-1.45-0.21
		c-0.39,0.29-0.77,0.59-1.15,0.91c-2.06,1.72-3.68,3.6-4.95,5.6C248.73,277.28,247.11,275.41,245.05,273.69z M277.9,313.86
		c-1.3,5.05-4.26,8.13-8.07,10.14c-4.31,0.16-8.4-1.02-12.06-4.75c-5.33-5.43-5.7-12.46-5.67-19.63c0.03-7.24,0.28-14.15,5.67-19.63
		c0.07-0.07,0.14-0.14,0.21-0.21c0.1,0.02,0.19,0.05,0.29,0.08c7.41,2.05,11.08,7.91,14.73,14.16
		C276.6,300.22,279.8,306.49,277.9,313.86z M304.17,304.17c-3.65,2.29-7.79,3.32-12.82,1.92c-7.34-2.04-11.16-7.94-14.73-14.16
		c-3.6-6.28-6.83-12.39-4.9-19.84c0.02-0.1,0.05-0.19,0.08-0.29c0.1-0.03,0.19-0.05,0.29-0.08c7.45-1.93,13.55,1.31,19.84,4.9
		c6.22,3.56,12.13,7.39,14.16,14.73C307.49,296.38,306.46,300.52,304.17,304.17z M319.25,257.77c3.72,3.66,4.91,7.75,4.75,12.06
		c-2.02,3.81-5.09,6.77-10.14,8.07c-7.37,1.9-13.64-1.3-19.84-4.9c-6.26-3.64-12.11-7.31-14.16-14.73c-0.03-0.1-0.05-0.19-0.08-0.29
		c0.07-0.07,0.14-0.14,0.21-0.21c5.48-5.39,12.39-5.65,19.63-5.67C306.79,252.07,313.82,252.43,319.25,257.77z M299.62,247.9
		c-7.24-0.03-14.15-0.28-19.63-5.67c-0.07-0.07-0.14-0.14-0.21-0.21c0.02-0.1,0.05-0.19,0.08-0.29c2.05-7.41,7.91-11.08,14.16-14.73
		c6.2-3.61,12.46-6.81,19.84-4.9c5.05,1.3,8.12,4.26,10.14,8.07c0.16,4.31-1.02,8.4-4.75,12.06
		C313.82,247.57,306.79,247.93,299.62,247.9z"/>
	<path d="M397.89,289.63c-0.72-1.27-1.48-2.54-2.26-3.79c19.2-9.87,37.37-21.8,53.61-35.84c-16.25-14.04-34.41-25.97-53.61-35.84
		c0.79-1.25,1.55-2.52,2.26-3.79c-1.26-0.75-2.55-1.46-3.85-2.15c11.69-18.15,21.46-37.56,28.51-57.84
		c-21.09-4.03-42.78-5.28-64.35-4.23c0.05-1.48,0.08-2.95,0.06-4.42c-1.46-0.02-2.94,0.01-4.41,0.06
		c1.05-21.56-0.2-43.26-4.23-64.35c-20.28,7.05-39.69,16.82-57.84,28.51c-0.69-1.31-1.41-2.6-2.15-3.85
		c-1.28,0.72-2.54,1.48-3.79,2.26C275.97,85.17,264.04,67,250,50.76c-14.04,16.25-25.97,34.41-35.84,53.61
		c-1.25-0.79-2.52-1.55-3.79-2.26c-0.75,1.26-1.46,2.55-2.15,3.85c-18.15-11.69-37.56-21.46-57.84-28.51
		c-4.03,21.09-5.28,42.78-4.23,64.35c-1.48-0.05-2.95-0.08-4.41-0.06c-0.02,1.46,0.01,2.94,0.06,4.42
		c-21.56-1.05-43.26,0.2-64.35,4.23c7.05,20.28,16.82,39.69,28.51,57.84c-1.31,0.69-2.6,1.41-3.85,2.15
		c0.72,1.27,1.48,2.54,2.26,3.79C85.17,224.03,67,235.96,50.76,250c16.25,14.04,34.41,25.97,53.61,35.84
		c-0.79,1.25-1.55,2.52-2.26,3.79c1.26,0.75,2.55,1.46,3.85,2.15c-11.69,18.15-21.46,37.56-28.51,57.84
		c21.09,4.03,42.79,5.28,64.35,4.23c-0.05,1.48-0.08,2.95-0.06,4.42c1.46,0.02,2.94-0.01,4.41-0.06
		c-1.05,21.56,0.2,43.26,4.23,64.35c20.28-7.05,39.69-16.82,57.84-28.51c0.69,1.31,1.41,2.6,2.15,3.85
		c1.27-0.72,2.54-1.48,3.79-2.26c9.87,19.2,21.8,37.37,35.84,53.61c14.04-16.25,25.97-34.41,35.84-53.61
		c1.25,0.79,2.52,1.55,3.79,2.26c0.75-1.26,1.46-2.55,2.15-3.85c18.15,11.69,37.56,21.46,57.84,28.51
		c4.03-21.09,5.28-42.78,4.23-64.35c1.48,0.05,2.95,0.08,4.41,0.06c0.02-1.46-0.01-2.94-0.06-4.42c21.56,1.05,43.26-0.2,64.35-4.23
		c-7.05-20.28-16.82-39.69-28.51-57.84C395.34,291.09,396.63,290.37,397.89,289.63z M439,250c-14.46,11.69-30.33,21.77-46.99,30.32
		c-1.98-2.93-3.96-5.77-5.68-8.5c-1.49-2.37-3.11-4.95-4.77-7.69c8.58-4.36,17.02-9.06,25.21-14.13
		c-8.2-5.07-16.63-9.77-25.21-14.13c1.66-2.74,3.28-5.32,4.77-7.69c1.72-2.74,3.7-5.58,5.68-8.5
		C408.68,228.23,424.54,238.31,439,250z M378.23,258.46c-1.54-2.72-3.06-5.56-4.48-8.46c1.42-2.9,2.93-5.74,4.48-8.46
		c5.29,2.69,10.53,5.5,15.7,8.46C388.76,252.95,383.52,255.77,378.23,258.46z M357.16,162.94c0.12-3.23,0.41-6.68,0.67-10.2
		c18.71-0.93,37.48-0.13,55.86,2.76c-6.68,17.36-15.38,34.02-25.54,49.75c-3.18-1.54-6.31-3.02-9.17-4.52
		c-2.48-1.3-5.17-2.73-7.98-4.27c5.25-8.07,10.21-16.35,14.77-24.84c-9.63-0.29-19.29-0.14-28.9,0.37
		C356.93,168.79,357.05,165.74,357.16,162.94z M374.65,178.03c-3,5.14-6.13,10.2-9.37,15.18c-2.7-1.59-5.43-3.28-8.11-5.09
		c-0.23-3.22-0.33-6.43-0.35-9.57C362.75,178.24,368.7,178.06,374.65,178.03z M344.5,86.32c2.89,18.37,3.7,37.15,2.76,55.86
		c-3.52,0.25-6.97,0.54-10.2,0.67c-2.8,0.11-5.84,0.22-9.04,0.29c0.51-9.61,0.66-19.27,0.37-28.9c-8.49,4.56-16.78,9.52-24.84,14.77
		c-1.54-2.8-2.97-5.5-4.27-7.98c-1.51-2.86-2.98-5.99-4.52-9.17C310.48,101.69,327.14,93,344.5,86.32z M321.97,125.35
		c-0.03,5.95-0.21,11.9-0.52,17.83c-3.13-0.02-6.35-0.13-9.57-0.35c-1.8-2.68-3.5-5.41-5.09-8.11
		C311.76,131.48,316.82,128.35,321.97,125.35z M250,61c11.69,14.46,21.77,30.33,30.32,46.99c-2.92,1.98-5.77,3.96-8.5,5.68
		c-2.37,1.49-4.95,3.12-7.69,4.77c-4.36-8.58-9.06-17.02-14.13-25.21c-5.07,8.2-9.77,16.63-14.13,25.21
		c-2.74-1.66-5.32-3.28-7.69-4.77c-2.74-1.72-5.58-3.7-8.5-5.68C228.23,91.32,238.31,75.46,250,61z M258.46,121.77
		c-2.72,1.54-5.56,3.06-8.46,4.48c-2.9-1.42-5.73-2.93-8.46-4.48c2.69-5.29,5.51-10.53,8.46-15.7
		C252.95,111.24,255.77,116.48,258.46,121.77z M155.5,86.32c17.36,6.68,34.02,15.37,49.75,25.54c-1.54,3.18-3.02,6.31-4.52,9.17
		c-1.31,2.48-2.73,5.17-4.27,7.98c-8.07-5.25-16.35-10.21-24.84-14.77c-0.29,9.63-0.14,19.29,0.37,28.9
		c-3.2-0.07-6.25-0.18-9.04-0.29c-3.23-0.13-6.68-0.41-10.2-0.67C151.8,123.47,152.61,104.69,155.5,86.32z M193.21,134.72
		c-1.59,2.7-3.28,5.43-5.09,8.11c-3.22,0.23-6.43,0.33-9.57,0.35c-0.32-5.93-0.5-11.88-0.52-17.83
		C183.18,128.35,188.24,131.48,193.21,134.72z M86.32,155.5c18.37-2.89,37.15-3.69,55.86-2.76c0.25,3.52,0.54,6.97,0.67,10.2
		c0.11,2.8,0.22,5.84,0.29,9.04c-9.61-0.51-19.27-0.66-28.9-0.37c4.56,8.49,9.52,16.77,14.77,24.84c-2.8,1.54-5.5,2.97-7.98,4.27
		c-2.86,1.51-5.99,2.98-9.17,4.52C101.7,189.52,93,172.86,86.32,155.5z M143.18,178.56c-0.02,3.13-0.13,6.35-0.35,9.57
		c-2.68,1.8-5.41,3.5-8.11,5.09c-3.24-4.97-6.37-10.03-9.37-15.18C131.3,178.06,137.25,178.24,143.18,178.56z M61,250
		c14.46-11.69,30.33-21.77,46.99-30.32c1.98,2.93,3.96,5.77,5.68,8.5c1.49,2.37,3.12,4.95,4.77,7.69
		c-8.58,4.36-17.02,9.06-25.21,14.13c8.2,5.07,16.63,9.77,25.21,14.13c-1.66,2.74-3.28,5.32-4.77,7.69c-1.72,2.74-3.7,5.58-5.68,8.5
		C91.32,271.77,75.46,261.69,61,250z M121.77,241.54c1.54,2.72,3.06,5.56,4.48,8.46c-1.42,2.9-2.93,5.74-4.48,8.46
		c-5.29-2.69-10.53-5.51-15.7-8.46C111.24,247.05,116.48,244.23,121.77,241.54z M142.84,337.06c-0.12,3.23-0.41,6.68-0.67,10.2
		c-18.71,0.93-37.48,0.13-55.86-2.76c6.68-17.36,15.38-34.02,25.54-49.75c3.18,1.54,6.31,3.02,9.17,4.52
		c2.48,1.3,5.17,2.73,7.98,4.27c-5.25,8.07-10.21,16.35-14.77,24.84c9.63,0.29,19.29,0.14,28.9-0.37
		C143.07,331.21,142.95,334.26,142.84,337.06z M125.35,321.97c3-5.14,6.13-10.2,9.37-15.18c2.7,1.59,5.43,3.28,8.11,5.09
		c0.22,3.22,0.33,6.43,0.35,9.57C137.25,321.76,131.3,321.94,125.35,321.97z M155.5,413.68c-2.89-18.37-3.69-37.15-2.76-55.86
		c3.52-0.25,6.97-0.54,10.2-0.67c2.8-0.11,5.84-0.22,9.04-0.29c-0.51,9.61-0.66,19.27-0.37,28.9c8.49-4.56,16.77-9.52,24.84-14.77
		c1.54,2.8,2.97,5.5,4.27,7.98c1.51,2.86,2.98,5.99,4.52,9.17C189.52,398.31,172.86,407,155.5,413.68z M178.03,374.65
		c0.03-5.95,0.21-11.9,0.52-17.83c3.13,0.02,6.35,0.13,9.57,0.35c1.81,2.68,3.5,5.41,5.09,8.11
		C188.24,368.52,183.18,371.65,178.03,374.65z M250,439c-11.69-14.46-21.77-30.33-30.32-46.99c2.93-1.98,5.77-3.96,8.5-5.68
		c2.37-1.49,4.95-3.12,7.69-4.77c4.36,8.58,9.06,17.02,14.13,25.21c5.07-8.2,9.77-16.63,14.13-25.21c2.74,1.66,5.32,3.28,7.69,4.77
		c2.74,1.72,5.58,3.7,8.5,5.68C271.77,408.68,261.69,424.54,250,439z M241.54,378.23c2.72-1.54,5.56-3.06,8.46-4.48
		c2.9,1.42,5.74,2.93,8.46,4.48c-2.69,5.29-5.51,10.53-8.46,15.7C247.05,388.76,244.23,383.52,241.54,378.23z M344.5,413.68
		c-17.36-6.68-34.02-15.38-49.75-25.54c1.54-3.18,3.02-6.31,4.52-9.17c1.31-2.48,2.73-5.17,4.27-7.98
		c8.07,5.25,16.35,10.21,24.84,14.77c0.29-9.63,0.14-19.29-0.37-28.9c3.2,0.07,6.25,0.18,9.04,0.29c3.23,0.13,6.68,0.41,10.2,0.67
		C348.2,376.53,347.39,395.31,344.5,413.68z M306.79,365.28c1.59-2.7,3.28-5.43,5.09-8.11c3.22-0.23,6.43-0.33,9.57-0.35
		c0.32,5.93,0.5,11.88,0.52,17.83C316.82,371.65,311.76,368.52,306.79,365.28z M347.29,306.17c-0.38,3.57-0.66,7.17-0.84,10.78
		c-0.49,9.95-0.27,19.92,0.36,29.86c-9.94-0.63-19.91-0.85-29.86-0.36c-3.61,0.18-7.21,0.45-10.78,0.84
		c-2.12,2.9-4.16,5.88-6.12,8.92c-5.4,8.37-10.2,17.12-14.62,26.04c-8.29-5.52-16.82-10.69-25.68-15.24
		c-3.22-1.65-6.47-3.21-9.76-4.66c-3.29,1.45-6.54,3.01-9.76,4.66c-8.86,4.55-17.39,9.73-25.68,15.24
		c-4.42-8.92-9.22-17.67-14.62-26.04c-1.96-3.04-4-6.01-6.12-8.92c-3.57-0.39-7.17-0.66-10.78-0.84
		c-9.95-0.49-19.92-0.27-29.86,0.36c0.63-9.94,0.85-19.91,0.36-29.86c-0.18-3.61-0.46-7.21-0.84-10.78
		c-2.9-2.12-5.88-4.16-8.92-6.12c-8.37-5.4-17.12-10.2-26.04-14.62c5.52-8.29,10.69-16.82,15.24-25.68
		c1.65-3.22,3.21-6.47,4.66-9.76c-1.45-3.29-3.01-6.54-4.66-9.76c-4.55-8.86-9.73-17.39-15.24-25.68
		c8.92-4.42,17.67-9.22,26.04-14.62c3.04-1.96,6.01-4,8.92-6.12c0.38-3.57,0.66-7.17,0.84-10.78c0.49-9.95,0.27-19.92-0.36-29.86
		c9.94,0.63,19.91,0.85,29.86,0.36c3.61-0.18,7.21-0.45,10.78-0.84c2.12-2.9,4.16-5.88,6.12-8.92c5.4-8.37,10.2-17.12,14.62-26.04
		c8.29,5.52,16.82,10.69,25.68,15.24c3.22,1.65,6.47,3.21,9.76,4.66c3.29-1.45,6.54-3.01,9.76-4.66
		c8.86-4.55,17.39-9.73,25.68-15.24c4.42,8.92,9.22,17.67,14.62,26.04c1.96,3.04,4,6.01,6.12,8.92c3.57,0.38,7.17,0.66,10.78,0.84
		c9.95,0.49,19.92,0.27,29.86-0.36c-0.63,9.94-0.85,19.91-0.36,29.86c0.18,3.61,0.46,7.21,0.84,10.78c2.9,2.12,5.88,4.16,8.92,6.12
		c8.37,5.4,17.12,10.2,26.04,14.62c-5.52,8.29-10.69,16.82-15.24,25.68c-1.65,3.22-3.21,6.47-4.66,9.76
		c1.45,3.29,3.01,6.54,4.66,9.76c4.55,8.86,9.73,17.39,15.24,25.68c-8.92,4.42-17.67,9.22-26.04,14.62
		C353.16,302.01,350.19,304.05,347.29,306.17z M357.17,311.87c2.68-1.8,5.41-3.5,8.11-5.09c3.24,4.97,6.37,10.03,9.37,15.18
		c-5.95-0.03-11.9-0.21-17.83-0.52C356.84,318.31,356.95,315.1,357.17,311.87z M413.68,344.5c-18.37,2.89-37.15,3.69-55.86,2.76
		c-0.25-3.52-0.54-6.97-0.67-10.2c-0.11-2.8-0.22-5.84-0.29-9.04c9.61,0.51,19.27,0.66,28.9,0.37c-4.56-8.49-9.52-16.78-14.77-24.84
		c2.8-1.54,5.5-2.97,7.98-4.27c2.86-1.51,5.99-2.98,9.17-4.52C398.31,310.48,407,327.14,413.68,344.5z"/>
	<path d="M254.71,254.71c0.49-0.38,1-0.76,1.52-1.11c0.05-0.63,0.12-1.26,0.21-1.87c0.23-0.58,0.49-1.15,0.76-1.72
		c-0.27-0.57-0.52-1.15-0.76-1.72c-0.09-0.62-0.16-1.24-0.21-1.87c-0.52-0.36-1.03-0.73-1.52-1.11c-0.38-0.49-0.75-1-1.11-1.52
		c-0.63-0.05-1.25-0.12-1.87-0.21c-0.58-0.23-1.15-0.49-1.72-0.76c-0.57,0.27-1.15,0.52-1.72,0.76c-0.62,0.09-1.24,0.15-1.87,0.21
		c-0.36,0.52-0.73,1.03-1.11,1.52c-0.49,0.38-1,0.76-1.52,1.11c-0.05,0.63-0.12,1.26-0.21,1.87c-0.23,0.58-0.49,1.15-0.76,1.72
		c0.27,0.57,0.52,1.15,0.76,1.72c0.09,0.62,0.16,1.24,0.21,1.87c0.52,0.36,1.03,0.73,1.52,1.11c0.38,0.49,0.75,1,1.11,1.52
		c0.63,0.05,1.25,0.12,1.87,0.21c0.58,0.23,1.15,0.49,1.72,0.76c0.57-0.27,1.15-0.52,1.72-0.76c0.62-0.09,1.24-0.15,1.87-0.21
		C253.95,255.7,254.33,255.2,254.71,254.71z"/>
	<path d="M345.01,209.9c-2.72-3.53-5.73-6.76-9.05-9.53c-0.73-4.26-2.03-8.49-3.73-12.61c-1.76-4.26-4.7-8.58-7.04-12.95
		c-4.37-2.35-8.69-5.29-12.95-7.04c-4.12-1.7-8.34-2.99-12.61-3.73c-2.77-3.33-6-6.34-9.53-9.06c-3.65-2.81-8.36-5.08-12.58-7.7
		c-4.96,0.15-10.17-0.23-14.74,0.38c-4.42,0.59-8.72,1.58-12.78,3.08c-4.06-1.5-8.37-2.49-12.78-3.08
		c-4.57-0.61-9.78-0.22-14.74-0.38c-4.22,2.61-8.92,4.88-12.58,7.7c-3.53,2.72-6.76,5.73-9.53,9.06c-4.26,0.73-8.49,2.03-12.61,3.73
		c-4.26,1.76-8.58,4.7-12.95,7.04c-2.35,4.37-5.29,8.69-7.04,12.95c-1.7,4.12-2.99,8.34-3.73,12.61c-3.33,2.77-6.34,6-9.06,9.53
		c-2.81,3.65-5.08,8.36-7.69,12.58c0.15,4.96-0.23,10.17,0.38,14.74c0.59,4.42,1.58,8.72,3.08,12.78c-1.5,4.06-2.49,8.37-3.08,12.78
		c-0.61,4.57-0.22,9.78-0.38,14.74c2.61,4.22,4.88,8.92,7.69,12.58c2.72,3.53,5.73,6.76,9.06,9.53c0.73,4.26,2.03,8.49,3.73,12.61
		c1.76,4.26,4.7,8.58,7.04,12.95c4.37,2.35,8.69,5.29,12.95,7.04c4.12,1.7,8.34,2.99,12.61,3.73c2.77,3.33,6,6.34,9.53,9.06
		c3.65,2.81,8.36,5.08,12.58,7.7c4.96-0.15,10.17,0.23,14.74-0.38c4.42-0.59,8.72-1.58,12.78-3.08c4.06,1.5,8.37,2.49,12.78,3.08
		c4.57,0.61,9.78,0.22,14.74,0.38c4.22-2.61,8.92-4.88,12.58-7.7c3.53-2.72,6.76-5.73,9.53-9.06c4.27-0.73,8.49-2.03,12.61-3.73
		c4.26-1.76,8.58-4.7,12.95-7.04c2.35-4.37,5.29-8.69,7.04-12.95c1.7-4.12,2.99-8.34,3.73-12.61c3.33-2.77,6.34-6,9.05-9.53
		c2.81-3.65,5.08-8.36,7.7-12.58c-0.15-4.96,0.23-10.17-0.38-14.74c-0.59-4.42-1.58-8.72-3.08-12.78c1.5-4.06,2.49-8.37,3.08-12.78
		c0.61-4.57,0.22-9.78,0.38-14.74C350.09,218.26,347.82,213.56,345.01,209.9z M344.02,275.19c-2.85,8.46-7.08,15.84-14.31,20.83
		c-0.7,8.75-4.98,16.11-10.88,22.81c-6.69,5.9-14.05,10.18-22.81,10.88c-4.99,7.23-12.37,11.46-20.83,14.31
		c-8.75,1.76-17.26,1.79-25.19-1.98c-7.93,3.77-16.45,3.74-25.19,1.98c-8.46-2.85-15.84-7.08-20.83-14.31
		c-8.75-0.7-16.11-4.98-22.81-10.88c-5.9-6.69-10.18-14.05-10.88-22.81c-7.23-4.99-11.46-12.37-14.31-20.83
		c-1.76-8.75-1.79-17.26,1.98-25.19c-3.77-7.93-3.74-16.45-1.98-25.19c2.85-8.46,7.08-15.84,14.31-20.83
		c0.7-8.75,4.98-16.11,10.88-22.81c6.69-5.9,14.05-10.18,22.81-10.88c4.98-7.23,12.37-11.46,20.83-14.31
		c8.75-1.76,17.26-1.79,25.19,1.98c7.93-3.77,16.45-3.74,25.19-1.98c8.46,2.85,15.84,7.08,20.83,14.31
		c8.75,0.7,16.11,4.98,22.81,10.88c5.9,6.69,10.18,14.05,10.88,22.81c7.23,4.99,11.46,12.37,14.31,20.83
		c1.76,8.75,1.79,17.26-1.98,25.19C345.81,257.93,345.79,266.45,344.02,275.19z"/>
</g>
<g id="Layer_3">
	<path class="st0" d="M242.02,279.78c-0.1,0.02-0.19,0.05-0.29,0.08c-7.41,2.05-11.08,7.91-14.73,14.16
		c-3.61,6.2-6.81,12.46-4.9,19.84c1.3,5.05,4.26,8.13,8.07,10.14c4.31,0.16,8.4-1.02,12.06-4.75c5.33-5.43,5.7-12.46,5.67-19.63
		c-0.03-7.24-0.28-14.15-5.67-19.63C242.16,279.92,242.09,279.85,242.02,279.78z"/>
	<path class="st0" d="M228.27,272.09c-0.02-0.1-0.05-0.19-0.08-0.29c-0.1-0.03-0.19-0.05-0.29-0.08c-7.45-1.93-13.55,1.31-19.83,4.9
		c-6.22,3.56-12.13,7.39-14.16,14.73c-1.4,5.03-0.38,9.17,1.92,12.82c3.65,2.29,7.79,3.32,12.82,1.92
		c7.34-2.04,11.16-7.94,14.73-14.16C226.97,285.64,230.21,279.54,228.27,272.09z"/>
	<path class="st0" d="M291.93,276.63c-6.28-3.6-12.39-6.83-19.84-4.9c-0.1,0.02-0.19,0.05-0.29,0.08c-0.03,0.1-0.05,0.19-0.08,0.29
		c-1.93,7.45,1.31,13.55,4.9,19.84c3.56,6.22,7.39,12.13,14.73,14.16c5.03,1.4,9.17,0.38,12.82-1.92c2.29-3.65,3.31-7.79,1.92-12.82
		C304.05,284.02,298.15,280.19,291.93,276.63z"/>
	<path class="st0" d="M208.07,223.37c6.28,3.6,12.39,6.83,19.83,4.9c0.1-0.02,0.19-0.05,0.29-0.08c0.03-0.1,0.05-0.19,0.08-0.29
		c1.93-7.45-1.31-13.55-4.9-19.84c-3.56-6.22-7.39-12.13-14.73-14.16c-5.03-1.4-9.17-0.38-12.82,1.92
		c-2.29,3.65-3.32,7.79-1.92,12.82C195.95,215.98,201.85,219.81,208.07,223.37z"/>
	<path class="st0" d="M220.14,258.27c0.03-0.1,0.05-0.19,0.08-0.29c-0.07-0.07-0.14-0.14-0.21-0.21
		c-5.48-5.39-12.39-5.65-19.63-5.67c-7.17-0.03-14.2,0.34-19.63,5.67c-3.72,3.66-4.91,7.75-4.75,12.06
		c2.01,3.81,5.09,6.77,10.14,8.07c7.37,1.9,13.64-1.3,19.84-4.9C212.23,269.35,218.09,265.68,220.14,258.27z"/>
	<path class="st0" d="M220.01,242.23c0.07-0.07,0.14-0.14,0.21-0.21c-0.03-0.1-0.05-0.19-0.08-0.29
		c-2.05-7.41-7.91-11.08-14.16-14.73c-6.2-3.61-12.46-6.81-19.84-4.9c-5.05,1.3-8.13,4.26-10.14,8.07
		c-0.16,4.31,1.02,8.4,4.75,12.06c5.43,5.33,12.46,5.7,19.63,5.67C207.62,247.88,214.52,247.63,220.01,242.23z"/>
	<path class="st0" d="M241.73,220.14c0.1,0.03,0.19,0.05,0.29,0.08c0.07-0.07,0.14-0.14,0.21-0.21c5.39-5.48,5.65-12.39,5.67-19.63
		c0.03-7.17-0.34-14.2-5.67-19.63c-3.66-3.72-7.75-4.91-12.06-4.75c-3.81,2.01-6.77,5.09-8.07,10.14c-1.9,7.37,1.3,13.64,4.9,19.84
		C230.65,212.23,234.32,218.09,241.73,220.14z"/>
	<path class="st0" d="M258.27,279.86c-0.1-0.03-0.19-0.05-0.29-0.08c-0.07,0.07-0.14,0.14-0.21,0.21
		c-5.39,5.48-5.65,12.39-5.67,19.63c-0.03,7.17,0.34,14.2,5.67,19.63c3.65,3.72,7.75,4.91,12.06,4.75
		c3.81-2.01,6.77-5.09,8.07-10.14c1.9-7.37-1.3-13.64-4.9-19.84C269.35,287.77,265.68,281.91,258.27,279.86z"/>
	<path class="st0" d="M257.98,220.22c0.1-0.02,0.19-0.05,0.29-0.08c7.41-2.05,11.08-7.91,14.73-14.16c3.61-6.2,6.81-12.46,4.9-19.84
		c-1.3-5.05-4.26-8.13-8.07-10.14c-4.31-0.16-8.4,1.02-12.06,4.75c-5.33,5.43-5.7,12.46-5.67,19.63c0.03,7.24,0.28,14.15,5.67,19.63
		C257.84,220.08,257.91,220.15,257.98,220.22z"/>
	<path class="st0" d="M279.99,257.77c-0.07,0.07-0.14,0.14-0.21,0.21c0.02,0.1,0.05,0.19,0.08,0.29
		c2.05,7.41,7.91,11.08,14.16,14.73c6.2,3.61,12.46,6.81,19.84,4.9c5.05-1.3,8.12-4.26,10.14-8.07c0.16-4.31-1.02-8.4-4.75-12.06
		c-5.43-5.33-12.46-5.7-19.63-5.67C292.38,252.12,285.48,252.37,279.99,257.77z"/>
	<path class="st0" d="M324,230.17c-2.02-3.81-5.09-6.77-10.14-8.07c-7.37-1.9-13.64,1.3-19.84,4.9
		c-6.26,3.64-12.11,7.31-14.16,14.73c-0.03,0.1-0.05,0.19-0.08,0.29c0.07,0.07,0.14,0.14,0.21,0.21c5.48,5.39,12.39,5.65,19.63,5.67
		c7.17,0.03,14.2-0.34,19.63-5.67C322.97,238.58,324.16,234.48,324,230.17z"/>
	<path class="st0" d="M271.73,227.91c0.02,0.1,0.05,0.19,0.08,0.29c0.1,0.03,0.19,0.05,0.29,0.08c7.45,1.93,13.55-1.31,19.84-4.9
		c6.22-3.56,12.13-7.39,14.16-14.73c1.4-5.03,0.38-9.17-1.92-12.82c-3.65-2.29-7.79-3.32-12.82-1.92
		c-7.34,2.04-11.16,7.94-14.73,14.16C273.03,214.36,269.79,220.46,271.73,227.91z"/>
</g>
<g id="Layer_4">
	<path class="st0" d="M250,2.81C113.48,2.81,2.81,113.48,2.81,250S113.48,497.19,250,497.19S497.19,386.52,497.19,250
		S386.52,2.81,250,2.81z M386.07,386.07c-3.97,24.47-8.98,48.78-15.54,72.69c-23.98-6.27-47.55-14.09-70.72-22.89
		c-15.67,19.21-32.17,37.76-49.8,55.18c-17.64-17.42-34.13-35.98-49.8-55.18c-23.17,8.8-46.74,16.62-70.72,22.89
		c-6.56-23.91-11.57-48.22-15.54-72.69c-24.47-3.97-48.78-8.98-72.69-15.54c6.27-23.98,14.09-47.55,22.89-70.72
		C44.92,284.13,26.37,267.64,8.95,250c17.42-17.64,35.98-34.13,55.18-49.8c-8.8-23.17-16.62-46.74-22.89-70.72
		c23.91-6.56,48.22-11.57,72.69-15.54c3.97-24.47,8.98-48.78,15.54-72.69c23.99,6.27,47.55,14.09,70.72,22.89
		c15.67-19.21,32.17-37.76,49.8-55.18c17.64,17.42,34.13,35.98,49.8,55.18c23.17-8.8,46.74-16.62,70.72-22.89
		c6.56,23.91,11.57,48.22,15.54,72.69c24.47,3.97,48.78,8.98,72.69,15.54c-6.27,23.98-14.09,47.55-22.89,70.72
		c19.21,15.67,37.76,32.17,55.18,49.8c-17.42,17.64-35.98,34.13-55.18,49.8c8.8,23.17,16.62,46.74,22.89,70.72
		C434.85,377.09,410.54,382.1,386.07,386.07z"/>
</g>
<g id="Layer_5">
	<path class="st0" d="M254.95,273.69c0.38-0.32,0.77-0.62,1.15-0.91c0.48,0.05,0.96,0.12,1.45,0.21c2.65,0.46,4.99,1.28,7.09,2.38
		c0.1-2.37,0.56-4.81,1.48-7.33c0.17-0.47,0.35-0.92,0.54-1.36c0.44-0.19,0.9-0.37,1.36-0.54c2.52-0.92,4.96-1.39,7.33-1.48
		c-1.1-2.1-1.92-4.44-2.38-7.09c-0.09-0.49-0.16-0.98-0.21-1.45c0.29-0.39,0.59-0.77,0.91-1.15c1.72-2.06,3.6-3.68,5.6-4.95
		c-2-1.27-3.88-2.89-5.6-4.95c-0.32-0.38-0.62-0.77-0.91-1.15c0.05-0.48,0.12-0.96,0.21-1.45c0.46-2.65,1.28-4.99,2.38-7.09
		c-2.37-0.1-4.81-0.56-7.33-1.48c-0.47-0.17-0.92-0.35-1.36-0.54c-0.19-0.44-0.37-0.9-0.54-1.36c-0.92-2.52-1.39-4.96-1.48-7.33
		c-2.1,1.1-4.44,1.92-7.09,2.38c-0.49,0.09-0.98,0.16-1.45,0.21c-0.39-0.29-0.77-0.59-1.15-0.91c-2.06-1.72-3.68-3.6-4.95-5.6
		c-1.27,2-2.89,3.88-4.95,5.6c-0.38,0.32-0.77,0.62-1.15,0.91c-0.48-0.05-0.96-0.12-1.45-0.21c-2.65-0.46-4.99-1.28-7.09-2.38
		c-0.1,2.37-0.56,4.81-1.48,7.33c-0.17,0.47-0.35,0.92-0.54,1.36c-0.44,0.19-0.9,0.37-1.36,0.54c-2.52,0.92-4.96,1.39-7.33,1.48
		c1.1,2.1,1.92,4.44,2.38,7.09c0.09,0.49,0.16,0.98,0.21,1.45c-0.29,0.39-0.59,0.77-0.91,1.15c-1.72,2.06-3.6,3.68-5.6,4.95
		c2,1.27,3.88,2.89,5.6,4.95c0.32,0.38,0.62,0.77,0.91,1.15c-0.05,0.48-0.12,0.96-0.21,1.45c-0.46,2.65-1.28,4.99-2.38,7.09
		c2.37,0.1,4.81,0.56,7.33,1.48c0.47,0.17,0.92,0.35,1.36,0.54c0.19,0.44,0.37,0.9,0.54,1.36c0.92,2.52,1.39,4.96,1.48,7.33
		c2.1-1.1,4.44-1.92,7.09-2.38c0.49-0.09,0.98-0.16,1.45-0.21c0.39,0.29,0.77,0.59,1.15,0.91c2.06,1.72,3.68,3.6,4.95,5.6
		C251.27,277.28,252.89,275.41,254.95,273.69z M250,257.19c-0.57-0.27-1.15-0.52-1.72-0.76c-0.62-0.09-1.24-0.15-1.87-0.21
		c-0.36-0.52-0.73-1.03-1.11-1.52c-0.49-0.38-1-0.76-1.52-1.11c-0.05-0.63-0.12-1.26-0.21-1.87c-0.23-0.58-0.49-1.15-0.76-1.72
		c0.27-0.57,0.52-1.15,0.76-1.72c0.09-0.62,0.16-1.24,0.21-1.87c0.52-0.36,1.03-0.73,1.52-1.11c0.38-0.49,0.75-1,1.11-1.52
		c0.63-0.05,1.25-0.12,1.87-0.21c0.58-0.23,1.15-0.49,1.72-0.76c0.57,0.27,1.15,0.52,1.72,0.76c0.62,0.09,1.24,0.15,1.87,0.21
		c0.36,0.52,0.73,1.03,1.11,1.52c0.49,0.38,1,0.76,1.52,1.11c0.05,0.63,0.12,1.26,0.21,1.87c0.23,0.58,0.49,1.15,0.76,1.72
		c-0.27,0.57-0.52,1.15-0.76,1.72c-0.09,0.62-0.16,1.24-0.21,1.87c-0.52,0.36-1.03,0.73-1.52,1.11c-0.38,0.49-0.75,1-1.11,1.52
		c-0.63,0.05-1.25,0.12-1.87,0.21C251.15,256.66,250.57,256.92,250,257.19z"/>
</g>
<g id="Layer_6">
	<path class="st0" d="M367,259.76c-1.65-3.22-3.21-6.47-4.66-9.76c1.45-3.29,3.01-6.54,4.66-9.76c4.55-8.86,9.73-17.39,15.24-25.68
		c-8.92-4.42-17.67-9.22-26.04-14.62c-3.04-1.96-6.01-4-8.92-6.12c-0.38-3.57-0.66-7.17-0.84-10.78
		c-0.49-9.95-0.27-19.92,0.36-29.86c-9.94,0.63-19.91,0.85-29.86,0.36c-3.61-0.18-7.21-0.45-10.78-0.84
		c-2.12-2.9-4.16-5.88-6.12-8.92c-5.4-8.37-10.2-17.12-14.62-26.04c-8.29,5.52-16.82,10.69-25.68,15.24
		c-3.22,1.65-6.47,3.21-9.76,4.66c-3.29-1.45-6.54-3.01-9.76-4.66c-8.86-4.55-17.39-9.73-25.68-15.24
		c-4.42,8.92-9.22,17.67-14.62,26.04c-1.96,3.04-4,6.01-6.12,8.92c-3.57,0.38-7.17,0.66-10.78,0.84
		c-9.95,0.49-19.92,0.27-29.86-0.36c0.63,9.94,0.85,19.91,0.36,29.86c-0.18,3.61-0.46,7.21-0.84,10.78
		c-2.9,2.12-5.88,4.16-8.92,6.12c-8.37,5.4-17.12,10.2-26.04,14.62c5.52,8.29,10.69,16.82,15.24,25.68
		c1.65,3.22,3.21,6.47,4.66,9.76c-1.45,3.29-3.01,6.54-4.66,9.76c-4.55,8.86-9.73,17.39-15.24,25.68
		c8.92,4.42,17.67,9.22,26.04,14.62c3.04,1.96,6.01,4,8.92,6.12c0.38,3.57,0.66,7.17,0.84,10.78c0.49,9.95,0.27,19.92-0.36,29.86
		c9.94-0.63,19.91-0.85,29.86-0.36c3.61,0.18,7.21,0.45,10.78,0.84c2.12,2.9,4.16,5.88,6.12,8.92c5.4,8.37,10.2,17.12,14.62,26.04
		c8.29-5.52,16.82-10.69,25.68-15.24c3.22-1.65,6.47-3.21,9.76-4.66c3.29,1.45,6.54,3.01,9.76,4.66
		c8.86,4.55,17.39,9.73,25.68,15.24c4.42-8.92,9.22-17.67,14.62-26.04c1.96-3.04,4-6.01,6.12-8.92c3.57-0.39,7.17-0.66,10.78-0.84
		c9.95-0.49,19.92-0.27,29.86,0.36c-0.63-9.94-0.85-19.91-0.36-29.86c0.18-3.61,0.46-7.21,0.84-10.78c2.9-2.12,5.88-4.16,8.92-6.12
		c8.37-5.4,17.12-10.2,26.04-14.62C376.73,277.15,371.55,268.62,367,259.76z M352.33,237.22c-0.59,4.42-1.58,8.72-3.08,12.78
		c1.5,4.06,2.49,8.37,3.08,12.78c0.61,4.57,0.22,9.78,0.38,14.74c-2.61,4.22-4.88,8.92-7.7,12.58c-2.72,3.53-5.73,6.76-9.05,9.53
		c-0.73,4.26-2.03,8.49-3.73,12.61c-1.76,4.26-4.7,8.58-7.04,12.95c-4.37,2.35-8.69,5.29-12.95,7.04c-4.12,1.7-8.34,2.99-12.61,3.73
		c-2.77,3.33-6,6.34-9.53,9.06c-3.65,2.81-8.36,5.08-12.58,7.7c-4.96-0.15-10.17,0.23-14.74-0.38c-4.42-0.59-8.72-1.58-12.78-3.08
		c-4.06,1.5-8.37,2.49-12.78,3.08c-4.57,0.61-9.78,0.22-14.74,0.38c-4.22-2.61-8.92-4.88-12.58-7.7c-3.53-2.72-6.76-5.73-9.53-9.06
		c-4.26-0.73-8.49-2.03-12.61-3.73c-4.26-1.76-8.58-4.7-12.95-7.04c-2.35-4.37-5.29-8.69-7.04-12.95c-1.7-4.12-2.99-8.34-3.73-12.61
		c-3.33-2.77-6.34-6-9.06-9.53c-2.81-3.65-5.08-8.36-7.69-12.58c0.15-4.96-0.23-10.17,0.38-14.74c0.59-4.42,1.58-8.72,3.08-12.78
		c-1.5-4.06-2.49-8.37-3.08-12.78c-0.61-4.57-0.22-9.78-0.38-14.74c2.61-4.22,4.88-8.92,7.69-12.58c2.72-3.53,5.73-6.76,9.06-9.53
		c0.73-4.26,2.03-8.49,3.73-12.61c1.76-4.26,4.7-8.58,7.04-12.95c4.37-2.35,8.69-5.29,12.95-7.04c4.12-1.7,8.34-2.99,12.61-3.73
		c2.77-3.33,6-6.34,9.53-9.06c3.65-2.81,8.36-5.08,12.58-7.7c4.96,0.15,10.17-0.23,14.74,0.38c4.42,0.59,8.72,1.58,12.78,3.08
		c4.06-1.5,8.37-2.49,12.78-3.08c4.57-0.61,9.78-0.22,14.74-0.38c4.22,2.61,8.92,4.88,12.58,7.7c3.53,2.72,6.76,5.73,9.53,9.06
		c4.27,0.73,8.49,2.03,12.61,3.73c4.26,1.76,8.58,4.7,12.95,7.04c2.35,4.37,5.29,8.69,7.04,12.95c1.7,4.12,2.99,8.34,3.73,12.61
		c3.33,2.77,6.34,6,9.05,9.53c2.81,3.65,5.08,8.36,7.7,12.58C352.55,227.44,352.94,232.65,352.33,237.22z"/>
</g>
<g id="Layer_7">
	<path class="st0" d="M344.02,224.81c-2.85-8.46-7.08-15.84-14.31-20.83c-0.7-8.75-4.98-16.11-10.88-22.81
		c-6.69-5.9-14.05-10.18-22.81-10.88c-4.99-7.23-12.37-11.46-20.83-14.31c-8.75-1.76-17.26-1.79-25.19,1.98
		c-7.93-3.77-16.45-3.74-25.19-1.98c-8.46,2.85-15.84,7.08-20.83,14.31c-8.75,0.7-16.11,4.98-22.81,10.88
		c-5.9,6.69-10.18,14.05-10.88,22.81c-7.23,4.99-11.46,12.37-14.31,20.83c-1.76,8.75-1.79,17.26,1.98,25.19
		c-3.77,7.93-3.74,16.45-1.98,25.19c2.85,8.46,7.08,15.84,14.31,20.83c0.7,8.75,4.98,16.11,10.88,22.81
		c6.69,5.9,14.05,10.18,22.81,10.88c4.98,7.23,12.37,11.46,20.83,14.31c8.75,1.76,17.26,1.79,25.19-1.98
		c7.93,3.77,16.45,3.74,25.19,1.98c8.46-2.85,15.84-7.08,20.83-14.31c8.75-0.7,16.11-4.98,22.81-10.88
		c5.9-6.69,10.18-14.05,10.88-22.81c7.23-4.99,11.46-12.37,14.31-20.83c1.76-8.75,1.79-17.26-1.98-25.19
		C345.81,242.07,345.79,233.55,344.02,224.81z M330.2,271.49c-4.48,8.66-12.01,12.84-20.75,12.84c4.37,7.56,4.52,16.18-0.74,24.39
		c-8.21,5.26-16.83,5.12-24.39,0.74c0.01,8.73-4.18,16.27-12.84,20.75c-9.74,0.45-17.13-3.98-21.49-11.55
		c-4.36,7.57-11.75,12-21.49,11.55c-8.66-4.48-12.84-12.01-12.84-20.75c-7.56,4.37-16.18,4.52-24.39-0.74
		c-5.26-8.21-5.12-16.83-0.74-24.39c-8.73,0.01-16.27-4.18-20.75-12.84c-0.45-9.74,3.98-17.13,11.55-21.49
		c-7.57-4.36-12-11.75-11.55-21.49c4.48-8.66,12.01-12.84,20.75-12.84c-4.37-7.56-4.52-16.18,0.74-24.39
		c8.21-5.26,16.83-5.12,24.39-0.74c-0.01-8.73,4.18-16.27,12.84-20.75c9.74-0.45,17.13,3.98,21.49,11.55
		c4.36-7.57,11.75-12,21.49-11.55c8.66,4.48,12.84,12.01,12.84,20.75c7.56-4.37,16.18-4.52,24.39,0.74
		c5.26,8.21,5.12,16.83,0.74,24.39c8.73-0.01,16.27,4.18,20.75,12.84c0.45,9.74-3.98,17.13-11.55,21.49
		C326.22,254.36,330.66,261.75,330.2,271.49z"/>
</g>
<g id="Layer_8">
	<path class="st0" d="M196.46,371c-8.07,5.25-16.35,10.21-24.84,14.77c-0.29-9.63-0.14-19.29,0.37-28.9
		c-3.2,0.07-6.25,0.18-9.04,0.29c-3.23,0.13-6.68,0.41-10.2,0.67c-0.93,18.71-0.13,37.48,2.76,55.86
		c17.36-6.68,34.02-15.38,49.75-25.54c-1.54-3.18-3.02-6.31-4.52-9.17C199.42,376.5,198,373.8,196.46,371z"/>
	<path class="st0" d="M113.67,271.82c1.49-2.37,3.12-4.95,4.77-7.69c-8.58-4.36-17.02-9.06-25.21-14.13
		c8.2-5.07,16.63-9.77,25.21-14.13c-1.66-2.74-3.28-5.32-4.77-7.69c-1.72-2.74-3.7-5.58-5.68-8.5C91.32,228.23,75.46,238.31,61,250
		c14.46,11.69,30.33,21.77,46.99,30.32C109.97,277.39,111.95,274.55,113.67,271.82z"/>
	<path class="st0" d="M264.13,381.56c-4.36,8.58-9.06,17.02-14.13,25.21c-5.07-8.2-9.77-16.63-14.13-25.21
		c-2.74,1.66-5.32,3.28-7.69,4.77c-2.74,1.72-5.58,3.7-8.5,5.68c8.54,16.67,18.63,32.53,30.32,46.99
		c11.69-14.46,21.77-30.33,30.32-46.99c-2.92-1.98-5.77-3.96-8.5-5.68C269.45,384.84,266.87,383.21,264.13,381.56z"/>
	<path class="st0" d="M114.23,328.38c4.56-8.49,9.52-16.78,14.77-24.84c-2.8-1.54-5.5-2.97-7.98-4.27
		c-2.86-1.51-5.99-2.98-9.17-4.52C101.7,310.48,93,327.14,86.32,344.5c18.37,2.89,37.15,3.69,55.86,2.76
		c0.25-3.52,0.54-6.97,0.67-10.2c0.11-2.8,0.22-5.84,0.29-9.04C133.52,328.53,123.87,328.68,114.23,328.38z"/>
	<path class="st0" d="M121.03,200.73c2.48-1.3,5.17-2.73,7.98-4.27c-5.25-8.07-10.21-16.35-14.77-24.84
		c9.63-0.29,19.29-0.14,28.9,0.37c-0.07-3.2-0.18-6.25-0.29-9.04c-0.12-3.23-0.41-6.68-0.67-10.2c-18.71-0.93-37.48-0.13-55.86,2.76
		c6.68,17.36,15.38,34.02,25.54,49.75C115.04,203.71,118.17,202.24,121.03,200.73z"/>
	<path class="st0" d="M303.54,129c8.07-5.25,16.35-10.21,24.84-14.77c0.29,9.63,0.14,19.29-0.37,28.9c3.2-0.07,6.25-0.18,9.04-0.29
		c3.23-0.13,6.68-0.41,10.2-0.67c0.93-18.71,0.13-37.48-2.76-55.86c-17.36,6.68-34.02,15.37-49.75,25.54
		c1.54,3.18,3.02,6.31,4.52,9.17C300.58,123.5,302,126.2,303.54,129z"/>
	<path class="st0" d="M385.77,171.62c-4.56,8.49-9.52,16.77-14.77,24.84c2.8,1.54,5.5,2.97,7.98,4.27c2.86,1.51,5.99,2.98,9.17,4.52
		c10.16-15.73,18.86-32.4,25.54-49.75c-18.37-2.89-37.15-3.69-55.86-2.76c-0.25,3.52-0.54,6.97-0.67,10.2
		c-0.11,2.8-0.22,5.84-0.29,9.04C366.48,171.47,376.13,171.32,385.77,171.62z"/>
	<path class="st0" d="M386.33,228.18c-1.49,2.37-3.11,4.95-4.77,7.69c8.58,4.36,17.02,9.06,25.21,14.13
		c-8.2,5.07-16.63,9.77-25.21,14.13c1.66,2.74,3.28,5.32,4.77,7.69c1.72,2.74,3.7,5.58,5.68,8.5c16.67-8.54,32.53-18.63,46.99-30.32
		c-14.46-11.69-30.33-21.77-46.99-30.32C390.03,222.61,388.05,225.45,386.33,228.18z"/>
	<path class="st0" d="M162.94,142.84c2.8,0.11,5.84,0.22,9.04,0.29c-0.51-9.61-0.66-19.27-0.37-28.9
		c8.49,4.56,16.77,9.52,24.84,14.77c1.54-2.8,2.97-5.5,4.27-7.98c1.51-2.86,2.98-5.99,4.52-9.17
		c-15.73-10.16-32.4-18.86-49.75-25.54c-2.89,18.37-3.69,37.15-2.76,55.86C156.26,142.43,159.71,142.72,162.94,142.84z"/>
	<path class="st0" d="M235.87,118.44c4.36-8.58,9.06-17.02,14.13-25.21c5.07,8.2,9.77,16.63,14.13,25.21
		c2.74-1.66,5.32-3.28,7.69-4.77c2.74-1.72,5.58-3.7,8.5-5.68C271.77,91.32,261.69,75.46,250,61
		c-11.69,14.46-21.77,30.33-30.32,46.99c2.93,1.98,5.77,3.96,8.5,5.68C230.55,115.16,233.13,116.79,235.87,118.44z"/>
	<path class="st0" d="M337.06,357.16c-2.8-0.11-5.84-0.22-9.04-0.29c0.51,9.61,0.66,19.27,0.37,28.9
		c-8.49-4.56-16.78-9.52-24.84-14.77c-1.54,2.8-2.97,5.5-4.27,7.98c-1.51,2.86-2.98,5.99-4.52,9.17
		c15.73,10.16,32.4,18.86,49.75,25.54c2.89-18.37,3.7-37.15,2.76-55.86C343.74,357.57,340.29,357.28,337.06,357.16z"/>
	<path class="st0" d="M378.97,299.27c-2.48,1.3-5.17,2.73-7.98,4.27c5.25,8.07,10.21,16.35,14.77,24.84
		c-9.63,0.29-19.29,0.14-28.9-0.37c0.07,3.2,0.18,6.25,0.29,9.04c0.12,3.23,0.41,6.68,0.67,10.2c18.71,0.93,37.48,0.13,55.86-2.76
		c-6.68-17.36-15.38-34.02-25.54-49.75C384.96,296.29,381.83,297.76,378.97,299.27z"/>
</g>
<g id="Layer_9">
	<path class="st0" d="M468.47,250c-16.1-15.82-33.06-30.7-50.51-45c7.96-21.11,15.21-42.48,21.24-64.23
		c-21.85-5.65-43.98-10.06-66.24-13.72c-3.67-22.26-8.07-44.39-13.72-66.24c-21.75,6.03-43.12,13.28-64.23,21.24
		c-14.3-17.45-29.19-34.41-45-50.51c-15.82,16.1-30.7,33.06-45,50.51c-21.11-7.96-42.48-15.21-64.23-21.24
		c-5.65,21.85-10.06,43.98-13.72,66.24c-22.26,3.66-44.39,8.07-66.24,13.72c6.03,21.75,13.28,43.12,21.24,64.23
		c-17.45,14.3-34.41,29.19-50.51,45c16.1,15.82,33.06,30.7,50.51,45c-7.96,21.11-15.21,42.48-21.24,64.23
		c21.85,5.65,43.98,10.06,66.24,13.72c3.66,22.26,8.07,44.39,13.72,66.24c21.75-6.03,43.12-13.28,64.23-21.24
		c14.3,17.45,29.19,34.41,45,50.51c15.82-16.1,30.7-33.06,45-50.51c21.11,7.96,42.48,15.21,64.23,21.24
		c5.65-21.85,10.06-43.98,13.72-66.24c22.26-3.66,44.39-8.07,66.24-13.72c-6.03-21.75-13.28-43.12-21.24-64.23
		C435.4,280.7,452.37,265.82,468.47,250z M422.55,349.62c-21.09,4.03-42.78,5.28-64.35,4.23c0.05,1.48,0.08,2.95,0.06,4.42
		c-1.46,0.02-2.94-0.01-4.41-0.06c1.05,21.56-0.2,43.26-4.23,64.35c-20.28-7.05-39.69-16.82-57.84-28.51
		c-0.69,1.31-1.41,2.6-2.15,3.85c-1.28-0.72-2.54-1.48-3.79-2.26c-9.87,19.2-21.8,37.37-35.84,53.61
		c-14.04-16.25-25.97-34.41-35.84-53.61c-1.25,0.79-2.52,1.55-3.79,2.26c-0.75-1.26-1.46-2.55-2.15-3.85
		c-18.15,11.69-37.56,21.46-57.84,28.51c-4.03-21.09-5.28-42.78-4.23-64.35c-1.48,0.05-2.95,0.08-4.41,0.06
		c-0.02-1.46,0.01-2.94,0.06-4.42c-21.56,1.05-43.26-0.2-64.35-4.23c7.05-20.28,16.82-39.69,28.51-57.84
		c-1.31-0.69-2.6-1.41-3.85-2.15c0.72-1.27,1.48-2.54,2.26-3.79C85.17,275.97,67,264.04,50.76,250
		c16.25-14.04,34.41-25.97,53.61-35.84c-0.79-1.25-1.55-2.52-2.26-3.79c1.26-0.75,2.55-1.46,3.85-2.15
		c-11.69-18.15-21.46-37.56-28.51-57.84c21.09-4.03,42.79-5.28,64.35-4.23c-0.05-1.48-0.08-2.95-0.06-4.42
		c1.46-0.02,2.94,0.01,4.41,0.06c-1.05-21.56,0.2-43.26,4.23-64.35c20.28,7.05,39.69,16.82,57.84,28.51
		c0.69-1.31,1.41-2.6,2.15-3.85c1.27,0.72,2.54,1.48,3.79,2.26c9.87-19.2,21.8-37.37,35.84-53.61
		c14.04,16.25,25.97,34.41,35.84,53.61c1.25-0.79,2.52-1.55,3.79-2.26c0.75,1.26,1.46,2.55,2.15,3.85
		c18.15-11.69,37.56-21.46,57.84-28.51c4.03,21.09,5.28,42.78,4.23,64.35c1.48-0.05,2.95-0.08,4.41-0.06
		c0.02,1.46-0.01,2.94-0.06,4.42c21.56-1.05,43.26,0.2,64.35,4.23c-7.05,20.28-16.82,39.69-28.51,57.84
		c1.31,0.69,2.6,1.41,3.85,2.15c-0.72,1.27-1.48,2.54-2.26,3.79c19.2,9.87,37.37,21.8,53.61,35.84
		c-16.25,14.04-34.41,25.97-53.61,35.84c0.79,1.25,1.55,2.52,2.26,3.79c-1.26,0.75-2.55,1.46-3.85,2.15
		C405.73,309.93,415.5,329.34,422.55,349.62z"/>
</g>
<g id="Layer_10">
	<path class="st0" d="M134.72,306.79c-3.24,4.97-6.37,10.03-9.37,15.18c5.95-0.03,11.9-0.21,17.83-0.52
		c-0.02-3.13-0.13-6.35-0.35-9.57C140.15,310.07,137.42,308.38,134.72,306.79z"/>
	<path class="st0" d="M126.25,250c-1.42-2.9-2.93-5.74-4.48-8.46c-5.29,2.69-10.53,5.5-15.7,8.46c5.17,2.95,10.41,5.77,15.7,8.46
		C123.32,255.74,124.83,252.9,126.25,250z"/>
	<path class="st0" d="M258.46,378.23c-2.72-1.54-5.56-3.06-8.46-4.48c-2.9,1.42-5.73,2.93-8.46,4.48c2.69,5.29,5.51,10.53,8.46,15.7
		C252.95,388.76,255.77,383.52,258.46,378.23z"/>
	<path class="st0" d="M134.72,193.21c2.7-1.59,5.43-3.28,8.11-5.09c0.22-3.22,0.33-6.43,0.35-9.57c-5.93-0.32-11.88-0.5-17.83-0.52
		C128.35,183.18,131.48,188.24,134.72,193.21z"/>
	<path class="st0" d="M311.87,357.17c-1.8,2.68-3.5,5.41-5.09,8.11c4.97,3.24,10.03,6.37,15.18,9.37
		c-0.03-5.95-0.21-11.9-0.52-17.83C318.31,356.84,315.1,356.95,311.87,357.17z"/>
	<path class="st0" d="M178.56,356.82c-0.32,5.93-0.5,11.88-0.52,17.83c5.14-3,10.2-6.13,15.18-9.37c-1.59-2.7-3.28-5.43-5.09-8.11
		C184.9,356.95,181.69,356.84,178.56,356.82z"/>
	<path class="st0" d="M373.75,250c1.42,2.9,2.93,5.74,4.48,8.46c5.29-2.69,10.53-5.51,15.7-8.46c-5.17-2.95-10.41-5.77-15.7-8.46
		C376.68,244.26,375.17,247.1,373.75,250z"/>
	<path class="st0" d="M365.28,193.21c3.24-4.97,6.37-10.03,9.37-15.18c-5.95,0.03-11.9,0.21-17.83,0.52
		c0.02,3.13,0.13,6.35,0.35,9.57C359.85,189.93,362.58,191.62,365.28,193.21z"/>
	<path class="st0" d="M188.13,142.83c1.81-2.68,3.5-5.41,5.09-8.11c-4.97-3.24-10.03-6.37-15.18-9.37
		c0.03,5.95,0.21,11.9,0.52,17.83C181.69,143.16,184.9,143.05,188.13,142.83z"/>
	<path class="st0" d="M321.44,143.18c0.32-5.93,0.5-11.88,0.52-17.83c-5.14,3-10.2,6.13-15.18,9.37c1.59,2.7,3.28,5.43,5.09,8.11
		C315.1,143.05,318.31,143.16,321.44,143.18z"/>
	<path class="st0" d="M241.54,121.77c2.72,1.54,5.56,3.06,8.46,4.48c2.9-1.42,5.74-2.93,8.46-4.48c-2.69-5.29-5.51-10.53-8.46-15.7
		C247.05,111.24,244.23,116.48,241.54,121.77z"/>
	<path class="st0" d="M365.28,306.79c-2.7,1.59-5.43,3.28-8.11,5.09c-0.23,3.22-0.33,6.43-0.35,9.57c5.93,0.32,11.88,0.5,17.83,0.52
		C371.65,316.82,368.52,311.76,365.28,306.79z"/>
</g>
</svg>
