<?xml version="1.0" encoding="utf-8"?>
<!-- Generator: Adobe Illustrator 22.0.1, SVG Export Plug-In . SVG Version: 6.00 Build 0)  -->
<svg version="1.1" xmlns="http://www.w3.org/2000/svg" xmlns:xlink="http://www.w3.org/1999/xlink" x="0px" y="0px"
	 viewBox="0 0 670 670" style="enable-background:new 0 0 670 670;" xml:space="preserve">
<style type="text/css">
	.st0{fill:#FFFFFF;}
</style>
<g id="Layer_2">
	<path d="M393.9,383.5c2.9-3.2,5.7-6.4,8.4-9.7c1.5-4,2.8-8.1,4.1-12.1c23.8,9.1,48.6,13.7,74.1,15c3.8,0.2,7.6,0.3,11.4,0.4
		c-3.3-1.9-6.7-3.7-10.1-5.4c-22.7-11.7-46.5-20.1-71.7-24.1c0.9-4.2,1.7-8.4,2.5-12.6c-0.7-4.2-1.6-8.4-2.5-12.6
		c25.1-4,49-12.4,71.7-24.1c3.4-1.7,6.8-3.5,10.1-5.4c-3.8,0.1-7.6,0.2-11.4,0.4c-25.5,1.3-50.3,5.9-74.1,15
		c-1.3-4.1-2.7-8.1-4.1-12.1c-2.8-3.3-5.6-6.5-8.4-9.7c19.8-16,36.2-35.2,50-56.7c2.1-3.2,4.1-6.4,6-9.7c-3.3,2-6.5,4-9.7,6
		c-21.4,13.8-40.6,30.3-56.7,50c-3.2-2.9-6.4-5.7-9.7-8.4c-4-1.5-8.1-2.8-12.1-4.1c9.1-23.8,13.7-48.6,15-74.1
		c0.2-3.8,0.3-7.6,0.4-11.4c-1.9,3.3-3.7,6.7-5.4,10.1c-11.7,22.7-20.1,46.5-24.1,71.7c-4.2-0.9-8.4-1.7-12.6-2.5
		c-4.2,0.7-8.4,1.6-12.6,2.5c-4-25.1-12.4-49-24.1-71.7c-1.7-3.4-3.5-6.8-5.4-10.1c0.1,3.8,0.2,7.6,0.4,11.4
		c1.3,25.5,5.9,50.3,15,74.1c-4.1,1.3-8.1,2.7-12.1,4.1c-3.3,2.8-6.5,5.6-9.7,8.4c-16-19.8-35.2-36.2-56.7-50
		c-3.2-2.1-6.4-4.1-9.7-6c2,3.3,4,6.5,6,9.7c13.8,21.4,30.3,40.6,50,56.7c-2.9,3.2-5.7,6.4-8.4,9.7c-1.5,4-2.9,8.1-4.1,12.1
		c-23.8-9.1-48.6-13.7-74.1-15c-3.8-0.2-7.6-0.3-11.4-0.4c3.3,1.9,6.7,3.7,10.1,5.4c22.7,11.7,46.5,20.1,71.7,24.1
		c-0.9,4.2-1.7,8.4-2.5,12.6c0.7,4.2,1.6,8.4,2.5,12.6c-25.1,4-49,12.4-71.7,24.1c-3.4,1.7-6.8,3.5-10.1,5.4
		c3.8-0.1,7.6-0.2,11.4-0.4c25.5-1.3,50.3-5.9,74.1-15c1.3,4.1,2.7,8.1,4.1,12.1c2.8,3.3,5.6,6.5,8.4,9.7
		c-19.8,16-36.2,35.2-50,56.7c-2.1,3.2-4.1,6.4-6,9.7c3.3-2,6.5-4,9.7-6c21.4-13.8,40.6-30.3,56.7-50c3.2,2.9,6.4,5.7,9.7,8.4
		c4,1.5,8.1,2.9,12.1,4.1c-9.1,23.8-13.7,48.6-15,74.1c-0.2,3.8-0.3,7.6-0.4,11.4c1.9-3.3,3.7-6.7,5.4-10.1
		c11.7-22.7,20.1-46.5,24.1-71.7c4.2,0.9,8.4,1.7,12.6,2.5c4.2-0.7,8.4-1.6,12.6-2.5c4,25.1,12.4,49,24.1,71.7
		c1.7,3.4,3.5,6.8,5.4,10.1c-0.1-3.8-0.2-7.6-0.4-11.4c-1.3-25.5-5.9-50.3-15-74.1c4.1-1.3,8.1-2.7,12.1-4.1
		c3.3-2.8,6.5-5.6,9.7-8.4c16,19.8,35.2,36.2,56.7,50c3.2,2.1,6.4,4.1,9.7,6c-2-3.3-4-6.5-6-9.7
		C430.1,418.8,413.6,399.6,393.9,383.5z M390.4,349.8c-1.4,4.8-3,9.6-4.7,14.4c-3.3,3.9-6.7,7.6-10.1,11.3
		c-3.7,3.5-7.4,6.8-11.3,10.1c-4.8,1.7-9.6,3.3-14.4,4.7c-4.9,1.2-9.9,2.2-14.8,3.1c-5-0.9-9.9-1.9-14.8-3.1
		c-4.8-1.4-9.6-3-14.4-4.7c-3.9-3.3-7.6-6.7-11.3-10.1c-3.5-3.7-6.8-7.4-10.1-11.3c-1.7-4.8-3.3-9.6-4.7-14.4
		c-1.2-4.9-2.2-9.9-3.1-14.8c0.9-5,2-9.9,3.1-14.8c1.4-4.8,3-9.6,4.7-14.4c3.3-3.9,6.7-7.6,10.1-11.3c3.7-3.5,7.4-6.8,11.3-10.1
		c4.8-1.7,9.6-3.3,14.4-4.7c4.9-1.2,9.9-2.2,14.8-3.1c5,0.9,9.9,1.9,14.8,3.1c4.8,1.4,9.6,3,14.4,4.7c3.9,3.3,7.6,6.7,11.3,10.1
		c3.5,3.7,6.8,7.4,10.1,11.3c1.7,4.8,3.3,9.6,4.7,14.4c1.2,4.9,2.2,9.9,3.1,14.8C392.6,340,391.6,344.9,390.4,349.8z"/>
	<path d="M369.7,315c-2.4-2.5-4.9-4.9-7.5-7.1c-2.3-2.6-4.6-5.1-7.1-7.5c-3.4-0.9-6.7-1.8-10.1-2.4c-3.2-1.1-6.6-2.1-9.9-2.9
		c-3.4,0.9-6.7,1.8-9.9,2.9c-3.4,0.7-6.7,1.5-10.1,2.4c-2.5,2.4-4.9,4.9-7.1,7.5c-2.6,2.3-5.1,4.6-7.5,7.1
		c-0.9,3.4-1.8,6.7-2.4,10.1c-1.1,3.2-2.1,6.6-2.9,9.9c0.9,3.4,1.8,6.7,2.9,9.9c0.7,3.4,1.5,6.7,2.4,10.1c2.4,2.5,4.9,4.9,7.5,7.1
		c2.3,2.6,4.6,5.1,7.1,7.5c3.4,0.9,6.7,1.8,10.1,2.4c3.2,1.1,6.6,2.1,9.9,2.9c3.4-0.9,6.7-1.8,9.9-2.9c3.4-0.7,6.7-1.5,10.1-2.4
		c2.5-2.4,4.9-4.9,7.1-7.5c2.6-2.3,5.1-4.6,7.5-7.1c0.9-3.4,1.8-6.7,2.4-10.1c1.1-3.2,2.1-6.6,2.9-9.9c-0.9-3.4-1.8-6.7-2.9-9.9
		C371.4,321.7,370.6,318.3,369.7,315z M357.9,341.1c-0.4,2.1-0.8,4.2-1.3,6.3c-1.6,1.5-3.2,2.9-4.8,4.3c-1.4,1.6-2.8,3.3-4.3,4.8
		c-2.1,0.5-4.2,0.9-6.3,1.3c-2,0.7-4.1,1.4-6.1,2.1c-2.1-0.6-4.1-1.3-6.1-2.1c-2.1-0.4-4.2-0.8-6.3-1.3c-1.5-1.6-2.9-3.2-4.3-4.8
		c-1.6-1.4-3.3-2.8-4.8-4.3c-0.5-2.1-0.9-4.2-1.3-6.3c-0.7-2-1.4-4.1-2.1-6.1c0.6-2.1,1.3-4.1,2.1-6.1c0.4-2.1,0.8-4.2,1.3-6.3
		c1.6-1.5,3.2-2.9,4.8-4.3c1.4-1.6,2.8-3.3,4.3-4.8c2.1-0.5,4.2-0.9,6.3-1.3c2-0.7,4.1-1.4,6.1-2.1c2.1,0.6,4.1,1.3,6.1,2.1
		c2.1,0.4,4.2,0.8,6.3,1.3c1.5,1.6,2.9,3.2,4.3,4.8c1.6,1.4,3.3,2.8,4.8,4.3c0.5,2.1,0.9,4.2,1.3,6.3c0.7,2,1.4,4.1,2.1,6.1
		C359.3,337.1,358.6,339.1,357.9,341.1z"/>
	<path d="M653.1,335c-20.9-21.8-40-45.5-58.7-69.5c4.2-30.1,8.9-60.2,16.1-89.6c-29-8.4-57.4-19.4-85.6-30.9
		c-11.5-28.2-22.4-56.6-30.9-85.6c-29.4,7.2-59.4,11.9-89.6,16.1c-24-18.7-47.7-37.8-69.5-58.7c-21.8,20.9-45.5,40-69.5,58.7
		c-30.1-4.2-60.2-8.9-89.6-16.1c-8.4,29-19.4,57.4-30.9,85.6c-28.2,11.5-56.6,22.4-85.6,30.9c7.2,29.4,11.9,59.4,16.1,89.6
		c-18.7,24-37.8,47.7-58.7,69.5c20.9,21.8,40,45.5,58.7,69.5c-4.2,30.1-8.9,60.2-16.1,89.6c29,8.4,57.4,19.4,85.6,30.9
		c11.5,28.2,22.4,56.6,30.9,85.6c29.4-7.2,59.4-11.9,89.6-16.1c24,18.7,47.7,37.8,69.5,58.7c21.8-20.9,45.5-40,69.5-58.7
		c30.1,4.2,60.2,8.9,89.6,16.1c8.4-29,19.4-57.4,30.9-85.6c28.2-11.5,56.6-22.4,85.6-30.9c-7.2-29.4-11.9-59.4-16.1-89.6
		C613.1,380.5,632.2,356.8,653.1,335z M540.8,173.5c11.8,4.3,23.7,8.5,35.7,12.3c-8.2,2.2-15.9,7-22.6,15.7
		c-2.7,3.5-4.9,7.2-6.6,10.9c4.1,0.4,8.3,0.4,12.8-0.2c10.9-1.5,18.9-5.7,24.9-11.7c-2.7,12.3-5,24.6-7.2,37
		c-13.1,27.7-50.5,15.4-72,1.9c-0.8-0.5-1.7-1.1-2.5-1.6c-0.1-1-0.1-2-0.1-3C502.3,209.5,510.3,171,540.8,173.5z M573.7,197.2
		c-1.2,0.8-2.5,1.6-3.9,2.2C571,198.6,572.3,197.9,573.7,197.2z M472.8,96.3c-0.6,1.3-1.4,2.6-2.2,3.9
		C471.2,98.9,472,97.6,472.8,96.3z M432.5,92.2c12.4-2.2,24.8-4.5,37-7.2c-6,6.1-10.3,14-11.7,24.9c-0.6,4.4-0.6,8.7-0.2,12.8
		c3.7-1.7,7.4-3.8,10.9-6.6c8.7-6.7,13.5-14.4,15.7-22.6c3.8,12,8,23.9,12.3,35.7c2.5,30.5-36,38.5-61.4,37.7c-1,0-2-0.1-3-0.1
		c-0.5-0.8-1.1-1.7-1.6-2.5C417.1,142.6,404.8,105.3,432.5,92.2z M436.7,176.7c-0.4,0.4-0.8,0.7-1.2,1.1c0.1-0.4,0.2-0.8,0.3-1.1
		C436.1,176.7,436.4,176.6,436.7,176.7z M425.5,178.3c-4.1,17-10.4,32.3-24.1,41.8C402.7,203.5,412.8,190.4,425.5,178.3z
		 M420.9,169.3c0.2-0.5,0.3-1.1,0.4-1.6c0.2,0.3,0.3,0.5,0.5,0.8C421.5,168.8,421.2,169.1,420.9,169.3z M335,59.4
		c0.1,1.5,0.1,3,0,4.5C334.9,62.4,334.9,60.9,335,59.4z M298,76c9.7-8.1,19.2-16.3,28.5-24.8c-2.2,8.2-1.9,17.2,2.3,27.5
		c1.7,4.1,3.8,7.8,6.2,11.1c2.4-3.3,4.5-7,6.2-11.1c4.2-10.2,4.5-19.2,2.3-27.5c9.3,8.5,18.8,16.7,28.5,24.8
		c17.4,25.2-11.9,51.4-34.3,63.3c-0.9,0.5-1.8,0.9-2.7,1.4c-0.9-0.5-1.8-0.9-2.7-1.4C309.9,127.4,280.6,101.2,298,76z M343.9,147
		c-0.2,0.5-0.3,1-0.4,1.6c-0.1-0.4-0.2-0.7-0.3-1.1C343.4,147.3,343.6,147.2,343.9,147z M335,202.3c-7.1-15-4.9-31.4,0-48.2
		C339.9,170.9,342.1,187.3,335,202.3z M326.9,147.5c-0.1,0.4-0.2,0.8-0.3,1.1c-0.1-0.5-0.3-1.1-0.4-1.6
		C326.4,147.2,326.6,147.3,326.9,147.5z M199.5,100.2c-0.9-1.3-1.6-2.6-2.2-3.9C198,97.6,198.8,98.9,199.5,100.2z M173.5,129.2
		c4.3-11.8,8.5-23.7,12.3-35.7c2.2,8.2,7,15.9,15.7,22.6c3.5,2.7,7.2,4.9,10.9,6.6c0.4-4.1,0.4-8.3-0.2-12.8
		c-1.5-10.9-5.7-18.9-11.7-24.9c12.3,2.7,24.6,5,37,7.2c27.7,13.1,15.4,50.5,1.9,72c-0.5,0.8-1.1,1.7-1.6,2.5c-1,0.1-2,0.1-3,0.1
		C209.5,167.7,171,159.7,173.5,129.2z M268.7,220.1c-13.7-9.5-20-24.8-24.1-41.8C257.2,190.4,267.3,203.5,268.7,220.1z M248.3,168.5
		c0.2-0.3,0.3-0.5,0.5-0.8c0.1,0.5,0.3,1.1,0.4,1.6C248.8,169.1,248.5,168.8,248.3,168.5z M234.5,177.8c-0.4-0.4-0.8-0.8-1.2-1.1
		c0.3,0,0.6,0,0.9,0C234.3,177,234.4,177.4,234.5,177.8z M109.9,212.2c4.4,0.6,8.7,0.6,12.8,0.2c-1.7-3.7-3.8-7.4-6.6-10.9
		c-6.7-8.7-14.4-13.5-22.6-15.7c12-3.8,23.9-8,35.7-12.3c30.5-2.5,38.5,36,37.7,61.4c0,1-0.1,2-0.1,3c-0.8,0.5-1.7,1.1-2.5,1.6
		c-21.6,13.4-58.9,25.7-72-1.9c-2.2-12.4-4.5-24.8-7.2-37C91.1,206.5,99,210.7,109.9,212.2z M96.3,197.2c1.3,0.6,2.6,1.4,3.9,2.2
		C98.9,198.8,97.6,198,96.3,197.2z M51.2,343.5c8.2,2.2,17.2,1.9,27.5-2.3c4.1-1.7,7.8-3.8,11.1-6.2c-3.3-2.4-7-4.5-11.1-6.2
		c-10.2-4.2-19.2-4.5-27.5-2.3c8.5-9.3,16.7-18.8,24.8-28.5c25.2-17.4,51.4,11.9,63.3,34.3c0.5,0.9,0.9,1.8,1.4,2.7
		c-0.5,0.9-0.9,1.8-1.4,2.7c-12,22.4-38.1,51.7-63.3,34.3C67.9,362.3,59.7,352.8,51.2,343.5z M59.4,335c1.5-0.1,3-0.1,4.5,0
		C62.4,335.1,60.9,335.1,59.4,335z M129.2,496.5c-11.8-4.3-23.7-8.5-35.7-12.3c8.2-2.2,15.9-7,22.6-15.7c2.7-3.5,4.9-7.2,6.6-10.9
		c-4.1-0.4-8.3-0.4-12.8,0.2c-10.9,1.5-18.9,5.7-24.9,11.7c2.7-12.3,5-24.6,7.2-37c13.1-27.7,50.5-15.4,72-1.9
		c0.8,0.5,1.7,1.1,2.5,1.6c0.1,1,0.1,2,0.1,3C167.7,460.5,159.7,499,129.2,496.5z M96.3,472.8c1.2-0.8,2.5-1.6,3.9-2.2
		C99,471.4,97.7,472.1,96.3,472.8z M197.2,573.7c0.6-1.3,1.4-2.6,2.2-3.9C198.8,571.1,198,572.4,197.2,573.7z M237.5,577.8
		c-12.4,2.2-24.8,4.5-37,7.2c6-6.1,10.3-14,11.7-24.9c0.6-4.4,0.6-8.7,0.2-12.8c-3.7,1.7-7.4,3.8-10.9,6.6
		c-8.7,6.7-13.5,14.4-15.7,22.6c-3.8-12-8-23.9-12.3-35.7c-2.5-30.5,36-38.5,61.4-37.7c1,0,2,0.1,3,0.1c0.5,0.8,1.1,1.7,1.6,2.5
		C252.9,527.3,265.2,564.7,237.5,577.8z M233.3,493.3c0.4-0.4,0.8-0.7,1.2-1.1c-0.1,0.4-0.2,0.8-0.3,1.1
		C233.9,493.3,233.6,493.4,233.3,493.3z M244.5,491.7c4.1-17,10.4-32.3,24.1-41.8C267.3,466.5,257.2,479.6,244.5,491.7z
		 M249.1,500.7c-0.2,0.5-0.3,1.1-0.4,1.6c-0.2-0.3-0.3-0.5-0.5-0.8C248.5,501.2,248.8,500.9,249.1,500.7z M335,610.6
		c-0.1-1.5-0.1-3,0-4.5C335.1,607.6,335.1,609.1,335,610.6z M372,594c-9.7,8.1-19.2,16.3-28.5,24.8c2.2-8.2,1.9-17.2-2.3-27.5
		c-1.7-4.1-3.8-7.8-6.2-11.1c-2.4,3.3-4.5,7-6.2,11.1c-4.2,10.2-4.5,19.2-2.3,27.5c-9.3-8.5-18.8-16.7-28.5-24.8
		c-17.4-25.2,11.9-51.4,34.3-63.3c0.9-0.5,1.8-0.9,2.7-1.4c0.9,0.5,1.8,0.9,2.7,1.4C360.1,542.6,389.4,568.8,372,594z M326.1,523
		c0.2-0.5,0.3-1,0.4-1.6c0.1,0.4,0.2,0.7,0.3,1.1C326.6,522.7,326.4,522.8,326.1,523z M335,467.7c7.1,15,4.9,31.4,0,48.2
		C330.1,499.1,327.9,482.7,335,467.7z M343.1,522.5c0.1-0.4,0.2-0.7,0.3-1.1c0.1,0.5,0.3,1.1,0.4,1.6
		C343.6,522.8,343.4,522.7,343.1,522.5z M470.5,569.8c0.9,1.3,1.6,2.6,2.2,3.9C472,572.4,471.2,571.1,470.5,569.8z M496.5,540.8
		c-4.3,11.8-8.5,23.7-12.3,35.7c-2.2-8.2-7-15.9-15.7-22.6c-3.5-2.7-7.2-4.9-10.9-6.6c-0.4,4.1-0.4,8.3,0.2,12.8
		c1.5,10.9,5.7,18.9,11.7,24.9c-12.3-2.7-24.6-5-37-7.2c-27.7-13.1-15.4-50.5-1.9-72c0.5-0.8,1.1-1.7,1.6-2.5c1-0.1,2-0.1,3-0.1
		C460.5,502.3,499,510.3,496.5,540.8z M401.3,449.9c13.7,9.5,20,24.8,24.1,41.8C412.8,479.6,402.7,466.5,401.3,449.9z M421.7,501.5
		c-0.2,0.3-0.3,0.5-0.5,0.8c-0.1-0.5-0.3-1.1-0.4-1.6C421.2,500.9,421.5,501.2,421.7,501.5z M435.5,492.2c0.4,0.4,0.8,0.8,1.2,1.1
		c-0.3,0-0.6,0-0.9,0C435.7,493,435.6,492.6,435.5,492.2z M508.7,508.7c-1.1,2.7-2.1,5.5-3.2,8.2c-7.4-11.6-21.6-18-34.8-21.7
		c-8.8-2.5-21.1-1.9-28.1-8.5c-7.7-7.3-12.3-19.7-18.8-28.2c-8.5-11-18.9-20.1-31.7-24.8c-2.3,13.4,0.3,27,5.6,39.9
		c4.1,9.9,12.5,20.1,15,30.4c2.2,9.4-4.4,19.8-6.7,28.6c-3.4,13.3-4.9,28.8,1.4,41c-2.9-0.5-5.8-0.9-8.7-1.4
		c-2.3,1.8-4.6,3.7-6.9,5.5c-0.6-13.7-9.7-26.4-19.3-36.2c-6.4-6.5-17.3-12.2-20.1-21.4c-3.1-10.2-0.8-23.2-2.2-33.8
		c-1.8-13.8-6.3-26.9-15.1-37.4c-8.7,10.5-13.2,23.6-15.1,37.4c-1.4,10.6,0.8,23.6-2.2,33.8c-2.8,9.3-13.7,14.9-20.1,21.4
		c-9.6,9.8-18.7,22.5-19.3,36.2c-2.3-1.9-4.6-3.7-6.9-5.5c-2.9,0.4-5.8,0.9-8.7,1.4c6.3-12.2,4.8-27.7,1.4-41
		c-2.3-8.9-8.9-19.2-6.7-28.6c2.5-10.4,10.9-20.5,15-30.4c5.3-12.9,8-26.5,5.6-39.9c-12.8,4.7-23.2,13.8-31.7,24.8
		c-6.6,8.5-11.1,20.9-18.8,28.2c-7,6.6-19.3,6-28.1,8.5c-13.2,3.7-27.4,10.1-34.8,21.7c-1.1-2.8-2.1-5.5-3.2-8.2
		c-2.7-1.1-5.5-2.1-8.2-3.2c11.6-7.4,18-21.6,21.7-34.8c2.5-8.8,1.9-21.1,8.5-28.1c7.3-7.7,19.7-12.3,28.2-18.8
		c11-8.5,20.1-18.9,24.8-31.7c-13.4-2.3-27,0.3-39.9,5.6c-9.9,4.1-20.1,12.5-30.4,15c-9.4,2.2-19.8-4.4-28.6-6.7
		c-13.3-3.4-28.8-4.9-41,1.4c0.5-2.9,0.9-5.8,1.4-8.7c-1.8-2.3-3.7-4.6-5.5-6.9c13.7-0.6,26.4-9.7,36.2-19.3
		c6.5-6.4,12.2-17.3,21.4-20.1c10.2-3.1,23.2-0.8,33.8-2.2c13.8-1.8,26.9-6.3,37.4-15.1c-10.5-8.7-23.6-13.2-37.4-15.1
		c-10.6-1.4-23.6,0.8-33.8-2.2c-9.3-2.8-14.9-13.7-21.4-20.1c-9.8-9.6-22.5-18.7-36.2-19.3c1.9-2.3,3.7-4.6,5.5-6.9
		c-0.4-2.9-0.9-5.8-1.4-8.7c12.2,6.3,27.7,4.8,41,1.4c8.9-2.3,19.2-8.9,28.6-6.7c10.4,2.5,20.5,10.9,30.4,15
		c12.9,5.3,26.5,8,39.9,5.6c-4.7-12.8-13.8-23.2-24.8-31.7c-8.5-6.6-20.9-11.1-28.2-18.8c-6.6-7-6-19.3-8.5-28.1
		c-3.7-13.2-10.1-27.4-21.7-34.8c2.8-1.1,5.5-2.1,8.2-3.2c1.1-2.7,2.1-5.5,3.2-8.2c7.4,11.6,21.6,18,34.8,21.7
		c8.8,2.5,21.1,1.9,28.1,8.5c7.7,7.3,12.3,19.7,18.8,28.2c8.5,11,18.9,20.1,31.7,24.8c2.3-13.4-0.3-27-5.6-39.9
		c-4.1-9.9-12.5-20.1-15-30.4c-2.2-9.4,4.4-19.8,6.7-28.6c3.4-13.3,4.9-28.8-1.4-41c2.9,0.5,5.8,0.9,8.7,1.4
		c2.3-1.8,4.6-3.7,6.9-5.5c0.6,13.7,9.7,26.4,19.3,36.2c6.4,6.5,17.3,12.2,20.1,21.4c3.1,10.2,0.8,23.2,2.2,33.8
		c1.8,13.8,6.3,26.9,15.1,37.4c8.7-10.5,13.2-23.6,15.1-37.4c1.4-10.6-0.8-23.6,2.2-33.8c2.8-9.3,13.7-14.9,20.1-21.4
		c9.6-9.8,18.7-22.5,19.3-36.2c2.3,1.9,4.6,3.7,6.9,5.5c2.9-0.4,5.8-0.9,8.7-1.4c-6.3,12.2-4.8,27.7-1.4,41
		c2.3,8.9,8.9,19.2,6.7,28.6c-2.5,10.4-10.9,20.5-15,30.4c-5.3,12.9-8,26.5-5.6,39.9c12.8-4.7,23.2-13.8,31.7-24.8
		c6.6-8.5,11.1-20.9,18.8-28.2c7-6.6,19.3-6,28.1-8.5c13.2-3.7,27.4-10.1,34.8-21.7c1.1,2.8,2.1,5.5,3.2,8.2
		c2.7,1.1,5.5,2.1,8.2,3.2c-11.6,7.4-18,21.6-21.7,34.8c-2.5,8.8-1.9,21.1-8.5,28.1c-7.3,7.7-19.7,12.3-28.2,18.8
		c-11,8.5-20.1,18.9-24.8,31.7c13.4,2.3,27-0.3,39.9-5.6c9.9-4.1,20.1-12.5,30.4-15c9.4-2.2,19.8,4.4,28.6,6.7
		c13.3,3.4,28.8,4.9,41-1.4c-0.5,2.9-0.9,5.8-1.4,8.7c1.8,2.3,3.7,4.6,5.5,6.9c-13.7,0.6-26.4,9.7-36.2,19.3
		c-6.5,6.4-12.2,17.3-21.4,20.1c-10.2,3.1-23.2,0.8-33.8,2.2c-13.8,1.8-26.9,6.3-37.4,15.1c10.5,8.7,23.6,13.2,37.4,15.1
		c10.6,1.4,23.6-0.8,33.8,2.2c9.3,2.8,14.9,13.7,21.4,20.1c9.8,9.6,22.5,18.7,36.2,19.3c-1.9,2.3-3.7,4.6-5.5,6.9
		c0.4,2.9,0.9,5.8,1.4,8.7c-12.2-6.3-27.7-4.8-41-1.4c-8.9,2.3-19.2,8.9-28.6,6.7c-10.4-2.5-20.5-10.9-30.4-15
		c-12.9-5.3-26.5-8-39.9-5.6c4.7,12.8,13.8,23.2,24.8,31.7c8.5,6.6,20.9,11.1,28.2,18.8c6.6,7,6,19.3,8.5,28.1
		c3.7,13.2,10.1,27.4,21.7,34.8C514.2,506.6,511.5,507.7,508.7,508.7z M167.8,421.3c0.5-0.1,1.1-0.3,1.6-0.4
		c-0.3,0.3-0.5,0.6-0.8,0.9C168.3,421.6,168,421.4,167.8,421.3z M176.6,435.8c0.4-0.1,0.8-0.2,1.1-0.3c-0.4,0.4-0.8,0.8-1.1,1.2
		C176.6,436.4,176.7,436.1,176.6,435.8z M178.3,425.5c12.1-12.6,25.2-22.7,41.8-24.1C210.6,415,195.3,421.3,178.3,425.5z
		 M147.5,343.1c0.4,0.1,0.7,0.2,1.1,0.3c-0.5,0.1-1.1,0.3-1.6,0.4C147.2,343.6,147.3,343.4,147.5,343.1z M147,326.1
		c0.5,0.2,1,0.3,1.6,0.4c-0.4,0.1-0.7,0.2-1.1,0.3C147.3,326.6,147.2,326.4,147,326.1z M154.1,335c16.8-4.9,33.2-7.1,48.2,0
		C187.3,342.1,170.9,339.9,154.1,335z M167.8,248.7c0.3-0.2,0.5-0.3,0.8-0.4c0.3,0.3,0.5,0.6,0.8,0.9
		C168.8,249,168.3,248.8,167.8,248.7z M176.6,234.2c0-0.3,0-0.6,0-0.9c0.4,0.4,0.7,0.8,1.1,1.2C177.4,234.4,177,234.3,176.6,234.2z
		 M178.3,244.5c17,4.1,32.3,10.4,41.8,24.1C203.5,267.3,190.4,257.2,178.3,244.5z M502.2,248.7c-0.5,0.1-1.1,0.3-1.6,0.4
		c0.3-0.3,0.5-0.6,0.8-0.9C501.7,248.4,502,248.6,502.2,248.7z M493.4,234.2c-0.4,0.1-0.8,0.2-1.1,0.3c0.4-0.4,0.8-0.8,1.1-1.2
		C493.4,233.6,493.3,233.9,493.4,234.2z M491.7,244.5c-12.1,12.6-25.2,22.7-41.8,24.1C459.4,255,474.7,248.7,491.7,244.5z
		 M522.5,326.9c-0.4-0.1-0.8-0.2-1.1-0.3c0.5-0.1,1.1-0.3,1.6-0.4C522.8,326.4,522.7,326.6,522.5,326.9z M523,343.9
		c-0.5-0.2-1-0.3-1.6-0.4c0.4-0.1,0.7-0.2,1.1-0.3C522.7,343.4,522.8,343.6,523,343.9z M515.9,335c-16.8,4.9-33.2,7.1-48.2,0
		C482.7,327.9,499.1,330.1,515.9,335z M502.2,421.3c-0.3,0.2-0.5,0.3-0.8,0.5c-0.3-0.3-0.5-0.6-0.8-0.9
		C501.2,421,501.7,421.2,502.2,421.3z M493.4,435.8c0,0.3,0,0.6,0,0.9c-0.4-0.4-0.7-0.8-1.1-1.2C492.6,435.6,493,435.7,493.4,435.8z
		 M491.7,425.5c-17-4.1-32.3-10.4-41.8-24.1C466.5,402.7,479.6,412.8,491.7,425.5z M560.1,457.8c-4.4-0.6-8.7-0.6-12.8-0.2
		c1.7,3.7,3.8,7.4,6.6,10.9c6.7,8.7,14.4,13.5,22.6,15.7c-12,3.8-23.9,8-35.7,12.3c-30.5,2.5-38.5-36-37.7-61.4c0-1,0.1-2,0.1-3
		c0.8-0.5,1.7-1.1,2.5-1.6c21.6-13.4,58.9-25.7,72,1.9c2.2,12.4,4.5,24.8,7.2,37C578.9,463.5,571,459.3,560.1,457.8z M573.7,472.8
		c-1.3-0.6-2.6-1.4-3.9-2.2C571.1,471.2,572.4,472,573.7,472.8z M530.7,337.7c-0.5-0.9-0.9-1.8-1.4-2.7c0.5-0.9,0.9-1.8,1.4-2.7
		c12-22.4,38.1-51.7,63.3-34.3c8.1,9.7,16.3,19.2,24.8,28.5c-8.2-2.2-17.2-1.9-27.5,2.3c-4.1,1.7-7.8,3.8-11.1,6.2
		c3.3,2.4,7,4.5,11.1,6.2c10.2,4.2,19.2,4.5,27.5,2.3c-8.5,9.3-16.7,18.8-24.8,28.5C568.8,389.4,542.6,360.1,530.7,337.7z
		 M610.6,335c-1.5,0.1-3,0.1-4.5,0C607.6,334.9,609.1,334.9,610.6,335z"/>
	<g id="Layer_7">
		<path d="M244.5,491.7c12.6-12.1,22.7-25.2,24.1-41.8C255,459.4,248.7,474.7,244.5,491.7z"/>
		<path d="M335,467.7c-7.1,15-4.9,31.4,0,48.2C339.9,499.1,342.1,482.7,335,467.7z"/>
		<path d="M335,202.3c7.1-15,4.9-31.4,0-48.2C330.1,170.9,327.9,187.3,335,202.3z"/>
		<path d="M425.5,178.3c-12.6,12.1-22.7,25.2-24.1,41.8C415,210.6,421.3,195.3,425.5,178.3z"/>
		<path d="M244.5,178.3c4.1,17,10.4,32.3,24.1,41.8C267.3,203.5,257.2,190.4,244.5,178.3z"/>
		<path d="M467.7,335c15,7.1,31.4,4.9,48.2,0C499.1,330.1,482.7,327.9,467.7,335z"/>
		<path d="M449.9,268.7c16.6-1.4,29.7-11.5,41.8-24.1C474.7,248.7,459.4,255,449.9,268.7z"/>
		<path d="M491.7,425.5c-12.1-12.6-25.2-22.7-41.8-24.1C459.4,415,474.7,421.3,491.7,425.5z"/>
		<path d="M425.5,491.7c-4.1-17-10.4-32.3-24.1-41.8C402.7,466.5,412.8,479.6,425.5,491.7z"/>
		<path d="M202.3,335c-15-7.1-31.4-4.9-48.2,0C170.9,339.9,187.3,342.1,202.3,335z"/>
		<path d="M178.3,244.5c12.1,12.6,25.2,22.7,41.8,24.1C210.6,255,195.3,248.7,178.3,244.5z"/>
		<path d="M220.1,401.3c-16.6,1.4-29.7,11.5-41.8,24.1C195.3,421.3,210.6,415,220.1,401.3z"/>
	</g>
</g>
<g id="Layer_8">
	<g>
		<path class="st0" d="M237.9,503.3c-1-0.1-2-0.1-3-0.1c-25.4-0.8-63.9,7.2-61.4,37.7c4.3,11.8,8.5,23.7,12.3,35.7
			c2.2-8.2,7-15.9,15.7-22.6c3.5-2.7,7.2-4.9,10.9-6.6c0.4,4.1,0.4,8.3-0.2,12.8c-1.5,10.9-5.7,18.9-11.7,24.9
			c12.3-2.7,24.6-5,37-7.2c27.7-13.1,15.4-50.5,1.9-72C238.9,504.9,238.4,504.1,237.9,503.3z"/>
		<path class="st0" d="M166.9,435.1c0-1-0.1-2-0.1-3c-0.8-0.5-1.7-1.1-2.5-1.6c-21.6-13.4-58.9-25.7-72,1.9
			c-2.2,12.4-4.5,24.8-7.2,37c6.1-6,14-10.3,24.9-11.7c4.4-0.6,8.7-0.6,12.8-0.2c-1.7,3.7-3.8,7.4-6.6,10.9
			c-6.7,8.7-14.4,13.5-22.6,15.7c12,3.8,23.9,8,35.7,12.3C159.7,499,167.7,460.5,166.9,435.1z"/>
		<path class="st0" d="M337.7,530.7c-0.9-0.5-1.8-0.9-2.7-1.4c-0.9,0.5-1.8,0.9-2.7,1.4c-22.4,12-51.7,38.1-34.3,63.3
			c9.7,8.1,19.2,16.3,28.5,24.8c-2.2-8.2-1.9-17.2,2.3-27.5c1.7-4.1,3.8-7.8,6.2-11.1c2.4,3.3,4.5,7,6.2,11.1
			c4.2,10.2,4.5,19.2,2.3,27.5c9.3-8.5,18.8-16.7,28.5-24.8C389.4,568.8,360.1,542.6,337.7,530.7z"/>
		<path class="st0" d="M139.3,337.7c0.5-0.9,0.9-1.8,1.4-2.7c-0.5-0.9-0.9-1.8-1.4-2.7c-12-22.4-38.1-51.7-63.3-34.3
			c-8.1,9.7-16.3,19.2-24.8,28.5c8.2-2.2,17.2-1.9,27.5,2.3c4.1,1.7,7.8,3.8,11.1,6.2c-3.3,2.4-7,4.5-11.1,6.2
			c-10.2,4.2-19.2,4.5-27.5,2.3c8.5,9.3,16.7,18.8,24.8,28.5C101.2,389.4,127.4,360.1,139.3,337.7z"/>
		<path class="st0" d="M332.3,139.3c0.9,0.5,1.8,0.9,2.7,1.4c0.9-0.5,1.8-0.9,2.7-1.4c22.4-12,51.7-38.1,34.3-63.3
			c-9.7-8.1-19.2-16.3-28.5-24.8c2.2,8.2,1.9,17.2-2.3,27.5c-1.7,4.1-3.8,7.8-6.2,11.1c-2.4-3.3-4.5-7-6.2-11.1
			c-4.2-10.2-4.5-19.2-2.3-27.5c-9.3,8.5-18.8,16.7-28.5,24.8C280.6,101.2,309.9,127.4,332.3,139.3z"/>
		<path class="st0" d="M432.1,166.7c1,0.1,2,0.1,3,0.1c25.4,0.8,63.9-7.2,61.4-37.7c-4.3-11.8-8.5-23.7-12.3-35.7
			c-2.2,8.2-7,15.9-15.7,22.6c-3.5,2.7-7.2,4.9-10.9,6.6c-0.4-4.1-0.4-8.3,0.2-12.8c1.5-10.9,5.7-18.9,11.7-24.9
			c-12.3,2.7-24.6,5-37,7.2c-27.7,13.1-15.4,50.5-1.9,72C431.1,165.1,431.6,165.9,432.1,166.7z"/>
		<path class="st0" d="M92.2,237.5c13.1,27.7,50.5,15.4,72,1.9c0.8-0.5,1.7-1.1,2.5-1.6c0.1-1,0.1-2,0.1-3
			c0.8-25.4-7.2-63.9-37.7-61.4c-11.8,4.3-23.7,8.5-35.7,12.3c8.2,2.2,15.9,7,22.6,15.7c2.7,3.5,4.9,7.2,6.6,10.9
			c-4.1,0.4-8.3,0.4-12.8-0.2c-10.9-1.5-18.9-5.7-24.9-11.7C87.7,212.7,90,225.1,92.2,237.5z"/>
		<path class="st0" d="M435.1,503.1c-1,0-2,0.1-3,0.1c-0.5,0.8-1.1,1.7-1.6,2.5c-13.4,21.6-25.7,58.9,1.9,72
			c12.4,2.2,24.8,4.5,37,7.2c-6-6.1-10.3-14-11.7-24.9c-0.6-4.4-0.6-8.7-0.2-12.8c3.7,1.7,7.4,3.8,10.9,6.6
			c8.7,6.7,13.5,14.4,15.7,22.6c3.8-12,8-23.9,12.3-35.7C499,510.3,460.5,502.3,435.1,503.1z"/>
		<path class="st0" d="M234.9,166.9c1,0,2-0.1,3-0.1c0.5-0.8,1.1-1.7,1.6-2.5c13.4-21.6,25.7-58.9-1.9-72c-12.4-2.2-24.8-4.5-37-7.2
			c6,6.1,10.3,14,11.7,24.9c0.6,4.4,0.6,8.7,0.2,12.8c-3.7-1.7-7.4-3.8-10.9-6.6c-8.7-6.7-13.5-14.4-15.7-22.6
			c-3.8,12-8,23.9-12.3,35.7C171,159.7,209.5,167.7,234.9,166.9z"/>
		<path class="st0" d="M591.3,341.2c-4.1-1.7-7.8-3.8-11.1-6.2c3.3-2.4,7-4.5,11.1-6.2c10.2-4.2,19.2-4.5,27.5-2.3
			c-8.5-9.3-16.7-18.8-24.8-28.5c-25.2-17.4-51.4,11.9-63.3,34.3c-0.5,0.9-0.9,1.8-1.4,2.7c0.5,0.9,0.9,1.8,1.4,2.7
			c12,22.4,38.1,51.7,63.3,34.3c8.1-9.7,16.3-19.2,24.8-28.5C610.5,345.7,601.5,345.4,591.3,341.2z"/>
		<path class="st0" d="M503.1,234.9c0,1,0.1,2,0.1,3c0.8,0.5,1.7,1.1,2.5,1.6c21.6,13.4,58.9,25.7,72-1.9c2.2-12.4,4.5-24.8,7.2-37
			c-6.1,6-14,10.3-24.9,11.7c-4.4,0.6-8.7,0.6-12.8,0.2c1.7-3.7,3.8-7.4,6.6-10.9c6.7-8.7,14.4-13.5,22.6-15.7
			c-12-3.8-23.9-8-35.7-12.3C510.3,171,502.3,209.5,503.1,234.9z"/>
		<path class="st0" d="M577.8,432.5c-13.1-27.7-50.5-15.4-72-1.9c-0.8,0.5-1.7,1.1-2.5,1.6c-0.1,1-0.1,2-0.1,3
			c-0.8,25.4,7.2,63.9,37.7,61.4c11.8-4.3,23.7-8.5,35.7-12.3c-8.2-2.2-15.9-7-22.6-15.7c-2.7-3.5-4.9-7.2-6.6-10.9
			c4.1-0.4,8.3-0.4,12.8,0.2c10.9,1.5,18.9,5.7,24.9,11.7C582.3,457.3,580,444.9,577.8,432.5z"/>
	</g>
</g>
<g id="Layer_3">
	<path class="st0" d="M356.6,322.5c-1.6-1.5-3.2-2.9-4.8-4.3c-1.4-1.6-2.8-3.3-4.3-4.8c-2.1-0.5-4.2-0.9-6.3-1.3
		c-2-0.7-4.1-1.4-6.1-2.1c-2.1,0.6-4.1,1.3-6.1,2.1c-2.1,0.4-4.2,0.8-6.3,1.3c-1.5,1.6-2.9,3.2-4.3,4.8c-1.6,1.4-3.3,2.8-4.8,4.3
		c-0.5,2.1-0.9,4.2-1.3,6.3c-0.7,2-1.4,4.1-2.1,6.1c0.6,2.1,1.3,4.1,2.1,6.1c0.4,2.1,0.8,4.2,1.3,6.3c1.6,1.5,3.2,2.9,4.8,4.3
		c1.4,1.6,2.8,3.3,4.3,4.8c2.1,0.5,4.2,0.9,6.3,1.3c2,0.7,4.1,1.4,6.1,2.1c2.1-0.6,4.1-1.3,6.1-2.1c2.1-0.4,4.2-0.8,6.3-1.3
		c1.5-1.6,2.9-3.2,4.3-4.8c1.6-1.4,3.3-2.8,4.8-4.3c0.5-2.1,0.9-4.2,1.3-6.3c0.7-2,1.4-4.1,2.1-6.1c-0.6-2.1-1.3-4.1-2.1-6.1
		C357.5,326.8,357.1,324.6,356.6,322.5z"/>
</g>
<g id="Layer_4">
	<path class="st0" d="M495.3,470.7c-2.5-8.8-1.9-21.1-8.5-28.1c-7.3-7.7-19.7-12.3-28.2-18.8c-11-8.5-20.1-18.9-24.8-31.7
		c13.4-2.3,27,0.3,39.9,5.6c9.9,4.1,20.1,12.5,30.4,15c9.4,2.2,19.8-4.4,28.6-6.7c13.3-3.4,28.8-4.9,41,1.4
		c-0.5-2.9-0.9-5.8-1.4-8.7c1.8-2.3,3.7-4.6,5.5-6.9c-13.7-0.6-26.4-9.7-36.2-19.3c-6.5-6.4-12.2-17.3-21.4-20.1
		c-10.2-3.1-23.2-0.8-33.8-2.2c-13.8-1.8-26.9-6.3-37.4-15.1c10.5-8.7,23.6-13.2,37.4-15.1c10.6-1.4,23.6,0.8,33.8-2.2
		c9.3-2.8,14.9-13.7,21.4-20.1c9.8-9.6,22.5-18.7,36.2-19.3c-1.9-2.3-3.7-4.6-5.5-6.9c0.4-2.9,0.9-5.8,1.4-8.7
		c-12.2,6.3-27.7,4.8-41,1.4c-8.9-2.3-19.2-8.9-28.6-6.7c-10.4,2.5-20.5,10.9-30.4,15c-12.9,5.3-26.5,8-39.9,5.6
		c4.7-12.8,13.8-23.2,24.8-31.7c8.5-6.6,20.9-11.1,28.2-18.8c6.6-7,6-19.3,8.5-28.1c3.7-13.2,10.1-27.4,21.7-34.8
		c-2.8-1.1-5.5-2.1-8.2-3.2c-1.1-2.7-2.1-5.5-3.2-8.2c-7.4,11.6-21.6,18-34.8,21.7c-8.8,2.5-21.1,1.9-28.1,8.5
		c-7.7,7.3-12.3,19.7-18.8,28.2c-8.5,11-18.9,20.1-31.7,24.8c-2.3-13.4,0.3-27,5.6-39.9c4.1-9.9,12.5-20.1,15-30.4
		c2.2-9.4-4.4-19.8-6.7-28.6c-3.4-13.3-4.9-28.8,1.4-41c-2.9,0.5-5.8,0.9-8.7,1.4c-2.3-1.8-4.6-3.7-6.9-5.5
		c-0.6,13.7-9.7,26.4-19.3,36.2c-6.4,6.5-17.3,12.2-20.1,21.4c-3.1,10.2-0.8,23.2-2.2,33.8c-1.8,13.8-6.3,26.9-15.1,37.4
		c-8.7-10.5-13.2-23.6-15.1-37.4c-1.4-10.6,0.8-23.6-2.2-33.8c-2.8-9.3-13.7-14.9-20.1-21.4c-9.6-9.8-18.7-22.5-19.3-36.2
		c-2.3,1.9-4.6,3.7-6.9,5.5c-2.9-0.4-5.8-0.9-8.7-1.4c6.3,12.2,4.8,27.7,1.4,41c-2.3,8.9-8.9,19.2-6.7,28.6
		c2.5,10.4,10.9,20.5,15,30.4c5.3,12.9,8,26.5,5.6,39.9c-12.8-4.7-23.2-13.8-31.7-24.8c-6.6-8.5-11.1-20.9-18.8-28.2
		c-7-6.6-19.3-6-28.1-8.5c-13.2-3.7-27.4-10.1-34.8-21.7c-1.1,2.8-2.1,5.5-3.2,8.2c-2.7,1.1-5.5,2.1-8.2,3.2
		c11.6,7.4,18,21.6,21.7,34.8c2.5,8.8,1.9,21.1,8.5,28.1c7.3,7.7,19.7,12.3,28.2,18.8c11,8.5,20.1,18.9,24.8,31.7
		c-13.4,2.3-27-0.3-39.9-5.6c-9.9-4.1-20.1-12.5-30.4-15c-9.4-2.2-19.8,4.4-28.6,6.7c-13.3,3.4-28.8,4.9-41-1.4
		c0.5,2.9,0.9,5.8,1.4,8.7c-1.8,2.3-3.7,4.6-5.5,6.9c13.7,0.6,26.4,9.7,36.2,19.3c6.5,6.4,12.2,17.3,21.4,20.1
		c10.2,3.1,23.2,0.8,33.8,2.2c13.8,1.8,26.9,6.3,37.4,15.1c-10.5,8.7-23.6,13.2-37.4,15.1c-10.6,1.4-23.6-0.8-33.8,2.2
		c-9.3,2.8-14.9,13.7-21.4,20.1c-9.8,9.6-22.5,18.7-36.2,19.3c1.9,2.3,3.7,4.6,5.5,6.9c-0.4,2.9-0.9,5.8-1.4,8.7
		c12.2-6.3,27.7-4.8,41-1.4c8.9,2.3,19.2,8.9,28.6,6.7c10.4-2.5,20.5-10.9,30.4-15c12.9-5.3,26.5-8,39.9-5.6
		c-4.7,12.8-13.8,23.2-24.8,31.7c-8.5,6.6-20.9,11.1-28.2,18.8c-6.6,7-6,19.3-8.5,28.1c-3.7,13.2-10.1,27.4-21.7,34.8
		c2.8,1.1,5.5,2.1,8.2,3.2c1.1,2.7,2.1,5.5,3.2,8.2c7.4-11.6,21.6-18,34.8-21.7c8.8-2.5,21.1-1.9,28.1-8.5
		c7.7-7.3,12.3-19.7,18.8-28.2c8.5-11,18.9-20.1,31.7-24.8c2.3,13.4-0.3,27-5.6,39.9c-4.1,9.9-12.5,20.1-15,30.4
		c-2.2,9.4,4.4,19.8,6.7,28.6c3.4,13.3,4.9,28.8-1.4,41c2.9-0.5,5.8-0.9,8.7-1.4c2.3,1.8,4.6,3.7,6.9,5.5
		c0.6-13.7,9.7-26.4,19.3-36.2c6.4-6.5,17.3-12.2,20.1-21.4c3.1-10.2,0.8-23.2,2.2-33.8c1.8-13.8,6.3-26.9,15.1-37.4
		c8.7,10.5,13.2,23.6,15.1,37.4c1.4,10.6-0.8,23.6,2.2,33.8c2.8,9.3,13.7,14.9,20.1,21.4c9.6,9.8,18.7,22.5,19.3,36.2
		c2.3-1.9,4.6-3.7,6.9-5.5c2.9,0.4,5.8,0.9,8.7,1.4c-6.3-12.2-4.8-27.7-1.4-41c2.3-8.9,8.9-19.2,6.7-28.6
		c-2.5-10.4-10.9-20.5-15-30.4c-5.3-12.9-8-26.5-5.6-39.9c12.8,4.7,23.2,13.8,31.7,24.8c6.6,8.5,11.1,20.9,18.8,28.2
		c7,6.6,19.3,6,28.1,8.5c13.2,3.7,27.4,10.1,34.8,21.7c1.1-2.8,2.1-5.5,3.2-8.2c2.7-1.1,5.5-2.1,8.2-3.2
		C505.4,498.1,499,483.9,495.3,470.7z M440.2,443.9c-21.4-13.8-40.6-30.3-56.7-50c-3.2,2.9-6.4,5.7-9.7,8.4c-4,1.5-8.1,2.9-12.1,4.1
		c9.1,23.8,13.7,48.6,15,74.1c0.2,3.8,0.3,7.6,0.4,11.4c-1.9-3.3-3.7-6.7-5.4-10.1c-11.7-22.7-20.1-46.5-24.1-71.7
		c-4.2,0.9-8.4,1.7-12.6,2.5c-4.2-0.7-8.4-1.6-12.6-2.5c-4,25.1-12.4,49-24.1,71.7c-1.7,3.4-3.5,6.8-5.4,10.1
		c0.1-3.8,0.2-7.6,0.4-11.4c1.3-25.5,5.9-50.3,15-74.1c-4.1-1.3-8.1-2.7-12.1-4.1c-3.3-2.8-6.5-5.6-9.7-8.4
		c-16,19.8-35.2,36.2-56.7,50c-3.2,2.1-6.4,4.1-9.7,6c2-3.3,4-6.5,6-9.7c13.8-21.4,30.3-40.6,50-56.7c-2.9-3.2-5.7-6.4-8.4-9.7
		c-1.5-4-2.9-8.1-4.1-12.1c-23.8,9.1-48.6,13.7-74.1,15c-3.8,0.2-7.6,0.3-11.4,0.4c3.3-1.9,6.7-3.7,10.1-5.4
		c22.7-11.7,46.5-20.1,71.7-24.1c-0.9-4.2-1.7-8.4-2.5-12.6c0.7-4.2,1.6-8.4,2.5-12.6c-25.1-4-49-12.4-71.7-24.1
		c-3.4-1.7-6.8-3.5-10.1-5.4c3.8,0.1,7.6,0.2,11.4,0.4c25.5,1.3,50.3,5.9,74.1,15c1.3-4.1,2.7-8.1,4.1-12.1c2.8-3.3,5.6-6.5,8.4-9.7
		c-19.8-16-36.2-35.2-50-56.7c-2.1-3.2-4.1-6.4-6-9.7c3.3,2,6.5,4,9.7,6c21.4,13.8,40.6,30.3,56.7,50c3.2-2.9,6.4-5.7,9.7-8.4
		c4-1.5,8.1-2.8,12.1-4.1c-9.1-23.8-13.7-48.6-15-74.1c-0.2-3.8-0.3-7.6-0.4-11.4c1.9,3.3,3.7,6.7,5.4,10.1
		c11.7,22.7,20.1,46.5,24.1,71.7c4.2-0.9,8.4-1.7,12.6-2.5c4.2,0.7,8.4,1.6,12.6,2.5c4-25.1,12.4-49,24.1-71.7
		c1.7-3.4,3.5-6.8,5.4-10.1c-0.1,3.8-0.2,7.6-0.4,11.4c-1.3,25.5-5.9,50.3-15,74.1c4.1,1.3,8.1,2.7,12.1,4.1
		c3.3,2.8,6.5,5.6,9.7,8.4c16-19.8,35.2-36.2,56.7-50c3.2-2.1,6.4-4.1,9.7-6c-2,3.3-4,6.5-6,9.7c-13.8,21.4-30.3,40.6-50,56.7
		c2.9,3.2,5.7,6.4,8.4,9.7c1.5,4,2.8,8.1,4.1,12.1c23.8-9.1,48.6-13.7,74.1-15c3.8-0.2,7.6-0.3,11.4-0.4c-3.3,1.9-6.7,3.7-10.1,5.4
		c-22.7,11.7-46.5,20.1-71.7,24.1c0.9,4.2,1.7,8.4,2.5,12.6c-0.7,4.2-1.6,8.4-2.5,12.6c25.1,4,49,12.4,71.7,24.1
		c3.4,1.7,6.8,3.5,10.1,5.4c-3.8-0.1-7.6-0.2-11.4-0.4c-25.5-1.3-50.3-5.9-74.1-15c-1.3,4.1-2.7,8.1-4.1,12.1
		c-2.8,3.3-5.6,6.5-8.4,9.7c19.8,16,36.2,35.2,50,56.7c2.1,3.2,4.1,6.4,6,9.7C446.6,448,443.4,446,440.2,443.9z"/>
</g>
<g id="Layer_5">
	<path class="st0" d="M335,10C155.5,10,10,155.5,10,335s145.5,325,325,325s325-145.5,325-325S514.5,10,335,10z M524.9,524.9
		c-11.5,28.2-22.4,56.6-30.9,85.6c-29.4-7.2-59.4-11.9-89.6-16.1c-24,18.7-47.7,37.8-69.5,58.7c-21.8-20.9-45.5-40-69.5-58.7
		c-30.1,4.2-60.2,8.9-89.6,16.1c-8.4-29-19.4-57.4-30.9-85.6c-28.2-11.5-56.6-22.4-85.6-30.9c7.2-29.4,11.9-59.4,16.1-89.6
		c-18.7-24-37.8-47.7-58.7-69.5c20.9-21.8,40-45.5,58.7-69.5c-4.2-30.1-8.9-60.2-16.1-89.6c29-8.4,57.4-19.4,85.6-30.9
		c11.5-28.2,22.4-56.6,30.9-85.6c29.4,7.2,59.4,11.9,89.6,16.1c24-18.7,47.7-37.8,69.5-58.7c21.8,20.9,45.5,40,69.5,58.7
		c30.1-4.2,60.2-8.9,89.6-16.1c8.4,29,19.4,57.4,30.9,85.6c28.2,11.5,56.6,22.4,85.6,30.9c-7.2,29.4-11.9,59.4-16.1,89.6
		c18.7,24,37.8,47.7,58.7,69.5c-20.9,21.8-40,45.5-58.7,69.5c4.2,30.1,8.9,60.2,16.1,89.6C581.5,502.5,553.1,513.5,524.9,524.9z"/>
</g>
<g id="Layer_6">
	<path class="st0" d="M385.7,305.7c-3.3-3.9-6.7-7.6-10.1-11.3c-3.7-3.5-7.4-6.8-11.3-10.1c-4.8-1.7-9.6-3.3-14.4-4.7
		c-4.9-1.2-9.9-2.2-14.8-3.1c-5,0.9-9.9,1.9-14.8,3.1c-4.8,1.4-9.6,3-14.4,4.7c-3.9,3.3-7.6,6.7-11.3,10.1
		c-3.5,3.7-6.8,7.4-10.1,11.3c-1.7,4.8-3.3,9.6-4.7,14.4c-1.2,4.9-2.2,9.9-3.1,14.8c0.9,5,2,9.9,3.1,14.8c1.4,4.8,3,9.6,4.7,14.4
		c3.3,3.9,6.7,7.6,10.1,11.3c3.7,3.5,7.4,6.8,11.3,10.1c4.8,1.7,9.6,3.3,14.4,4.7c4.9,1.2,9.9,2.2,14.8,3.1c5-0.9,9.9-1.9,14.8-3.1
		c4.8-1.4,9.6-3,14.4-4.7c3.9-3.3,7.6-6.7,11.3-10.1c3.5-3.7,6.8-7.4,10.1-11.3c1.7-4.8,3.3-9.6,4.7-14.4c1.2-4.9,2.2-9.9,3.1-14.8
		c-0.9-5-1.9-9.9-3.1-14.8C389,315.3,387.4,310.5,385.7,305.7z M372.1,344.9c-0.7,3.4-1.5,6.7-2.4,10.1c-2.4,2.5-4.9,4.9-7.5,7.1
		c-2.3,2.6-4.6,5.1-7.1,7.5c-3.4,0.9-6.7,1.8-10.1,2.4c-3.2,1.1-6.6,2.1-9.9,2.9c-3.4-0.9-6.7-1.8-9.9-2.9
		c-3.4-0.7-6.7-1.5-10.1-2.4c-2.5-2.4-4.9-4.9-7.1-7.5c-2.6-2.3-5.1-4.6-7.5-7.1c-0.9-3.4-1.8-6.7-2.4-10.1
		c-1.1-3.2-2.1-6.6-2.9-9.9c0.9-3.4,1.8-6.7,2.9-9.9c0.7-3.4,1.5-6.7,2.4-10.1c2.4-2.5,4.9-4.9,7.5-7.1c2.3-2.6,4.6-5.1,7.1-7.5
		c3.4-0.9,6.7-1.8,10.1-2.4c3.2-1.1,6.6-2.1,9.9-2.9c3.4,0.9,6.7,1.8,9.9,2.9c3.4,0.7,6.7,1.5,10.1,2.4c2.5,2.4,4.9,4.9,7.1,7.5
		c2.6,2.3,5.1,4.6,7.5,7.1c0.9,3.4,1.8,6.7,2.4,10.1c1.1,3.2,2.1,6.6,2.9,9.9C374.2,338.4,373.2,341.7,372.1,344.9z"/>
</g>
</svg>
