<?xml version="1.0" encoding="utf-8"?>
<!-- Generator: Adobe Illustrator 22.0.1, SVG Export Plug-In . SVG Version: 6.00 Build 0)  -->
<svg version="1.1" xmlns="http://www.w3.org/2000/svg" xmlns:xlink="http://www.w3.org/1999/xlink" x="0px" y="0px"
	 viewBox="0 0 670 670" style="enable-background:new 0 0 670 670;" xml:space="preserve">
<style type="text/css">
	.st0{fill:#232323;}
	.st1{fill:#FFFFFF;}
</style>
<g id="Layer_2">
	<path class="st0" d="M651.9,335c-22.9-23.2-47.3-44.9-72.6-65.5c11.6-30.5,21.8-61.4,30.1-93c-31.4-8.6-63.4-15.2-95.6-20.4
		c-5.2-32.2-11.8-64.1-20.4-95.6c-31.5,8.2-62.5,18.5-93,30.1C379.9,65.4,358.2,41,335,18.1c-23.2,22.9-44.9,47.3-65.5,72.6
		c-30.5-11.6-61.4-21.8-93-30.1c-8.6,31.4-15.2,63.4-20.4,95.6c-32.2,5.2-64.1,11.8-95.6,20.4c8.2,31.5,18.5,62.5,30.1,93
		C65.4,290.1,41,311.8,18.1,335c22.9,23.2,47.3,44.9,72.6,65.5c-11.6,30.5-21.8,61.4-30.1,93c31.4,8.6,63.4,15.2,95.6,20.4
		c5.2,32.2,11.8,64.1,20.4,95.6c31.5-8.2,62.5-18.5,93-30.1c20.6,25.3,42.3,49.6,65.5,72.6c23.2-22.9,44.9-47.3,65.5-72.6
		c30.5,11.6,61.4,21.8,93,30.1c8.6-31.4,15.2-63.4,20.4-95.6c32.2-5.2,64.1-11.8,95.6-20.4c-8.2-31.5-18.5-62.5-30.1-93
		C604.6,379.9,629,358.2,651.9,335z M583.7,478.6c-28.7,7.4-57.8,13.2-87.1,18c-4.8,29.3-10.6,58.4-18,87.1
		c-28.6-7.9-56.7-17.5-84.4-27.9c-18.8,22.9-38.4,45.2-59.2,66.4c-20.8-21.2-40.4-43.5-59.2-66.4c-27.8,10.5-55.9,20-84.4,27.9
		c-7.4-28.7-13.2-57.8-18-87.1c-29.3-4.8-58.4-10.6-87.1-18c7.9-28.6,17.5-56.7,27.9-84.4c-22.9-18.8-45.2-38.4-66.4-59.2
		c21.2-20.8,43.5-40.4,66.4-59.2c-10.5-27.8-20-55.9-27.9-84.4c28.7-7.4,57.8-13.2,87.1-18c4.8-29.3,10.6-58.4,18-87.1
		c28.6,7.9,56.7,17.5,84.4,27.9c18.8-22.9,38.4-45.2,59.2-66.4c20.8,21.2,40.4,43.5,59.2,66.4c27.8-10.5,55.9-20,84.4-27.9
		c7.4,28.7,13.2,57.8,18,87.1c29.3,4.8,58.4,10.6,87.1,18c-7.9,28.6-17.5,56.7-27.9,84.4c22.9,18.8,45.2,38.4,66.4,59.2
		c-21.2,20.8-43.5,40.4-66.4,59.2C566.3,421.9,575.8,450,583.7,478.6z"/>
	<path class="st0" d="M440.4,306.7c-5.9-11.4-15.8-16.9-27.3-16.9c5.7-9.9,5.9-21.3-1-32.1c-10.8-6.9-22.1-6.7-32.1-1
		c0-11.5-5.5-21.4-16.9-27.3c-12.8-0.6-22.5,5.2-28.3,15.2c-5.7-9.9-15.5-15.8-28.3-15.2c-11.4,5.9-16.9,15.8-16.9,27.3
		c-9.9-5.7-21.3-5.9-32.1,1c-6.9,10.8-6.7,22.1-1,32.1c-11.5,0-21.4,5.5-27.3,16.9c-0.6,12.8,5.2,22.5,15.2,28.3
		c-9.9,5.7-15.8,15.4-15.2,28.3c5.9,11.4,15.8,16.9,27.3,16.9c-5.7,9.9-5.9,21.3,1,32.1c10.8,6.9,22.1,6.7,32.1,1
		c0,11.5,5.5,21.4,16.9,27.3c12.8,0.6,22.5-5.2,28.3-15.2c5.7,9.9,15.4,15.8,28.3,15.2c11.4-5.9,16.9-15.8,16.9-27.3
		c9.9,5.7,21.3,5.9,32.1-1c6.9-10.8,6.7-22.1,1-32.1c11.5,0,21.4-5.5,27.3-16.9c0.6-12.8-5.2-22.5-15.2-28.3
		C435.2,329.3,441,319.5,440.4,306.7z M389.4,261.3c6.6-1.8,12.1-0.5,16.9,2.5c3,4.8,4.4,10.2,2.5,16.8
		c-2.7,9.6-10.4,14.7-18.6,19.4c-8.3,4.7-16.3,9-26.1,6.4c-0.1,0-0.3-0.1-0.4-0.1c0-0.1-0.1-0.3-0.1-0.4c-2.5-9.8,1.7-17.8,6.4-26.1
		C374.7,271.7,379.7,263.9,389.4,261.3z M345.2,244c4.8-4.9,10.2-6.5,15.9-6.2c5,2.6,8.9,6.7,10.6,13.3c2.5,9.7-1.7,17.9-6.4,26.1
		c-4.8,8.2-9.6,15.9-19.4,18.6c-0.1,0-0.3,0.1-0.4,0.1c-0.1-0.1-0.2-0.2-0.3-0.3c-7.1-7.2-7.4-16.3-7.5-25.8
		C337.7,260.3,338.2,251.1,345.2,244z M298.3,251c1.7-6.6,5.6-10.7,10.6-13.3c5.7-0.2,11,1.3,15.9,6.2c7,7.1,7.5,16.4,7.5,25.8
		c0,9.5-0.4,18.6-7.5,25.8c-0.1,0.1-0.2,0.2-0.3,0.3c-0.1,0-0.3-0.1-0.4-0.1c-9.7-2.7-14.6-10.4-19.4-18.6
		C300,269,295.8,260.7,298.3,251z M263.8,263.8c4.8-3,10.2-4.4,16.9-2.5c9.6,2.7,14.7,10.4,19.4,18.6c4.7,8.3,9,16.3,6.4,26.1
		c0,0.1-0.1,0.3-0.1,0.4c-0.1,0-0.3,0.1-0.4,0.1c-9.8,2.5-17.8-1.7-26.1-6.4c-8.2-4.7-15.9-9.7-18.6-19.4
		C259.4,274,260.8,268.6,263.8,263.8z M244,324.8c-4.9-4.8-6.5-10.2-6.2-15.9c2.6-5,6.7-8.9,13.3-10.6c9.7-2.5,17.9,1.7,26.1,6.4
		c8.2,4.8,15.9,9.6,18.6,19.4c0,0.1,0.1,0.3,0.1,0.4c-0.1,0.1-0.2,0.2-0.3,0.3c-7.2,7.1-16.3,7.4-25.8,7.5
		C260.3,332.3,251.1,331.8,244,324.8z M251,371.7c-6.6-1.7-10.7-5.6-13.3-10.6c-0.2-5.7,1.3-11,6.2-15.9c7.1-7,16.4-7.5,25.8-7.5
		c9.5,0,18.6,0.4,25.8,7.5c0.1,0.1,0.2,0.2,0.3,0.3c0,0.1-0.1,0.3-0.1,0.4c-2.7,9.7-10.4,14.6-18.6,19.4
		C269,370,260.7,374.2,251,371.7z M280.6,408.7c-6.6,1.8-12.1,0.5-16.9-2.5c-3-4.8-4.4-10.2-2.5-16.9c2.7-9.6,10.4-14.7,18.6-19.4
		c8.3-4.7,16.3-9,26.1-6.4c0.1,0,0.3,0.1,0.4,0.1c0,0.1,0.1,0.3,0.1,0.4c2.5,9.8-1.7,17.8-6.4,26.1
		C295.3,398.3,290.3,406.1,280.6,408.7z M324.8,426c-4.8,4.9-10.2,6.5-15.9,6.2c-5-2.6-8.9-6.7-10.6-13.3
		c-2.5-9.7,1.7-17.9,6.4-26.1c4.8-8.2,9.6-15.9,19.4-18.6c0.1,0,0.3-0.1,0.4-0.1c0.1,0.1,0.2,0.2,0.3,0.3c7.1,7.2,7.4,16.3,7.5,25.8
		C332.3,409.7,331.8,418.9,324.8,426z M328.5,366.1c-0.5-0.4-1-0.8-1.5-1.2c-0.6,0.1-1.3,0.2-1.9,0.3c-3.5,0.6-6.6,1.7-9.3,3.1
		c-0.1-3.1-0.7-6.3-2-9.6c-0.2-0.6-0.5-1.2-0.7-1.8c-0.6-0.3-1.2-0.5-1.8-0.7c-3.3-1.2-6.5-1.8-9.6-2c1.4-2.8,2.5-5.8,3.1-9.3
		c0.1-0.6,0.2-1.3,0.3-1.9c-0.4-0.5-0.8-1-1.2-1.5c-2.3-2.7-4.7-4.8-7.4-6.5c2.6-1.7,5.1-3.8,7.4-6.5c0.4-0.5,0.8-1,1.2-1.5
		c-0.1-0.6-0.2-1.3-0.3-1.9c-0.6-3.5-1.7-6.6-3.1-9.3c3.1-0.1,6.3-0.7,9.6-2c0.6-0.2,1.2-0.5,1.8-0.7c0.3-0.6,0.5-1.2,0.7-1.8
		c1.2-3.3,1.8-6.5,2-9.6c2.8,1.4,5.8,2.5,9.3,3.1c0.6,0.1,1.3,0.2,1.9,0.3c0.5-0.4,1-0.8,1.5-1.2c2.7-2.3,4.8-4.7,6.5-7.4
		c1.7,2.6,3.8,5.1,6.5,7.4c0.5,0.4,1,0.8,1.5,1.2c0.6-0.1,1.3-0.2,1.9-0.3c3.5-0.6,6.6-1.7,9.3-3.1c0.1,3.1,0.7,6.3,2,9.6
		c0.2,0.6,0.5,1.2,0.7,1.8c0.6,0.3,1.2,0.5,1.8,0.7c3.3,1.2,6.5,1.8,9.6,2c-1.4,2.8-2.5,5.8-3.1,9.3c-0.1,0.6-0.2,1.3-0.3,1.9
		c0.4,0.5,0.8,1,1.2,1.5c2.3,2.7,4.7,4.8,7.4,6.5c-2.6,1.7-5.1,3.8-7.4,6.5c-0.4,0.5-0.8,1-1.2,1.5c0.1,0.6,0.2,1.3,0.3,1.9
		c0.6,3.5,1.7,6.6,3.1,9.3c-3.1,0.1-6.3,0.7-9.6,2c-0.6,0.2-1.2,0.5-1.8,0.7c-0.3,0.6-0.5,1.2-0.7,1.8c-1.2,3.3-1.8,6.5-2,9.6
		c-2.8-1.4-5.8-2.5-9.3-3.1c-0.6-0.1-1.3-0.2-1.9-0.3c-0.5,0.4-1,0.8-1.5,1.2c-2.7,2.3-4.8,4.7-6.5,7.4
		C333.3,370.9,331.2,368.4,328.5,366.1z M371.7,419c-1.7,6.6-5.6,10.7-10.6,13.3c-5.7,0.2-11-1.3-15.9-6.2c-7-7.1-7.5-16.4-7.5-25.8
		c0-9.5,0.4-18.6,7.5-25.8c0.1-0.1,0.2-0.2,0.3-0.3c0.1,0,0.3,0.1,0.4,0.1c9.7,2.7,14.6,10.4,19.4,18.6
		C370,401,374.2,409.3,371.7,419z M406.2,406.2c-4.8,3-10.2,4.4-16.9,2.5c-9.6-2.7-14.7-10.4-19.4-18.6c-4.7-8.3-9-16.3-6.4-26.1
		c0-0.1,0.1-0.3,0.1-0.4c0.1,0,0.3-0.1,0.4-0.1c9.8-2.5,17.8,1.7,26.1,6.4c8.2,4.7,15.9,9.7,18.6,19.4
		C410.6,396,409.2,401.4,406.2,406.2z M426,345.2c4.9,4.8,6.5,10.2,6.2,15.9c-2.6,5-6.7,8.9-13.3,10.6c-9.7,2.5-17.9-1.7-26.1-6.4
		c-8.2-4.8-15.9-9.6-18.6-19.4c0-0.1-0.1-0.3-0.1-0.4c0.1-0.1,0.2-0.2,0.3-0.3c7.2-7.1,16.3-7.4,25.8-7.5
		C409.7,337.7,418.9,338.2,426,345.2z M400.2,332.2c-9.5,0-18.6-0.4-25.8-7.5c-0.1-0.1-0.2-0.2-0.3-0.3c0-0.1,0.1-0.3,0.1-0.4
		c2.7-9.7,10.4-14.6,18.6-19.4c8.1-4.7,16.4-8.9,26.1-6.4c6.6,1.7,10.7,5.6,13.3,10.6c0.2,5.7-1.3,11-6.2,15.9
		C418.9,331.8,409.7,332.3,400.2,332.2z"/>
	<path class="st0" d="M529.4,387.1c-0.9-1.7-1.9-3.3-3-5c25.2-13,49.1-28.7,70.5-47.1c-21.4-18.5-45.2-34.1-70.5-47.1
		c1-1.6,2-3.3,3-5c-1.7-1-3.3-1.9-5.1-2.8c15.4-23.9,28.2-49.4,37.5-76c-27.7-5.3-56.3-6.9-84.6-5.6c0.1-1.9,0.1-3.9,0.1-5.8
		c-1.9,0-3.9,0-5.8,0.1c1.4-28.3-0.3-56.9-5.6-84.6c-26.7,9.3-52.2,22.1-76,37.5c-0.9-1.7-1.9-3.4-2.8-5.1c-1.7,0.9-3.3,1.9-5,3
		c-13-25.2-28.7-49.1-47.1-70.5c-18.5,21.4-34.1,45.2-47.1,70.5c-1.6-1-3.3-2-5-3c-1,1.7-1.9,3.3-2.8,5.1
		c-23.9-15.4-49.4-28.2-76-37.5c-5.3,27.7-6.9,56.3-5.6,84.6c-1.9-0.1-3.9-0.1-5.8-0.1c0,1.9,0,3.9,0.1,5.8
		c-28.3-1.4-56.9,0.3-84.6,5.6c9.3,26.7,22.1,52.2,37.5,76c-1.7,0.9-3.4,1.9-5.1,2.8c0.9,1.7,1.9,3.3,3,5
		c-25.2,13-49.1,28.7-70.5,47.1c21.4,18.5,45.2,34.1,70.5,47.1c-1,1.6-2,3.3-3,5c1.7,1,3.4,1.9,5.1,2.8
		c-15.4,23.9-28.2,49.4-37.5,76c27.7,5.3,56.3,6.9,84.6,5.6c-0.1,1.9-0.1,3.9-0.1,5.8c1.9,0,3.9,0,5.8-0.1
		c-1.4,28.3,0.3,56.9,5.6,84.6c26.7-9.3,52.2-22.1,76-37.5c0.9,1.7,1.9,3.4,2.8,5.1c1.7-0.9,3.3-1.9,5-3
		c13,25.2,28.7,49.1,47.1,70.5c18.5-21.4,34.1-45.2,47.1-70.5c1.6,1,3.3,2,5,3c1-1.7,1.9-3.3,2.8-5.1c23.9,15.4,49.4,28.2,76,37.5
		c5.3-27.7,6.9-56.3,5.6-84.6c1.9,0.1,3.9,0.1,5.8,0.1c0-1.9,0-3.9-0.1-5.8c28.3,1.4,56.9-0.3,84.6-5.6c-9.3-26.7-22.1-52.2-37.5-76
		C526.1,389,527.8,388.1,529.4,387.1z M583.5,335c-19,15.4-39.9,28.6-61.8,39.9c-2.6-3.8-5.2-7.6-7.5-11.2c-2-3.1-6.3-10.1-6.3-10.1
		l-9.6-18.6l9.6-18.6c0,0,4.3-7,6.3-10.1c2.3-3.6,4.9-7.3,7.5-11.2C543.6,306.4,564.5,319.6,583.5,335z M475.9,220.5
		c0.2-4.2,0.5-8.8,0.9-13.4c24.6-1.2,49.3-0.2,73.4,3.6c-8.8,22.8-20.2,44.7-33.6,65.4c-4.2-2-8.3-4-12.1-5.9
		c-3.3-1.7-10.5-5.6-10.5-5.6L476,253.2l-0.5-21.1C475.5,232.2,475.7,224.2,475.9,220.5z M486.6,260.3 M459.2,119.8
		c3.8,24.2,4.9,48.8,3.6,73.4c-4.6,0.3-9.2,0.7-13.4,0.9c-3.7,0.1-11.9,0.4-11.9,0.4l-23-0.8l-9.1-17.7c0,0-3.9-7.2-5.6-10.5
		c-2-3.8-3.9-7.9-5.9-12.1C414.5,140,436.4,128.6,459.2,119.8z M335,86.5c15.4,19,28.6,39.9,39.9,61.8c-3.8,2.6-7.6,5.2-11.2,7.5
		c-3.1,2-10.1,6.3-10.1,6.3l-19.1,9.9l-18.1-9.9c0,0-7-4.3-10.1-6.3c-3.6-2.3-7.3-4.9-11.2-7.5C306.4,126.4,319.6,105.5,335,86.5z
		 M210.8,119.8c22.8,8.8,44.7,20.2,65.4,33.6c-2,4.2-4,8.3-5.9,12.1c-1.7,3.3-5.6,10.5-5.6,10.5L253,194.5h-20.6
		c0,0-8.2-0.2-11.9-0.4c-4.2-0.2-8.8-0.5-13.4-0.9C205.9,168.6,206.9,144,210.8,119.8z M119.8,210.8c24.2-3.8,48.8-4.9,73.4-3.6
		c0.3,4.6,0.7,9.2,0.9,13.4c0.1,3.7,0.4,11.9,0.4,11.9v21.7l-18.6,10.5c0,0-7.2,3.9-10.5,5.6c-3.8,2-7.9,3.9-12.1,5.9
		C140,255.5,128.6,233.6,119.8,210.8z M86.5,335c19-15.4,39.9-28.6,61.8-39.9c2.6,3.8,5.2,7.6,7.5,11.2c2,3.1,6.3,10.1,6.3,10.1
		l9.1,18.6l-9.1,18.6c0,0-4.3,7-6.3,10.1c-2.3,3.6-4.9,7.3-7.5,11.2C126.4,363.6,105.5,350.4,86.5,335z M194.1,449.5
		c-0.2,4.2-0.5,8.8-0.9,13.4c-24.6,1.2-49.3,0.2-73.4-3.6c8.8-22.8,20.2-44.7,33.6-65.4c4.2,2,8.3,4,12.1,5.9
		c3.3,1.7,10.5,5.6,10.5,5.6l18.6,10.2v21.9C194.5,437.6,194.3,445.8,194.1,449.5z M210.8,550.2c-3.8-24.2-4.9-48.8-3.6-73.4
		c4.6-0.3,9.2-0.7,13.4-0.9c3.7-0.1,11.9-0.4,11.9-0.4l22-0.9l10.1,19.5c0,0,3.9,7.2,5.6,10.5c2,3.8,3.9,7.9,5.9,12.1
		C255.5,530,233.6,541.4,210.8,550.2z M335,583.5c-15.4-19-28.6-39.9-39.9-61.8c3.8-2.6,7.6-5.2,11.2-7.5c3.1-2,10.1-6.3,10.1-6.3
		l18.1-10.3l19.1,10.3c0,0,7,4.3,10.1,6.3c3.6,2.3,7.3,4.9,11.2,7.5C363.6,543.6,350.4,564.5,335,583.5z M459.2,550.2
		c-22.8-8.8-44.7-20.2-65.4-33.6c2-4.2,4-8.3,5.9-12.1c1.7-3.3,5.6-10.5,5.6-10.5l10.4-18.6h21.8c0,0,8.2,0.2,11.9,0.4
		c4.2,0.2,8.8,0.5,13.4,0.9C464.1,501.4,463.1,526,459.2,550.2z M462.9,408.8c-0.5,4.7-0.9,9.4-1.1,14.2
		c-0.6,13.1-0.4,26.2,0.5,39.3c-13.1-0.8-26.2-1.1-39.3-0.5c-4.7,0.2-9.5,0.6-14.2,1.1c-2.8,3.8-5.5,7.7-8,11.7
		c-7.1,11-13.4,22.5-19.2,34.2c-10.9-7.3-22.1-14.1-33.8-20c-4.2-2.2-8.5-4.2-12.8-6.1c-4.3,1.9-8.6,4-12.8,6.1
		c-11.6,6-22.9,12.8-33.8,20c-5.8-11.7-12.1-23.2-19.2-34.2c-2.6-4-5.3-7.9-8-11.7c-4.7-0.5-9.4-0.9-14.2-1.1
		c-13.1-0.6-26.2-0.4-39.3,0.5c0.8-13.1,1.1-26.2,0.5-39.3c-0.2-4.7-0.6-9.5-1.1-14.2c-3.8-2.8-7.7-5.5-11.7-8
		c-11-7.1-22.5-13.4-34.2-19.2c7.3-10.9,14.1-22.1,20-33.8c2.2-4.2,4.2-8.5,6.1-12.8c-1.9-4.3-4-8.6-6.1-12.8
		c-6-11.6-12.8-22.9-20-33.8c11.7-5.8,23.2-12.1,34.2-19.2c4-2.6,7.9-5.3,11.7-8c0.5-4.7,0.9-9.4,1.1-14.2
		c0.6-13.1,0.4-26.2-0.5-39.3c13.1,0.8,26.2,1.1,39.3,0.5c4.7-0.2,9.5-0.6,14.2-1.1c2.8-3.8,5.5-7.7,8-11.7
		c7.1-11,13.4-22.5,19.2-34.2c10.9,7.3,22.1,14.1,33.8,20c4.2,2.2,8.5,4.2,12.8,6.1c4.3-1.9,8.6-4,12.8-6.1
		c11.6-6,22.9-12.8,33.8-20c5.8,11.7,12.1,23.2,19.2,34.2c2.6,4,5.3,7.9,8,11.7c4.7,0.5,9.4,0.9,14.2,1.1
		c13.1,0.6,26.2,0.4,39.3-0.5c-0.8,13.1-1.1,26.2-0.5,39.3c0.2,4.7,0.6,9.5,1.1,14.2c3.8,2.8,7.7,5.5,11.7,8
		c11,7.1,22.5,13.4,34.2,19.2c-7.3,10.9-14.1,22.1-20,33.8c-2.2,4.2-4.2,8.5-6.1,12.8c1.9,4.3,4,8.6,6.1,12.8
		c6,11.6,12.8,22.9,20,33.8c-11.7,5.8-23.2,12.1-34.2,19.2C470.6,403.4,466.7,406.1,462.9,408.8z M550.2,459.2
		c-24.2,3.8-48.8,4.9-73.4,3.6c-0.3-4.6-0.7-9.2-0.9-13.4c-0.1-3.7-0.4-11.9-0.4-11.9l-0.6-21.6l19.2-10.6c0,0,7.2-3.9,10.5-5.6
		c3.8-2,7.9-3.9,12.1-5.9C530,414.5,541.4,436.4,550.2,459.2z"/>
	<path class="st0" d="M341.2,341.2c0.6-0.5,1.3-1,2-1.5c0.1-0.8,0.2-1.7,0.3-2.5c0.3-0.8,0.6-1.5,1-2.3c-0.4-0.8-0.7-1.5-1-2.3
		c-0.1-0.8-0.2-1.6-0.3-2.5c-0.7-0.5-1.4-1-2-1.5c-0.5-0.6-1-1.3-1.5-2c-0.8-0.1-1.6-0.2-2.5-0.3c-0.8-0.3-1.5-0.6-2.3-1
		c-0.8,0.4-1.5,0.7-2.3,1c-0.8,0.1-1.6,0.2-2.5,0.3c-0.5,0.7-1,1.4-1.5,2c-0.6,0.5-1.3,1-2,1.5c-0.1,0.8-0.2,1.7-0.3,2.5
		c-0.3,0.8-0.6,1.5-1,2.3c0.4,0.8,0.7,1.5,1,2.3c0.1,0.8,0.2,1.6,0.3,2.5c0.7,0.5,1.4,1,2,1.5c0.5,0.6,1,1.3,1.5,2
		c0.8,0.1,1.6,0.2,2.5,0.3c0.8,0.3,1.5,0.6,2.3,1c0.8-0.4,1.5-0.7,2.3-1c0.8-0.1,1.6-0.2,2.5-0.3
		C340.2,342.5,340.7,341.8,341.2,341.2z"/>
	<path class="st0" d="M459.9,282.3c-3.6-4.6-7.5-8.9-11.9-12.5c-1-5.6-2.7-11.2-4.9-16.6c-2.3-5.6-6.2-11.3-9.3-17
		c-5.8-3.1-11.4-7-17-9.3c-5.4-2.2-11-3.9-16.6-4.9c-3.6-4.4-7.9-8.3-12.5-11.9c-4.8-3.7-11-6.7-16.5-10.1
		c-6.5,0.2-13.4-0.3-19.4,0.5c-5.8,0.8-11.5,2.1-16.8,4c-5.3-2-11-3.3-16.8-4c-6-0.8-12.9-0.3-19.4-0.5c-5.5,3.4-11.7,6.4-16.5,10.1
		c-4.6,3.6-8.9,7.5-12.5,11.9c-5.6,1-11.2,2.7-16.6,4.9c-5.6,2.3-11.3,6.2-17,9.3c-3.1,5.8-7,11.4-9.3,17c-2.2,5.4-3.9,11-4.9,16.6
		c-4.4,3.6-8.3,7.9-11.9,12.5c-3.7,4.8-6.7,11-10.1,16.5c0.2,6.5-0.3,13.4,0.5,19.4c0.8,5.8,2.1,11.5,4,16.8c-2,5.3-3.3,11-4,16.8
		c-0.8,6-0.3,12.9-0.5,19.4c3.4,5.5,6.4,11.7,10.1,16.5c3.6,4.6,7.5,8.9,11.9,12.5c1,5.6,2.7,11.2,4.9,16.6c2.3,5.6,6.2,11.3,9.3,17
		c5.8,3.1,11.4,7,17,9.3c5.4,2.2,11,3.9,16.6,4.9c3.6,4.4,7.9,8.3,12.5,11.9c4.8,3.7,11,6.7,16.5,10.1c6.5-0.2,13.4,0.3,19.4-0.5
		c5.8-0.8,11.5-2.1,16.8-4c5.3,2,11,3.3,16.8,4c6,0.8,12.9,0.3,19.4,0.5c5.5-3.4,11.7-6.4,16.5-10.1c4.6-3.6,8.9-7.5,12.5-11.9
		c5.6-1,11.2-2.7,16.6-4.9c5.6-2.3,11.3-6.2,17-9.3c3.1-5.8,7-11.4,9.3-17c2.2-5.4,3.9-11,4.9-16.6c4.4-3.6,8.3-7.9,11.9-12.5
		c3.7-4.8,6.7-11,10.1-16.5c-0.2-6.5,0.3-13.4-0.5-19.4c-0.8-5.8-2.1-11.5-4-16.8c2-5.3,3.3-11,4-16.8c0.8-6,0.3-12.9,0.5-19.4
		C466.6,293.3,463.6,287.1,459.9,282.3z M458.6,368.1c-3.7,11.1-9.3,20.8-18.8,27.4c-0.9,11.5-6.6,21.2-14.3,30
		c-8.8,7.8-18.5,13.4-30,14.3c-6.6,9.5-16.3,15.1-27.4,18.8c-11.5,2.3-22.7,2.4-33.1-2.6c-10.4,5-21.6,4.9-33.1,2.6
		c-11.1-3.7-20.8-9.3-27.4-18.8c-11.5-0.9-21.2-6.6-30-14.3c-7.8-8.8-13.4-18.5-14.3-30c-9.5-6.6-15.1-16.3-18.8-27.4
		c-2.3-11.5-2.4-22.7,2.6-33.1c-5-10.4-4.9-21.6-2.6-33.1c3.7-11.1,9.3-20.8,18.8-27.4c0.9-11.5,6.6-21.2,14.3-30
		c8.8-7.8,18.5-13.4,30-14.3c6.6-9.5,16.3-15.1,27.4-18.8c11.5-2.3,22.7-2.4,33.1,2.6c10.4-5,21.6-4.9,33.1-2.6
		c11.1,3.7,20.8,9.3,27.4,18.8c11.5,0.9,21.2,6.6,30,14.3c7.8,8.8,13.4,18.5,14.3,30c9.5,6.6,15.1,16.3,18.8,27.4
		c2.3,11.5,2.4,22.7-2.6,33.1C461,345.4,460.9,356.6,458.6,368.1z"/>
</g>
<g id="Layer_3">
	<path class="st1" d="M324.5,374.2c-0.1,0-0.3,0.1-0.4,0.1c-9.7,2.7-14.6,10.4-19.4,18.6c-4.7,8.1-8.9,16.4-6.4,26.1
		c1.7,6.6,5.6,10.7,10.6,13.3c5.7,0.2,11-1.3,15.9-6.2c7-7.1,7.5-16.4,7.5-25.8c0-9.5-0.4-18.6-7.5-25.8
		C324.7,374.3,324.6,374.2,324.5,374.2z"/>
	<path class="st1" d="M306.4,364c0-0.1-0.1-0.3-0.1-0.4c-0.1,0-0.3-0.1-0.4-0.1c-9.8-2.5-17.8,1.7-26.1,6.4
		c-8.2,4.7-15.9,9.7-18.6,19.4c-1.8,6.6-0.5,12.1,2.5,16.9c4.8,3,10.2,4.4,16.9,2.5c9.6-2.7,14.7-10.4,19.4-18.6
		C304.7,381.9,309,373.8,306.4,364z"/>
	<path class="st1" d="M390.1,370c-8.3-4.7-16.3-9-26.1-6.4c-0.1,0-0.3,0.1-0.4,0.1c0,0.1-0.1,0.3-0.1,0.4
		c-2.5,9.8,1.7,17.8,6.4,26.1c4.7,8.2,9.7,15.9,19.4,18.6c6.6,1.8,12.1,0.5,16.9-2.5c3-4.8,4.4-10.2,2.5-16.9
		C406.1,379.7,398.3,374.7,390.1,370z"/>
	<path class="st1" d="M279.9,300c8.3,4.7,16.3,9,26.1,6.4c0.1,0,0.3-0.1,0.4-0.1c0-0.1,0.1-0.3,0.1-0.4c2.5-9.8-1.7-17.8-6.4-26.1
		c-4.7-8.2-9.7-15.9-19.4-18.6c-6.6-1.8-12.1-0.5-16.9,2.5c-3,4.8-4.4,10.2-2.5,16.8C263.9,290.3,271.7,295.3,279.9,300z"/>
	<path class="st1" d="M295.7,345.9c0-0.1,0.1-0.3,0.1-0.4c-0.1-0.1-0.2-0.2-0.3-0.3c-7.2-7.1-16.3-7.4-25.8-7.5
		c-9.4,0-18.7,0.4-25.8,7.5c-4.9,4.8-6.5,10.2-6.2,15.9c2.6,5,6.7,8.9,13.3,10.6c9.7,2.5,17.9-1.7,26.1-6.4
		C285.3,360.4,293,355.6,295.7,345.9z"/>
	<path class="st1" d="M295.6,324.8c0.1-0.1,0.2-0.2,0.3-0.3c0-0.1-0.1-0.3-0.1-0.4c-2.7-9.7-10.4-14.6-18.6-19.4
		c-8.1-4.7-16.4-8.9-26.1-6.4c-6.6,1.7-10.7,5.6-13.3,10.6c-0.2,5.7,1.3,11,6.2,15.9c7.1,7,16.4,7.5,25.8,7.5
		C279.3,332.2,288.4,331.9,295.6,324.8z"/>
	<path class="st1" d="M324.1,295.7c0.1,0,0.3,0.1,0.4,0.1c0.1-0.1,0.2-0.2,0.3-0.3c7.1-7.2,7.4-16.3,7.5-25.8
		c0-9.4-0.4-18.7-7.5-25.8c-4.8-4.9-10.2-6.5-15.9-6.2c-5,2.6-8.9,6.7-10.6,13.3c-2.5,9.7,1.7,17.9,6.4,26.1
		C309.6,285.3,314.4,293,324.1,295.7z"/>
	<path class="st1" d="M345.9,374.3c-0.1,0-0.3-0.1-0.4-0.1c-0.1,0.1-0.2,0.2-0.3,0.3c-7.1,7.2-7.4,16.3-7.5,25.8
		c0,9.4,0.4,18.7,7.5,25.8c4.8,4.9,10.2,6.5,15.9,6.2c5-2.6,8.9-6.7,10.6-13.3c2.5-9.7-1.7-17.9-6.4-26.1
		C360.4,384.7,355.6,377,345.9,374.3z"/>
	<path class="st1" d="M345.5,295.8c0.1,0,0.3-0.1,0.4-0.1c9.7-2.7,14.6-10.4,19.4-18.6c4.7-8.1,8.9-16.4,6.4-26.1
		c-1.7-6.6-5.6-10.7-10.6-13.3c-5.7-0.2-11,1.3-15.9,6.2c-7,7.1-7.5,16.4-7.5,25.8c0,9.5,0.4,18.6,7.5,25.8
		C345.3,295.7,345.4,295.8,345.5,295.8z"/>
	<path class="st1" d="M374.4,345.2c-0.1,0.1-0.2,0.2-0.3,0.3c0,0.1,0.1,0.3,0.1,0.4c2.7,9.7,10.4,14.6,18.6,19.4
		c8.1,4.7,16.4,8.9,26.1,6.4c6.6-1.7,10.7-5.6,13.3-10.6c0.2-5.7-1.3-11-6.2-15.9c-7.1-7-16.4-7.5-25.8-7.5
		C390.7,337.8,381.6,338.1,374.4,345.2z"/>
	<path class="st1" d="M432.3,308.9c-2.6-5-6.7-8.9-13.3-10.6c-9.7-2.5-17.9,1.7-26.1,6.4c-8.2,4.8-15.9,9.6-18.6,19.4
		c0,0.1-0.1,0.3-0.1,0.4c0.1,0.1,0.2,0.2,0.3,0.3c7.2,7.1,16.3,7.4,25.8,7.5c9.4,0,18.7-0.4,25.8-7.5
		C430.9,320,432.5,314.6,432.3,308.9z"/>
	<path class="st1" d="M363.6,306c0,0.1,0.1,0.3,0.1,0.4c0.1,0,0.3,0.1,0.4,0.1c9.8,2.5,17.8-1.7,26.1-6.4
		c8.2-4.7,15.9-9.7,18.6-19.4c1.8-6.6,0.5-12.1-2.5-16.8c-4.8-3-10.2-4.4-16.9-2.5c-9.6,2.7-14.7,10.4-19.4,18.6
		C365.3,288.1,361,296.2,363.6,306z"/>
</g>
<g id="Layer_4">
	<path class="st1" d="M335,10C155.5,10,10,155.5,10,335s145.5,325,325,325s325-145.5,325-325S514.5,10,335,10z M513.9,513.9
		c-5.2,32.2-11.8,64.1-20.4,95.6c-31.5-8.2-62.5-18.5-93-30.1c-20.6,25.3-42.3,49.6-65.5,72.6c-23.2-22.9-44.9-47.3-65.5-72.6
		c-30.5,11.6-61.4,21.8-93,30.1c-8.6-31.4-15.2-63.4-20.4-95.6c-32.2-5.2-64.1-11.8-95.6-20.4c8.2-31.5,18.5-62.5,30.1-93
		C65.4,379.9,41,358.2,18.1,335c22.9-23.2,47.3-44.9,72.6-65.5c-11.6-30.5-21.8-61.4-30.1-93c31.4-8.6,63.4-15.2,95.6-20.4
		c5.2-32.2,11.8-64.1,20.4-95.6c31.5,8.2,62.5,18.5,93,30.1C290.1,65.4,311.8,41,335,18.1c23.2,22.9,44.9,47.3,65.5,72.6
		c30.5-11.6,61.4-21.8,93-30.1c8.6,31.4,15.2,63.4,20.4,95.6c32.2,5.2,64.1,11.8,95.6,20.4c-8.2,31.5-18.5,62.5-30.1,93
		c25.3,20.6,49.6,42.3,72.6,65.5c-22.9,23.2-47.3,44.9-72.6,65.5c11.6,30.5,21.8,61.4,30.1,93C578,502.1,546.1,508.7,513.9,513.9z"
		/>
</g>
<g id="Layer_5">
	<path class="st1" d="M341.5,366.1c0.5-0.4,1-0.8,1.5-1.2c0.6,0.1,1.3,0.2,1.9,0.3c3.5,0.6,6.6,1.7,9.3,3.1c0.1-3.1,0.7-6.3,2-9.6
		c0.2-0.6,0.5-1.2,0.7-1.8c0.6-0.3,1.2-0.5,1.8-0.7c3.3-1.2,6.5-1.8,9.6-2c-1.4-2.8-2.5-5.8-3.1-9.3c-0.1-0.6-0.2-1.3-0.3-1.9
		c0.4-0.5,0.8-1,1.2-1.5c2.3-2.7,4.7-4.8,7.4-6.5c-2.6-1.7-5.1-3.8-7.4-6.5c-0.4-0.5-0.8-1-1.2-1.5c0.1-0.6,0.2-1.3,0.3-1.9
		c0.6-3.5,1.7-6.6,3.1-9.3c-3.1-0.1-6.3-0.7-9.6-2c-0.6-0.2-1.2-0.5-1.8-0.7c-0.3-0.6-0.5-1.2-0.7-1.8c-1.2-3.3-1.8-6.5-2-9.6
		c-2.8,1.4-5.8,2.5-9.3,3.1c-0.6,0.1-1.3,0.2-1.9,0.3c-0.5-0.4-1-0.8-1.5-1.2c-2.7-2.3-4.8-4.7-6.5-7.4c-1.7,2.6-3.8,5.1-6.5,7.4
		c-0.5,0.4-1,0.8-1.5,1.2c-0.6-0.1-1.3-0.2-1.9-0.3c-3.5-0.6-6.6-1.7-9.3-3.1c-0.1,3.1-0.7,6.3-2,9.6c-0.2,0.6-0.5,1.2-0.7,1.8
		c-0.6,0.3-1.2,0.5-1.8,0.7c-3.3,1.2-6.5,1.8-9.6,2c1.4,2.8,2.5,5.8,3.1,9.3c0.1,0.6,0.2,1.3,0.3,1.9c-0.4,0.5-0.8,1-1.2,1.5
		c-2.3,2.7-4.7,4.8-7.4,6.5c2.6,1.7,5.1,3.8,7.4,6.5c0.4,0.5,0.8,1,1.2,1.5c-0.1,0.6-0.2,1.3-0.3,1.9c-0.6,3.5-1.7,6.6-3.1,9.3
		c3.1,0.1,6.3,0.7,9.6,2c0.6,0.2,1.2,0.5,1.8,0.7c0.3,0.6,0.5,1.2,0.7,1.8c1.2,3.3,1.8,6.5,2,9.6c2.8-1.4,5.8-2.5,9.3-3.1
		c0.6-0.1,1.3-0.2,1.9-0.3c0.5,0.4,1,0.8,1.5,1.2c2.7,2.3,4.8,4.7,6.5,7.4C336.7,370.9,338.8,368.4,341.5,366.1z M335,344.5
		c-0.8-0.4-1.5-0.7-2.3-1c-0.8-0.1-1.6-0.2-2.5-0.3c-0.5-0.7-1-1.4-1.5-2c-0.6-0.5-1.3-1-2-1.5c-0.1-0.8-0.2-1.7-0.3-2.5
		c-0.3-0.8-0.6-1.5-1-2.3c0.4-0.8,0.7-1.5,1-2.3c0.1-0.8,0.2-1.6,0.3-2.5c0.7-0.5,1.4-1,2-1.5c0.5-0.6,1-1.3,1.5-2
		c0.8-0.1,1.6-0.2,2.5-0.3c0.8-0.3,1.5-0.6,2.3-1c0.8,0.4,1.5,0.7,2.3,1c0.8,0.1,1.6,0.2,2.5,0.3c0.5,0.7,1,1.4,1.5,2
		c0.6,0.5,1.3,1,2,1.5c0.1,0.8,0.2,1.7,0.3,2.5c0.3,0.8,0.6,1.5,1,2.3c-0.4,0.8-0.7,1.5-1,2.3c-0.1,0.8-0.2,1.6-0.3,2.5
		c-0.7,0.5-1.4,1-2,1.5c-0.5,0.6-1,1.3-1.5,2c-0.8,0.1-1.6,0.2-2.5,0.3C336.5,343.8,335.8,344.1,335,344.5z"/>
</g>
<g id="Layer_6">
	<path class="st1" d="M488.8,347.8c-2.2-4.2-4.2-8.5-6.1-12.8c1.9-4.3,4-8.6,6.1-12.8c6-11.6,12.8-22.9,20-33.8
		c-11.7-5.8-23.2-12.1-34.2-19.2c-4-2.6-7.9-5.3-11.7-8c-0.5-4.7-0.9-9.4-1.1-14.2c-0.6-13.1-0.4-26.2,0.5-39.3
		c-13.1,0.8-26.2,1.1-39.3,0.5c-4.7-0.2-9.5-0.6-14.2-1.1c-2.8-3.8-5.5-7.7-8-11.7c-7.1-11-13.4-22.5-19.2-34.2
		c-10.9,7.3-22.1,14.1-33.8,20c-4.2,2.2-8.5,4.2-12.8,6.1c-4.3-1.9-8.6-4-12.8-6.1c-11.6-6-22.9-12.8-33.8-20
		c-5.8,11.7-12.1,23.2-19.2,34.2c-2.6,4-5.3,7.9-8,11.7c-4.7,0.5-9.4,0.9-14.2,1.1c-13.1,0.6-26.2,0.4-39.3-0.5
		c0.8,13.1,1.1,26.2,0.5,39.3c-0.2,4.7-0.6,9.5-1.1,14.2c-3.8,2.8-7.7,5.5-11.7,8c-11,7.1-22.5,13.4-34.2,19.2
		c7.3,10.9,14.1,22.1,20,33.8c2.2,4.2,4.2,8.5,6.1,12.8c-1.9,4.3-4,8.6-6.1,12.8c-6,11.6-12.8,22.9-20,33.8
		c11.7,5.8,23.2,12.1,34.2,19.2c4,2.6,7.9,5.3,11.7,8c0.5,4.7,0.9,9.4,1.1,14.2c0.6,13.1,0.4,26.2-0.5,39.3
		c13.1-0.8,26.2-1.1,39.3-0.5c4.7,0.2,9.5,0.6,14.2,1.1c2.8,3.8,5.5,7.7,8,11.7c7.1,11,13.4,22.5,19.2,34.2
		c10.9-7.3,22.1-14.1,33.8-20c4.2-2.2,8.5-4.2,12.8-6.1c4.3,1.9,8.6,4,12.8,6.1c11.6,6,22.9,12.8,33.8,20
		c5.8-11.7,12.1-23.2,19.2-34.2c2.6-4,5.3-7.9,8-11.7c4.7-0.5,9.4-0.9,14.2-1.1c13.1-0.6,26.2-0.4,39.3,0.5
		c-0.8-13.1-1.1-26.2-0.5-39.3c0.2-4.7,0.6-9.5,1.1-14.2c3.8-2.8,7.7-5.5,11.7-8c11-7.1,22.5-13.4,34.2-19.2
		C501.6,370.7,494.8,359.5,488.8,347.8z M469.5,318.2c-0.8,5.8-2.1,11.5-4,16.8c2,5.3,3.3,11,4,16.8c0.8,6,0.3,12.9,0.5,19.4
		c-3.4,5.5-6.4,11.7-10.1,16.5c-3.6,4.6-7.5,8.9-11.9,12.5c-1,5.6-2.7,11.2-4.9,16.6c-2.3,5.6-6.2,11.3-9.3,17
		c-5.8,3.1-11.4,7-17,9.3c-5.4,2.2-11,3.9-16.6,4.9c-3.6,4.4-7.9,8.3-12.5,11.9c-4.8,3.7-11,6.7-16.5,10.1
		c-6.5-0.2-13.4,0.3-19.4-0.5c-5.8-0.8-11.5-2.1-16.8-4c-5.3,2-11,3.3-16.8,4c-6,0.8-12.9,0.3-19.4,0.5c-5.5-3.4-11.7-6.4-16.5-10.1
		c-4.6-3.6-8.9-7.5-12.5-11.9c-5.6-1-11.2-2.7-16.6-4.9c-5.6-2.3-11.3-6.2-17-9.3c-3.1-5.8-7-11.4-9.3-17c-2.2-5.4-3.9-11-4.9-16.6
		c-4.4-3.6-8.3-7.9-11.9-12.5c-3.7-4.8-6.7-11-10.1-16.5c0.2-6.5-0.3-13.4,0.5-19.4c0.8-5.8,2.1-11.5,4-16.8c-2-5.3-3.3-11-4-16.8
		c-0.8-6-0.3-12.9-0.5-19.4c3.4-5.5,6.4-11.7,10.1-16.5c3.6-4.6,7.5-8.9,11.9-12.5c1-5.6,2.7-11.2,4.9-16.6c2.3-5.6,6.2-11.3,9.3-17
		c5.8-3.1,11.4-7,17-9.3c5.4-2.2,11-3.9,16.6-4.9c3.6-4.4,7.9-8.3,12.5-11.9c4.8-3.7,11-6.7,16.5-10.1c6.5,0.2,13.4-0.3,19.4,0.5
		c5.8,0.8,11.5,2.1,16.8,4c5.3-2,11-3.3,16.8-4c6-0.8,12.9-0.3,19.4-0.5c5.5,3.4,11.7,6.4,16.5,10.1c4.6,3.6,8.9,7.5,12.5,11.9
		c5.6,1,11.2,2.7,16.6,4.9c5.6,2.3,11.3,6.2,17,9.3c3.1,5.8,7,11.4,9.3,17c2.2,5.4,3.9,11,4.9,16.6c4.4,3.6,8.3,7.9,11.9,12.5
		c3.7,4.8,6.7,11,10.1,16.5C469.8,305.3,470.3,312.2,469.5,318.2z"/>
</g>
<g id="Layer_7">
	<path class="st1" d="M458.6,301.9c-3.7-11.1-9.3-20.8-18.8-27.4c-0.9-11.5-6.6-21.2-14.3-30c-8.8-7.8-18.5-13.4-30-14.3
		c-6.6-9.5-16.3-15.1-27.4-18.8c-11.5-2.3-22.7-2.4-33.1,2.6c-10.4-5-21.6-4.9-33.1-2.6c-11.1,3.7-20.8,9.3-27.4,18.8
		c-11.5,0.9-21.2,6.6-30,14.3c-7.8,8.8-13.4,18.5-14.3,30c-9.5,6.6-15.1,16.3-18.8,27.4c-2.3,11.5-2.4,22.7,2.6,33.1
		c-5,10.4-4.9,21.6-2.6,33.1c3.7,11.1,9.3,20.8,18.8,27.4c0.9,11.5,6.6,21.2,14.3,30c8.8,7.8,18.5,13.4,30,14.3
		c6.6,9.5,16.3,15.1,27.4,18.8c11.5,2.3,22.7,2.4,33.1-2.6c10.4,5,21.6,4.9,33.1,2.6c11.1-3.7,20.8-9.3,27.4-18.8
		c11.5-0.9,21.2-6.6,30-14.3c7.8-8.8,13.4-18.5,14.3-30c9.5-6.6,15.1-16.3,18.8-27.4c2.3-11.5,2.4-22.7-2.6-33.1
		C461,324.6,460.9,313.4,458.6,301.9z M440.4,363.3c-5.9,11.4-15.8,16.9-27.3,16.9c5.7,9.9,5.9,21.3-1,32.1
		c-10.8,6.9-22.1,6.7-32.1,1c0,11.5-5.5,21.4-16.9,27.3c-12.8,0.6-22.5-5.2-28.3-15.2c-5.7,9.9-15.5,15.8-28.3,15.2
		c-11.4-5.9-16.9-15.8-16.9-27.3c-9.9,5.7-21.3,5.9-32.1-1c-6.9-10.8-6.7-22.1-1-32.1c-11.5,0-21.4-5.5-27.3-16.9
		c-0.6-12.8,5.2-22.5,15.2-28.3c-9.9-5.7-15.8-15.5-15.2-28.3c5.9-11.4,15.8-16.9,27.3-16.9c-5.7-9.9-5.9-21.3,1-32.1
		c10.8-6.9,22.1-6.7,32.1-1c0-11.5,5.5-21.4,16.9-27.3c12.8-0.6,22.5,5.2,28.3,15.2c5.7-9.9,15.4-15.8,28.3-15.2
		c11.4,5.9,16.9,15.8,16.9,27.3c9.9-5.7,21.3-5.9,32.1,1c6.9,10.8,6.7,22.1,1,32.1c11.5,0,21.4,5.5,27.3,16.9
		c0.6,12.8-5.2,22.5-15.2,28.3C435.2,340.7,441,350.4,440.4,363.3z"/>
</g>
<g id="Layer_8">
	<path class="st1" d="M264.6,494.1l-10.1-19.5l-22,0.9c0,0-8.2,0.2-11.9,0.4c-4.2,0.2-8.8,0.5-13.4,0.9c-1.2,24.6-0.2,49.3,3.6,73.4
		c22.8-8.8,44.7-20.2,65.4-33.6c-2-4.2-4-8.3-5.9-12.1C268.5,501.3,264.6,494.1,264.6,494.1z"/>
	<path class="st1" d="M155.8,363.7c2-3.1,6.3-10.1,6.3-10.1l9.1-18.6l-9.1-18.6c0,0-4.3-7-6.3-10.1c-2.3-3.6-4.9-7.3-7.5-11.2
		c-21.9,11.2-42.8,24.5-61.8,39.9c19,15.4,39.9,28.6,61.8,39.9C150.9,371,153.5,367.3,155.8,363.7z"/>
	<path class="st1" d="M353.6,508l-19.1-10.3L316.4,508c0,0-7,4.3-10.1,6.3c-3.6,2.3-7.3,4.9-11.2,7.5c11.2,21.9,24.5,42.8,39.9,61.8
		c15.4-19,28.6-39.9,39.9-61.8c-3.8-2.6-7.6-5.2-11.2-7.5C360.6,512.3,353.6,508,353.6,508z"/>
	<path class="st1" d="M194.5,415.6l-18.6-10.2c0,0-7.2-3.9-10.5-5.6c-3.8-2-7.9-3.9-12.1-5.9c-13.4,20.7-24.8,42.6-33.6,65.4
		c24.2,3.8,48.8,4.9,73.4,3.6c0.3-4.6,0.7-9.2,0.9-13.4c0.1-3.7,0.4-11.9,0.4-11.9V415.6z"/>
	<path class="st1" d="M165.4,270.2c3.3-1.7,10.5-5.6,10.5-5.6l18.6-10.5v-21.7c0,0-0.2-8.2-0.4-11.9c-0.2-4.2-0.5-8.8-0.9-13.4
		c-24.6-1.2-49.3-0.2-73.4,3.6c8.8,22.8,20.2,44.7,33.6,65.4C157.6,274.1,161.7,272.2,165.4,270.2z"/>
	<path class="st1" d="M405.4,175.9l9.1,17.7l23,0.8c0,0,8.2-0.2,11.9-0.4c4.2-0.2,8.8-0.5,13.4-0.9c1.2-24.6,0.2-49.3-3.6-73.4
		c-22.8,8.8-44.7,20.2-65.4,33.6c2,4.2,4,8.3,5.9,12.1C401.5,168.7,405.4,175.9,405.4,175.9z"/>
	<path class="st1" d="M476,253.2l18.1,11.4c0,0,7.2,3.9,10.5,5.6c3.8,2,7.9,3.9,12.1,5.9c13.4-20.7,24.8-42.6,33.6-65.4
		c-24.2-3.8-48.8-4.9-73.4-3.6c-0.3,4.6-0.7,9.2-0.9,13.4c-0.1,3.7-0.4,11.9-0.4,11.9L476,253.2z"/>
	<path class="st1" d="M514.2,306.3c-2,3.1-6.3,10.1-6.3,10.1l-9.6,18.6l9.6,18.6c0,0,4.3,7,6.3,10.1c2.3,3.6,4.9,7.3,7.5,11.2
		c21.9-11.2,42.8-24.5,61.8-39.9c-19-15.4-39.9-28.6-61.8-39.9C519.1,299,516.5,302.7,514.2,306.3z"/>
	<path class="st1" d="M220.5,194.1c3.7,0.1,11.9,0.4,11.9,0.4H253l11.6-18.6c0,0,3.9-7.2,5.6-10.5c2-3.8,3.9-7.9,5.9-12.1
		c-20.7-13.4-42.6-24.8-65.4-33.6c-3.8,24.2-4.9,48.8-3.6,73.4C211.8,193.6,216.3,194,220.5,194.1z"/>
	<path class="st1" d="M316.4,162l18.1,9.9l19.1-9.9c0,0,7-4.3,10.1-6.3c3.6-2.3,7.3-4.9,11.2-7.5c-11.2-21.9-24.5-42.8-39.9-61.8
		c-15.4,19-28.6,39.9-39.9,61.8c3.8,2.6,7.6,5.2,11.2,7.5C309.4,157.7,316.4,162,316.4,162z"/>
	<path class="st1" d="M449.5,475.9c-3.7-0.1-11.9-0.4-11.9-0.4h-21.8l-10.4,18.6c0,0-3.9,7.2-5.6,10.5c-2,3.8-3.9,7.9-5.9,12.1
		c20.7,13.4,42.6,24.8,65.4,33.6c3.8-24.2,4.9-48.8,3.6-73.4C458.2,476.4,453.7,476,449.5,475.9z"/>
	<path class="st1" d="M504.6,399.8c-3.3,1.7-10.5,5.6-10.5,5.6L474.9,416l0.6,21.6c0,0,0.2,8.2,0.4,11.9c0.2,4.2,0.5,8.8,0.9,13.4
		c24.6,1.2,49.3,0.2,73.4-3.6c-8.8-22.8-20.2-44.7-33.6-65.4C512.4,395.9,508.3,397.8,504.6,399.8z"/>
</g>
<g id="Layer_9">
	<path class="st1" d="M622.2,335c-21.2-20.8-43.5-40.4-66.4-59.2c10.5-27.8,20-55.9,27.9-84.4c-28.7-7.4-57.8-13.2-87.1-18
		c-4.8-29.3-10.6-58.4-18-87.1c-28.6,7.9-56.7,17.5-84.4,27.9c-18.8-22.9-38.4-45.2-59.2-66.4c-20.8,21.2-40.4,43.5-59.2,66.4
		c-27.8-10.5-55.9-20-84.4-27.9c-7.4,28.7-13.2,57.8-18,87.1c-29.3,4.8-58.4,10.6-87.1,18c7.9,28.6,17.5,56.7,27.9,84.4
		c-22.9,18.8-45.2,38.4-66.4,59.2c21.2,20.8,43.5,40.4,66.4,59.2c-10.5,27.8-20,55.9-27.9,84.4c28.7,7.4,57.8,13.2,87.1,18
		c4.8,29.3,10.6,58.4,18,87.1c28.6-7.9,56.7-17.5,84.4-27.9c18.8,22.9,38.4,45.2,59.2,66.4c20.8-21.2,40.4-43.5,59.2-66.4
		c27.8,10.5,55.9,20,84.4,27.9c7.4-28.7,13.2-57.8,18-87.1c29.3-4.8,58.4-10.6,87.1-18c-7.9-28.6-17.5-56.7-27.9-84.4
		C578.8,375.4,601.1,355.8,622.2,335z M561.9,466c-27.7,5.3-56.3,6.9-84.6,5.6c0.1,1.9,0.1,3.9,0.1,5.8c-1.9,0-3.9,0-5.8-0.1
		c1.4,28.3-0.3,56.9-5.6,84.6c-26.7-9.3-52.2-22.1-76-37.5c-0.9,1.7-1.9,3.4-2.8,5.1c-1.7-0.9-3.3-1.9-5-3
		c-13,25.2-28.7,49.1-47.1,70.5c-18.5-21.4-34.1-45.2-47.1-70.5c-1.6,1-3.3,2-5,3c-1-1.7-1.9-3.3-2.8-5.1
		c-23.9,15.4-49.4,28.2-76,37.5c-5.3-27.7-6.9-56.3-5.6-84.6c-1.9,0.1-3.9,0.1-5.8,0.1c0-1.9,0-3.9,0.1-5.8
		c-28.3,1.4-56.9-0.3-84.6-5.6c9.3-26.7,22.1-52.2,37.5-76c-1.7-0.9-3.4-1.9-5.1-2.8c0.9-1.7,1.9-3.3,3-5
		c-25.2-13-49.1-28.7-70.5-47.1c21.4-18.5,45.2-34.1,70.5-47.1c-1-1.6-2-3.3-3-5c1.7-1,3.4-1.9,5.1-2.8
		c-15.4-23.9-28.2-49.4-37.5-76c27.7-5.3,56.3-6.9,84.6-5.6c-0.1-1.9-0.1-3.9-0.1-5.8c1.9,0,3.9,0,5.8,0.1
		c-1.4-28.3,0.3-56.9,5.6-84.6c26.7,9.3,52.2,22.1,76,37.5c0.9-1.7,1.9-3.4,2.8-5.1c1.7,0.9,3.3,1.9,5,3
		c13-25.2,28.7-49.1,47.1-70.5c18.5,21.4,34.1,45.2,47.1,70.5c1.6-1,3.3-2,5-3c1,1.7,1.9,3.3,2.8,5.1c23.9-15.4,49.4-28.2,76-37.5
		c5.3,27.7,6.9,56.3,5.6,84.6c1.9-0.1,3.9-0.1,5.8-0.1c0,1.9,0,3.9-0.1,5.8c28.3-1.4,56.9,0.3,84.6,5.6c-9.3,26.7-22.1,52.2-37.5,76
		c1.7,0.9,3.4,1.9,5.1,2.8c-0.9,1.7-1.9,3.3-3,5c25.2,13,49.1,28.7,70.5,47.1c-21.4,18.5-45.2,34.1-70.5,47.1c1,1.6,2,3.3,3,5
		c-1.7,1-3.3,1.9-5.1,2.8C539.7,413.8,552.6,439.3,561.9,466z"/>
</g>
</svg>
