<?xml version="1.0" encoding="utf-8"?>
<!-- Generator: Adobe Illustrator 22.0.1, SVG Export Plug-In . SVG Version: 6.00 Build 0)  -->
<svg version="1.1" xmlns="http://www.w3.org/2000/svg" xmlns:xlink="http://www.w3.org/1999/xlink" x="0px" y="0px"
	 viewBox="0 0 670 670" style="enable-background:new 0 0 670 670;" xml:space="preserve">
<style type="text/css">
	.st0{fill:#232323;}
	.st1{fill:#FFFFFF;}
</style>
<g id="Layer_5">
	<g>
		<path class="st0" d="M374,312.5c-2-3.3-4.7-6.2-8.1-8.4c-2.2-3.3-5.1-6.1-8.4-8.1c-3.4-1.9-7.2-3-11.2-3.2
			c-3.5-1.8-7.4-2.8-11.3-2.8c-3.9,0-7.8,1-11.3,2.8c-4,0.2-7.8,1.3-11.2,3.2c-3.3,2-6.2,4.7-8.4,8.1c-3.3,2.2-6.1,5.1-8.1,8.4
			c-1.9,3.4-3,7.2-3.2,11.2c-1.8,3.5-2.8,7.4-2.8,11.3c0,3.9,1,7.8,2.8,11.3c0.2,4,1.3,7.8,3.2,11.2c2,3.3,4.7,6.2,8.1,8.4
			c2.2,3.3,5.1,6.1,8.4,8.1c3.4,1.9,7.2,3,11.2,3.2c3.5,1.8,7.4,2.8,11.3,2.8c3.9,0,7.8-1,11.3-2.8c4-0.2,7.8-1.3,11.2-3.2
			c3.3-2,6.2-4.7,8.4-8.1c3.3-2.2,6.1-5.1,8.1-8.4c1.9-3.4,3-7.2,3.2-11.2c1.8-3.5,2.8-7.4,2.8-11.3c0-3.9-1-7.8-2.8-11.3
			C377,319.7,375.9,315.9,374,312.5z M363.1,341.8c-0.2,0.2-0.4,0.4-0.6,0.6c0.1,0.3,0.2,0.5,0.3,0.8c0.7,2.9,0.1,5.4-1.1,7.2
			c-1,2-2.8,3.7-5.7,4.6c-0.3,0.1-0.6,0.1-0.8,0.2c0,0.3-0.1,0.5-0.2,0.8c-0.9,2.9-2.6,4.7-4.6,5.7c-1.9,1.2-4.3,1.8-7.2,1.1
			c-0.3-0.1-0.5-0.2-0.8-0.3c-0.2,0.2-0.4,0.4-0.6,0.6c-2.2,2.1-4.6,2.8-6.8,2.7c-2.2,0.1-4.6-0.6-6.8-2.7c-0.2-0.2-0.4-0.4-0.6-0.6
			c-0.3,0.1-0.5,0.2-0.8,0.3c-2.9,0.7-5.4,0.1-7.2-1.1c-2-1-3.7-2.8-4.6-5.7c-0.1-0.3-0.1-0.6-0.2-0.8c-0.3,0-0.5-0.1-0.8-0.2
			c-2.9-0.9-4.7-2.6-5.7-4.6c-1.2-1.9-1.8-4.3-1.1-7.2c0.1-0.3,0.2-0.5,0.3-0.8c-0.2-0.2-0.4-0.4-0.6-0.6c-2.1-2.2-2.8-4.6-2.7-6.8
			c-0.1-2.2,0.6-4.6,2.7-6.8c0.2-0.2,0.4-0.4,0.6-0.6c-0.1-0.3-0.2-0.5-0.3-0.8c-0.7-2.9-0.1-5.4,1.1-7.2c1-2,2.8-3.7,5.7-4.6
			c0.3-0.1,0.6-0.1,0.8-0.2c0-0.3,0.1-0.5,0.2-0.8c0.9-2.9,2.6-4.7,4.6-5.7c1.9-1.2,4.3-1.8,7.2-1.1c0.3,0.1,0.5,0.2,0.8,0.3
			c0.2-0.2,0.4-0.4,0.6-0.6c2.2-2.1,4.6-2.8,6.8-2.7c2.2-0.1,4.6,0.6,6.8,2.7c0.2,0.2,0.4,0.4,0.6,0.6c0.3-0.1,0.5-0.2,0.8-0.3
			c2.9-0.7,5.4-0.1,7.2,1.1c2,1,3.7,2.8,4.6,5.7c0.1,0.3,0.1,0.6,0.2,0.8c0.3,0,0.5,0.1,0.8,0.2c2.9,0.9,4.7,2.6,5.7,4.6
			c1.2,1.9,1.8,4.3,1.1,7.2c-0.1,0.3-0.2,0.5-0.3,0.8c0.2,0.2,0.4,0.4,0.6,0.6c2.1,2.2,2.8,4.6,2.7,6.8
			C365.9,337.2,365.2,339.6,363.1,341.8z"/>
		<path class="st0" d="M345.1,329.2c-0.5-1.1-0.7-2.3-0.8-3.5c-1.2-0.1-2.4-0.3-3.5-0.8c-0.9-0.7-1.8-1.6-2.4-2.7
			c-1.1,0.6-2.2,0.9-3.4,1.1c-1.2-0.2-2.3-0.5-3.4-1.1c-0.7,1-1.5,1.9-2.4,2.7c-1.1,0.5-2.3,0.7-3.5,0.8c-0.1,1.2-0.3,2.4-0.8,3.5
			c-0.7,0.9-1.6,1.8-2.7,2.4c0.6,1.1,0.9,2.2,1.1,3.4c-0.2,1.2-0.5,2.3-1.1,3.4c1,0.7,1.9,1.5,2.7,2.4c0.5,1.1,0.7,2.3,0.8,3.5
			c1.2,0.1,2.4,0.3,3.5,0.8c0.9,0.7,1.8,1.6,2.4,2.7c1.1-0.6,2.2-0.9,3.4-1.1c1.2,0.2,2.3,0.5,3.4,1.1c0.7-1,1.5-1.9,2.4-2.7
			c1.1-0.5,2.3-0.7,3.5-0.8c0.1-1.2,0.3-2.4,0.8-3.5c0.7-0.9,1.6-1.8,2.7-2.4c-0.6-1.1-0.9-2.2-1.1-3.4c0.2-1.2,0.5-2.3,1.1-3.4
			C346.8,330.9,345.8,330.1,345.1,329.2z"/>
		<path class="st0" d="M398.7,398.7c4.8-6.1,9.5-12.4,14-18.8c3.3-7.1,6.4-14.3,9.3-21.5c1.1-7.7,2-15.5,2.7-23.3
			c-0.7-7.8-1.6-15.6-2.7-23.3c-2.9-7.3-6-14.4-9.3-21.5c-4.5-6.4-9.1-12.7-14-18.8c-6.1-4.8-12.4-9.5-18.8-14
			c-7.1-3.3-14.3-6.4-21.5-9.3c-7.7-1.1-15.5-2-23.3-2.7c-7.8,0.7-15.6,1.6-23.3,2.7c-7.3,2.9-14.4,6-21.5,9.3
			c-6.4,4.5-12.7,9.1-18.8,14c-4.8,6.1-9.5,12.4-14,18.8c-3.3,7.1-6.4,14.3-9.3,21.5c-1.1,7.7-2,15.5-2.7,23.3
			c0.7,7.8,1.6,15.6,2.7,23.3c2.9,7.3,6,14.4,9.3,21.5c4.5,6.4,9.1,12.7,14,18.8c6.1,4.8,12.4,9.5,18.8,14
			c7.1,3.3,14.3,6.4,21.5,9.3c7.7,1.1,15.5,2,23.3,2.7c7.8-0.7,15.6-1.6,23.3-2.7c7.3-2.9,14.4-6,21.5-9.3
			C386.3,408.2,392.6,403.5,398.7,398.7z M371,397.4c-5.7,2.6-11.5,5.1-17.3,7.4c-6.2,0.9-12.4,1.6-18.7,2.2
			c-6.3-0.6-12.5-1.4-18.7-2.2c-5.8-2.3-11.6-4.8-17.3-7.4c-5.1-3.7-10.1-7.4-15.1-11.3c-3.9-4.9-7.6-10-11.3-15.1
			c-2.6-5.7-5.1-11.5-7.4-17.3c-0.9-6.2-1.6-12.4-2.2-18.7c0.6-6.3,1.4-12.5,2.2-18.7c2.3-5.8,4.8-11.6,7.4-17.3
			c3.7-5.1,7.4-10.1,11.3-15.1c4.9-3.9,10-7.6,15.1-11.3c5.7-2.6,11.5-5.1,17.3-7.4c6.2-0.9,12.4-1.6,18.7-2.2
			c6.3,0.6,12.5,1.4,18.7,2.2c5.8,2.3,11.6,4.8,17.3,7.4c5.1,3.7,10.1,7.4,15.1,11.3c3.9,4.9,7.6,10,11.3,15.1
			c2.6,5.7,5.1,11.5,7.4,17.3c0.9,6.2,1.6,12.4,2.2,18.7c-0.6,6.3-1.4,12.5-2.2,18.7c-2.3,5.8-4.8,11.6-7.4,17.3
			c-3.7,5.1-7.4,10.1-11.3,15.1C381.1,389.9,376.1,393.7,371,397.4z"/>
		<path class="st0" d="M638.5,253.7c-23.4-19.7-48.8-36.8-76.5-49.7c2.6-30.5,0.6-61-4.8-91.1c-30.1-5.4-60.6-7.5-91.1-4.8
			c-13-27.7-30-53.1-49.7-76.5c-28.8,10.4-56.2,23.9-81.3,41.4c-25.1-17.5-52.5-31-81.3-41.4c-19.7,23.4-36.8,48.8-49.7,76.5
			c-30.5-2.6-61-0.6-91.1,4.8c-5.4,30.1-7.5,60.6-4.8,91.1c-27.7,13-53.1,30-76.5,49.7c10.4,28.8,23.9,56.2,41.4,81.3
			c-17.5,25.1-31,52.5-41.4,81.3c23.4,19.7,48.8,36.8,76.5,49.7c-2.6,30.5-0.6,61,4.8,91.1c30.1,5.4,60.6,7.5,91.1,4.8
			c13,27.7,30,53.1,49.7,76.5c28.8-10.4,56.2-23.9,81.3-41.4c25.1,17.5,52.5,31,81.3,41.4c19.7-23.4,36.8-48.8,49.7-76.5
			c30.5,2.6,61,0.6,91.1-4.8c5.4-30.1,7.5-60.6,4.8-91.1c27.7-13,53.1-30,76.5-49.7c-10.4-28.8-23.9-56.2-41.4-81.3
			C614.6,309.9,628.1,282.5,638.5,253.7z M588.6,246.8l22.7,14.2l-12.6,23.6c-10.9,16.6-25.2,29.3-44.4,33.4
			c-19.8-10.1-40.4-18.6-61.8-25.2c15.1-16.4,28.7-34.1,40.9-52.8C552.1,234.1,570.9,237.9,588.6,246.8z M459.4,153.5
			c13.2-14.5,31.3-20.5,51.1-21.7l26.8,0.9l0.9,26.8c-1.2,19.8-7.2,38-21.7,51.1c-22.2,1.2-44.3,4.1-66.1,9
			C455.2,197.8,458.2,175.8,459.4,153.5z M385.4,71.3L409,58.7l14.2,22.7c8.9,17.7,12.7,36.5,6.8,55.2
			c-18.7,12.2-36.3,25.7-52.8,40.9c-6.7-21.3-15.2-41.9-25.2-61.8C356.1,96.5,368.8,82.2,385.4,71.3z M246.8,81.4L261,58.7
			l23.6,12.6c16.6,10.9,29.3,25.2,33.4,44.4c-10.1,19.8-18.6,40.4-25.2,61.8c-16.4-15.1-34.1-28.7-52.7-40.9
			C234.1,117.9,237.9,99.1,246.8,81.4z M210.6,153.5c1.2,22.2,4.1,44.3,9,66.1c-21.8-4.9-43.9-7.8-66.1-9
			c-14.5-13.2-20.5-31.3-21.7-51.1l0.9-26.8l26.8-0.9C179.3,133,197.4,139,210.6,153.5z M132.7,132.7 M71.3,284.6L58.7,261
			l22.7-14.2c17.7-8.9,36.5-12.7,55.2-6.8c12.2,18.7,25.7,36.3,40.9,52.8c-21.3,6.7-41.9,15.2-61.8,25.2
			C96.5,313.9,82.2,301.2,71.3,284.6z M81.4,423.2L58.7,409l12.6-23.6c10.9-16.6,25.2-29.3,44.4-33.4c19.8,10.1,40.4,18.6,61.8,25.2
			c-15.1,16.4-28.7,34.1-40.9,52.7C117.9,435.9,99.1,432.1,81.4,423.2z M210.6,516.5c-13.2,14.5-31.3,20.5-51.1,21.7l-26.8-0.9
			l-0.9-26.8c1.2-19.8,7.2-38,21.7-51.1c22.2-1.2,44.3-4.1,66.1-9C214.8,472.2,211.8,494.2,210.6,516.5z M284.6,598.7L261,611.3
			l-14.2-22.7c-8.9-17.7-12.7-36.5-6.8-55.2c18.6-12.2,36.3-25.7,52.7-40.9c6.7,21.3,15.2,41.9,25.2,61.8
			C313.9,573.5,301.2,587.8,284.6,598.7z M307.6,437.1c-20,24.2-42.9,45.1-67.9,62.9c2.9-30.6,9.5-60.8,20.5-90.2
			c-29.4,11-59.7,17.6-90.2,20.5c17.8-25,38.7-47.9,62.9-67.9c-31-5.2-60.5-14.6-88.4-27.4c28-12.8,57.4-22.1,88.4-27.4
			c-24.2-20-45.1-42.9-62.9-67.9c30.6,2.9,60.8,9.5,90.2,20.5c-11-29.4-17.6-59.7-20.5-90.2c25,17.8,47.9,38.7,67.9,62.9
			c5.2-31,14.6-60.5,27.4-88.4c12.8,28,22.1,57.4,27.4,88.4c20-24.2,42.9-45,67.9-62.9c-2.9,30.6-9.5,60.8-20.5,90.2
			c29.4-11,59.7-17.6,90.2-20.5c-17.8,25-38.7,47.9-62.9,67.9c31,5.2,60.5,14.6,88.4,27.4c-28,12.8-57.4,22.1-88.4,27.4
			c24.2,20,45,42.9,62.9,67.9c-30.6-2.9-60.8-9.5-90.2-20.5c11,29.4,17.6,59.7,20.5,90.2c-25-17.8-47.9-38.7-67.9-62.9
			c-5.2,31-14.6,60.5-27.4,88.4C322.2,497.6,312.9,468.1,307.6,437.1z M423.2,588.6L409,611.3l-23.6-12.6
			c-16.6-10.9-29.3-25.2-33.4-44.4c10.1-19.8,18.6-40.4,25.2-61.8c16.4,15.1,34.1,28.7,52.8,40.9
			C435.9,552.1,432.1,570.9,423.2,588.6z M459.4,516.5c-1.2-22.2-4.1-44.3-9-66.1c21.8,4.9,43.9,7.8,66.1,9
			c14.5,13.2,20.5,31.3,21.7,51.1l-0.9,26.8l-26.8,0.9C490.7,537,472.6,531,459.4,516.5z M598.7,385.4l12.6,23.6l-22.7,14.2
			c-17.7,8.9-36.5,12.7-55.2,6.8c-12.2-18.7-25.7-36.3-40.9-52.7c21.3-6.7,41.9-15.2,61.8-25.2C573.5,356.1,587.8,368.8,598.7,385.4
			z"/>
	</g>
</g>
<g id="Layer_6">
	<g>
		<path class="st1" d="M363.1,328.2c-0.2-0.2-0.4-0.4-0.6-0.6c0.1-0.3,0.2-0.5,0.3-0.8c0.7-2.9,0.1-5.4-1.1-7.2
			c-1-2-2.8-3.7-5.7-4.6c-0.3-0.1-0.6-0.1-0.8-0.2c0-0.3-0.1-0.5-0.2-0.8c-0.9-2.9-2.6-4.7-4.6-5.7c-1.9-1.2-4.3-1.8-7.2-1.1
			c-0.3,0.1-0.5,0.2-0.8,0.3c-0.2-0.2-0.4-0.4-0.6-0.6c-2.2-2.1-4.6-2.8-6.8-2.7c-2.2-0.1-4.6,0.6-6.8,2.7c-0.2,0.2-0.4,0.4-0.6,0.6
			c-0.3-0.1-0.5-0.2-0.8-0.3c-2.9-0.7-5.4-0.1-7.2,1.1c-2,1-3.7,2.8-4.6,5.7c-0.1,0.3-0.1,0.6-0.2,0.8c-0.3,0-0.5,0.1-0.8,0.2
			c-2.9,0.9-4.7,2.6-5.7,4.6c-1.2,1.9-1.8,4.3-1.1,7.2c0.1,0.3,0.2,0.5,0.3,0.8c-0.2,0.2-0.4,0.4-0.6,0.6c-2.1,2.2-2.8,4.6-2.7,6.8
			c-0.1,2.2,0.6,4.6,2.7,6.8c0.2,0.2,0.4,0.4,0.6,0.6c-0.1,0.3-0.2,0.5-0.3,0.8c-0.7,2.9-0.1,5.4,1.1,7.2c1,2,2.8,3.7,5.7,4.6
			c0.3,0.1,0.6,0.1,0.8,0.2c0,0.3,0.1,0.5,0.2,0.8c0.9,2.9,2.6,4.7,4.6,5.7c1.9,1.2,4.3,1.8,7.2,1.1c0.3-0.1,0.5-0.2,0.8-0.3
			c0.2,0.2,0.4,0.4,0.6,0.6c2.2,2.1,4.6,2.8,6.8,2.7c2.2,0.1,4.6-0.6,6.8-2.7c0.2-0.2,0.4-0.4,0.6-0.6c0.3,0.1,0.5,0.2,0.8,0.3
			c2.9,0.7,5.4,0.1,7.2-1.1c2-1,3.7-2.8,4.6-5.7c0.1-0.3,0.1-0.6,0.2-0.8c0.3,0,0.5-0.1,0.8-0.2c2.9-0.9,4.7-2.6,5.7-4.6
			c1.2-1.9,1.8-4.3,1.1-7.2c-0.1-0.3-0.2-0.5-0.3-0.8c0.2-0.2,0.4-0.4,0.6-0.6c2.1-2.2,2.8-4.6,2.7-6.8
			C365.9,332.8,365.2,330.4,363.1,328.2z M347.8,338.4c-1,0.7-1.9,1.5-2.7,2.4c-0.5,1.1-0.7,2.3-0.8,3.5c-1.2,0.1-2.4,0.3-3.5,0.8
			c-0.9,0.7-1.8,1.6-2.4,2.7c-1.1-0.6-2.2-0.9-3.4-1.1c-1.2,0.2-2.3,0.5-3.4,1.1c-0.7-1-1.5-1.9-2.4-2.7c-1.1-0.5-2.3-0.7-3.5-0.8
			c-0.1-1.2-0.3-2.4-0.8-3.5c-0.7-0.9-1.6-1.8-2.7-2.4c0.6-1.1,0.9-2.2,1.1-3.4c-0.2-1.2-0.5-2.3-1.1-3.4c1-0.7,1.9-1.5,2.7-2.4
			c0.5-1.1,0.7-2.3,0.8-3.5c1.2-0.1,2.4-0.3,3.5-0.8c0.9-0.7,1.8-1.6,2.4-2.7c1.1,0.6,2.2,0.9,3.4,1.1c1.2-0.2,2.3-0.5,3.4-1.1
			c0.7,1,1.5,1.9,2.4,2.7c1.1,0.5,2.3,0.7,3.5,0.8c0.1,1.2,0.3,2.4,0.8,3.5c0.7,0.9,1.6,1.8,2.7,2.4c-0.6,1.1-0.9,2.2-1.1,3.4
			C346.8,336.2,347.2,337.3,347.8,338.4z"/>
	</g>
</g>
<g id="Layer_7">
	<g>
		<path class="st1" d="M404.8,353.7c0.9-6.2,1.6-12.4,2.2-18.7c-0.6-6.3-1.4-12.5-2.2-18.7c-2.3-5.8-4.8-11.6-7.4-17.3
			c-3.7-5.1-7.4-10.1-11.3-15.1c-4.9-3.9-10-7.6-15.1-11.3c-5.7-2.6-11.5-5.1-17.3-7.4c-6.2-0.9-12.4-1.6-18.7-2.2
			c-6.3,0.6-12.5,1.4-18.7,2.2c-5.8,2.3-11.6,4.8-17.3,7.4c-5.1,3.7-10.1,7.4-15.1,11.3c-3.9,4.9-7.6,10-11.3,15.1
			c-2.6,5.7-5.1,11.5-7.4,17.3c-0.9,6.2-1.6,12.4-2.2,18.7c0.6,6.3,1.4,12.5,2.2,18.7c2.3,5.8,4.8,11.6,7.4,17.3
			c3.7,5.1,7.4,10.1,11.3,15.1c4.9,3.9,10,7.6,15.1,11.3c5.7,2.6,11.5,5.1,17.3,7.4c6.2,0.9,12.4,1.6,18.7,2.2
			c6.3-0.6,12.5-1.4,18.7-2.2c5.8-2.3,11.6-4.8,17.3-7.4c5.1-3.7,10.1-7.4,15.1-11.3c3.9-4.9,7.6-10,11.3-15.1
			C400,365.3,402.4,359.5,404.8,353.7z M377.2,346.3c-0.2,4-1.3,7.8-3.2,11.2c-2,3.3-4.7,6.2-8.1,8.4c-2.2,3.3-5.1,6.1-8.4,8.1
			c-3.4,1.9-7.2,3-11.2,3.2c-3.5,1.8-7.4,2.8-11.3,2.8c-3.9,0-7.8-1-11.3-2.8c-4-0.2-7.8-1.3-11.2-3.2c-3.3-2-6.2-4.7-8.4-8.1
			c-3.3-2.2-6.1-5.1-8.1-8.4c-1.9-3.4-3-7.2-3.2-11.2c-1.8-3.5-2.8-7.4-2.8-11.3c0-3.9,1-7.8,2.8-11.3c0.2-4,1.3-7.8,3.2-11.2
			c2-3.3,4.7-6.2,8.1-8.4c2.2-3.3,5.1-6.1,8.4-8.1c3.4-1.9,7.2-3,11.2-3.2c3.5-1.8,7.4-2.8,11.3-2.8c3.9,0,7.8,1,11.3,2.8
			c4,0.2,7.8,1.3,11.2,3.2c3.3,2,6.2,4.7,8.4,8.1c3.3,2.2,6.1,5.1,8.1,8.4c1.9,3.4,3,7.2,3.2,11.2c1.8,3.5,2.8,7.4,2.8,11.3
			C380,338.9,379,342.8,377.2,346.3z"/>
	</g>
</g>
<g id="Layer_8">
	<g>
		<path class="st1" d="M131.8,159.5c1.2,19.8,7.2,38,21.7,51.1c22.2,1.2,44.3,4.1,66.1,9c-4.9-21.8-7.8-43.9-9-66.1
			c-13.2-14.5-31.3-20.5-51.1-21.7l-26.8,0.9L131.8,159.5z"/>
		<path class="st1" d="M292.8,177.4c6.7-21.3,15.2-41.9,25.2-61.8c-4.2-19.2-16.9-33.5-33.4-44.4L261,58.7l-14.2,22.7
			c-8.9,17.7-12.7,36.5-6.8,55.2C258.7,148.7,276.3,162.3,292.8,177.4z"/>
		<path class="st1" d="M177.4,377.2c-21.3-6.7-41.9-15.2-61.8-25.2c-19.2,4.2-33.5,16.9-44.4,33.4L58.7,409l22.7,14.2
			c17.7,8.9,36.5,12.7,55.2,6.8C148.7,411.3,162.3,393.7,177.4,377.2z"/>
		<path class="st1" d="M115.7,318c19.8-10.1,40.4-18.6,61.8-25.2c-15.1-16.4-28.7-34.1-40.9-52.8c-18.7-6-37.4-2.1-55.2,6.8
			C80.7,246,58.7,261,58.7,261l12.6,23.6C82.2,301.2,96.5,313.9,115.7,318z"/>
		<path class="st1" d="M538.2,159.5l-0.9-26.8l-26.8-0.9c-19.8,1.2-38,7.2-51.1,21.7c-1.2,22.2-4.1,44.3-9,66.1
			c21.8-4.9,43.9-7.8,66.1-9C531,197.4,537,179.3,538.2,159.5z"/>
		<path class="st1" d="M492.6,292.8c21.3,6.7,41.9,15.2,61.8,25.2c19.2-4.2,33.5-16.9,44.4-33.4l12.6-23.6l-22.7-14.2
			c-17.7-8.9-36.5-12.7-55.2-6.8C521.3,258.7,507.7,276.3,492.6,292.8z"/>
		<path class="st1" d="M430,136.6c6-18.7,2.1-37.4-6.8-55.2L409,58.7l-23.6,12.6c-16.6,10.9-29.3,25.2-33.4,44.4
			c10.1,19.8,18.6,40.4,25.2,61.8C393.7,162.3,411.3,148.7,430,136.6z"/>
		<path class="st1" d="M131.8,510.5l0.9,26.8l26.8,0.9c19.8-1.2,38-7.2,51.1-21.7c1.2-22.2,4.1-44.3,9-66.1
			c-21.8,4.9-43.9,7.8-66.1,9C139,472.6,133,490.7,131.8,510.5z"/>
		<path class="st1" d="M538.2,510.5c-1.2-19.8-7.2-38-21.7-51.1c-22.2-1.2-44.3-4.1-66.1-9c4.9,21.8,7.8,43.9,9,66.1
			c13.2,14.5,31.3,20.5,51.1,21.7l26.8-0.9L538.2,510.5z"/>
		<path class="st1" d="M377.2,492.6c-6.7,21.3-15.2,41.9-25.2,61.8c4.2,19.2,16.9,33.5,33.4,44.4l23.6,12.6l14.2-22.7
			c8.9-17.7,12.7-36.5,6.8-55.2C411.3,521.3,393.7,507.7,377.2,492.6z"/>
		<path class="st1" d="M554.3,352c-19.8,10.1-40.4,18.6-61.8,25.2c15.1,16.4,28.7,34.1,40.9,52.7c18.7,6,37.4,2.1,55.2-6.8
			l22.7-14.2l-12.6-23.6C587.8,368.8,573.5,356.1,554.3,352z"/>
		<path class="st1" d="M240,533.4c-6,18.7-2.1,37.4,6.8,55.2l14.2,22.7l23.6-12.6c16.6-10.9,29.3-25.2,33.4-44.4
			c-10.1-19.8-18.6-40.4-25.2-61.8C276.3,507.7,258.7,521.3,240,533.4z"/>
	</g>
</g>
<g id="Layer_9">
	<g>
		<path class="st1" d="M430.3,500c-2.9-30.6-9.5-60.8-20.5-90.2c29.4,11,59.7,17.6,90.2,20.5c-17.8-25-38.7-47.9-62.9-67.9
			c31-5.2,60.5-14.6,88.4-27.4c-28-12.8-57.4-22.1-88.4-27.4c24.2-20,45-42.9,62.9-67.9c-30.6,2.9-60.8,9.5-90.2,20.5
			c11-29.4,17.6-59.7,20.5-90.2c-25,17.8-47.9,38.7-67.9,62.9c-5.2-31-14.6-60.5-27.4-88.4c-12.8,28-22.1,57.4-27.4,88.4
			c-20-24.2-42.9-45-67.9-62.9c2.9,30.6,9.5,60.8,20.5,90.2c-29.4-11-59.7-17.6-90.2-20.5c17.8,25,38.7,47.9,62.9,67.9
			c-31,5.2-60.5,14.6-88.4,27.4c28,12.8,57.4,22.1,88.4,27.4c-24.2,20-45.1,42.9-62.9,67.9c30.6-2.9,60.8-9.5,90.2-20.5
			c-11,29.4-17.6,59.7-20.5,90.2c25-17.8,47.9-38.7,67.9-62.9c5.2,31,14.6,60.5,27.4,88.4c12.8-28,22.1-57.4,27.4-88.4
			C382.4,461.3,405.2,482.2,430.3,500z M335,424.7c-7.8-0.7-15.6-1.6-23.3-2.7c-7.3-2.9-14.4-6-21.5-9.3c-6.4-4.5-12.7-9.1-18.8-14
			c-4.8-6.1-9.5-12.4-14-18.8c-3.3-7.1-6.4-14.3-9.3-21.5c-1.1-7.7-2-15.5-2.7-23.3c0.7-7.8,1.6-15.6,2.7-23.3
			c2.9-7.3,6-14.4,9.3-21.5c4.5-6.4,9.1-12.7,14-18.8c6.1-4.8,12.4-9.5,18.8-14c7.1-3.3,14.3-6.4,21.5-9.3c7.7-1.1,15.5-2,23.3-2.7
			c7.8,0.7,15.6,1.6,23.3,2.7c7.3,2.9,14.4,6,21.5,9.3c6.4,4.5,12.7,9.1,18.8,14c4.8,6.1,9.5,12.4,14,18.8
			c3.3,7.1,6.4,14.3,9.3,21.5c1.1,7.7,2,15.5,2.7,23.3c-0.7,7.8-1.6,15.6-2.7,23.3c-2.9,7.3-6,14.4-9.3,21.5
			c-4.5,6.4-9.1,12.7-14,18.8c-6.1,4.8-12.4,9.5-18.8,14c-7.1,3.3-14.3,6.4-21.5,9.3C350.6,423.1,342.8,424,335,424.7z"/>
	</g>
</g>
<g id="Layer_11">
	<path class="st1" d="M335,10C155.5,10,10,155.5,10,335s145.5,325,325,325s325-145.5,325-325S514.5,10,335,10z M562,466.1
		c2.6,30.5,0.6,61-4.8,91.1c-30.1,5.4-60.6,7.5-91.1,4.8c-13,27.7-30,53.1-49.7,76.5c-28.8-10.4-56.2-23.9-81.3-41.4
		c-25.1,17.5-52.5,31-81.3,41.4c-19.7-23.4-36.8-48.8-49.7-76.5c-30.5,2.6-61,0.6-91.1-4.8c-5.4-30.1-7.5-60.6-4.8-91.1
		c-27.7-13-53.1-30-76.5-49.7c10.4-28.8,23.9-56.2,41.4-81.3c-17.5-25.1-31-52.5-41.4-81.3c23.4-19.7,48.8-36.8,76.5-49.7
		c-2.6-30.5-0.6-61,4.8-91.1c30.1-5.4,60.6-7.5,91.1-4.8c13-27.7,30-53.1,49.7-76.5c28.8,10.4,56.2,23.9,81.3,41.4
		c25.1-17.5,52.5-31,81.3-41.4c19.7,23.4,36.8,48.8,49.7,76.5c30.5-2.6,61-0.6,91.1,4.8c5.4,30.1,7.5,60.6,4.8,91.1
		c27.7,13,53.1,30,76.5,49.7c-10.4,28.8-23.9,56.2-41.4,81.3c17.5,25.1,31,52.5,41.4,81.3C615.1,436.1,589.7,453.1,562,466.1z"/>
</g>
</svg>
